<svg width="15" height="14" viewBox="0 0 15 14" fill="none" xmlns="http://www.w3.org/2000/svg">
<path id="Vector" d="M8.96882 12.3861L14.3126 7.01455L8.96882 1.643C8.92056 1.57963 8.85925 1.52736 8.78903 1.48974C8.71881 1.45212 8.64133 1.43003 8.56183 1.42496C8.48234 1.41988 8.40268 1.43195 8.32825 1.46034C8.25382 1.48873 8.18636 1.53278 8.13044 1.58951C8.07451 1.64624 8.03143 1.71432 8.00411 1.78915C7.97678 1.86398 7.96585 1.9438 7.97206 2.02322C7.97827 2.10264 8.00147 2.17979 8.04008 2.24946C8.0787 2.31914 8.13184 2.3797 8.1959 2.42705L12.194 6.45849L1.55654 6.45849C1.40906 6.45849 1.26763 6.51707 1.16335 6.62135C1.05906 6.72563 1.00048 6.86707 1.00048 7.01455C1.00048 7.16202 1.05906 7.30346 1.16335 7.40774C1.26763 7.51202 1.40906 7.57061 1.55654 7.57061L12.194 7.57061L8.1959 11.602C8.09193 11.7067 8.03381 11.8485 8.03433 11.996C8.03485 12.1436 8.09397 12.2849 8.19868 12.3889C8.30339 12.4928 8.44511 12.551 8.59267 12.5504C8.74023 12.5499 8.88153 12.4908 8.9855 12.3861H8.96882Z" fill="black" stroke="black" stroke-width="0.9483"/>
</svg>
