<svg width="16" height="14" viewBox="0 0 16 14" fill="none" xmlns="http://www.w3.org/2000/svg">
<path id="Vector" d="M9.38185 12.3861L14.7256 7.01455L9.38185 1.643C9.33359 1.57963 9.27227 1.52736 9.20205 1.48974C9.13184 1.45212 9.05436 1.43003 8.97486 1.42496C8.89536 1.41988 8.8157 1.43195 8.74127 1.46034C8.66685 1.48873 8.59939 1.53278 8.54346 1.58951C8.48754 1.64624 8.44445 1.71432 8.41713 1.78915C8.38981 1.86398 8.37888 1.9438 8.38508 2.02322C8.39129 2.10264 8.41449 2.17979 8.45311 2.24946C8.49173 2.31914 8.54486 2.3797 8.60892 2.42705L12.607 6.45849L1.96956 6.45849C1.82209 6.45849 1.68065 6.51707 1.57637 6.62135C1.47209 6.72563 1.4135 6.86707 1.4135 7.01455C1.4135 7.16202 1.47209 7.30346 1.57637 7.40774C1.68065 7.51202 1.82209 7.57061 1.96956 7.57061L12.607 7.57061L8.60892 11.602C8.50495 11.7067 8.44684 11.8485 8.44736 11.996C8.44788 12.1436 8.507 12.2849 8.6117 12.3889C8.71641 12.4928 8.85813 12.551 9.00569 12.5504C9.15325 12.5499 9.29456 12.4908 9.39853 12.3861H9.38185Z" fill="black" stroke="black" stroke-width="0.9483"/>
</svg>
