<svg width="237" height="151" viewBox="0 0 237 151" fill="none" xmlns="http://www.w3.org/2000/svg">
<g id="7">
<path id="Vector" d="M138.056 58.0798H134.895V129.368H138.056V58.0798Z" fill="white" stroke="#1A1A1A" stroke-width="0.243866" stroke-linecap="round" stroke-linejoin="round"/>
<path id="Vector_2" d="M140.941 127.629H130.865V149.904H140.941V127.629Z" fill="#1C0311" stroke="#1A1A1A" stroke-width="0.121933" stroke-linecap="round" stroke-linejoin="round"/>
<path id="Vector_3" d="M195.55 131.428C195.55 131.428 201.831 131.391 206.717 134.036C214.383 138.181 219.406 149.904 219.406 149.904H204.416L195.55 131.428Z" fill="#0C2321" stroke="black" stroke-width="0.243866" stroke-linecap="round" stroke-linejoin="round"/>
<path id="Vector_4" d="M1.01643 149.904C1.01643 149.904 -0.280942 126.212 20.1831 126.212C40.6472 126.212 38.9608 149.904 38.9608 149.904H1.01643Z" fill="#0C2321" stroke="black" stroke-width="0.243866" stroke-linecap="round" stroke-linejoin="round"/>
<path id="Vector_5" d="M65.9616 29.427C66.0533 29.8697 66.1172 30.3176 66.153 30.7683C66.5761 35.9602 59.8125 47.9133 59.8125 48.0938C59.8125 48.2742 64.524 53.4064 64.524 53.4064C64.524 53.4064 70.3768 51.2335 70.6207 47.6109C70.8645 43.9883 69.5952 31.8632 69.4733 30.6476C69.4513 30.4269 69.4318 30.2135 69.4147 30.005L69.3318 30.0172C68.1235 30.1159 67.0261 29.8513 65.9616 29.427Z" fill="white" stroke="#1A1A1A" stroke-width="0.243866" stroke-linecap="round" stroke-linejoin="round"/>
<path id="Vector_6" d="M63.2539 20.4502C62.3479 20.816 62.8881 22.2621 62.8881 22.2621C62.5601 25.2665 65.1499 25.5543 65.9583 29.4269C67.0179 29.8512 68.1227 30.1158 69.3298 30.0231L69.4127 30.0109C69.1774 27.2296 69.2591 25.3385 68.0446 23.7107C66.7411 21.9597 64.1598 20.088 63.2539 20.4502Z" fill="white" stroke="#1A1A1A" stroke-width="0.243866" stroke-linecap="round" stroke-linejoin="round"/>
<path id="Vector_7" d="M213.766 101.616C213.766 101.616 210.192 89.6946 216.875 85.8318C222.432 95.812 213.766 101.616 213.766 101.616Z" fill="#0C2321" stroke="black" stroke-width="0.243866" stroke-linecap="round" stroke-linejoin="round"/>
<path id="Vector_8" d="M221.15 107.001C221.15 107.001 212.334 106.907 209.21 112.79C212.93 116.017 221.157 109.577 221.15 107.001Z" fill="#0C2321" stroke="black" stroke-width="0.243866" stroke-linecap="round" stroke-linejoin="round"/>
<path id="Vector_9" d="M209.618 113.079C209.618 113.079 201.799 108.047 203.822 99.5154C209.065 100.003 210.735 108.773 209.618 113.079Z" fill="#0C2321" stroke="black" stroke-width="0.243866" stroke-linecap="round" stroke-linejoin="round"/>
<path id="Vector_10" d="M213.977 122.818C213.977 122.818 206.166 120.458 203.308 124.757C208.582 128.814 213.977 122.818 213.977 122.818Z" fill="#0C2321" stroke="black" stroke-width="0.243866" stroke-linecap="round" stroke-linejoin="round"/>
<path id="Vector_11" d="M203.696 124.92C203.696 124.92 197.389 122.858 199.965 113.601C204.878 113.845 203.696 124.92 203.696 124.92Z" fill="#0C2321" stroke="black" stroke-width="0.243866" stroke-linecap="round" stroke-linejoin="round"/>
<path id="Vector_12" d="M214.057 126.762C214.057 126.762 209.749 135.643 216.875 137.421C218.083 132.92 214.057 126.762 214.057 126.762Z" fill="#1C0311" stroke="#1A1A1A" stroke-width="0.121933" stroke-linecap="round" stroke-linejoin="round"/>
<path id="Vector_13" d="M216.882 137.79C216.882 137.79 224.653 135.214 228.559 141.692C221.506 143.465 216.836 139.4 216.882 137.79Z" fill="#1C0311" stroke="#1A1A1A" stroke-width="0.121933" stroke-linecap="round" stroke-linejoin="round"/>
<path id="Vector_14" d="M220.459 122.818C220.459 122.818 217.044 130.028 222.516 132.44C224.042 128.975 220.459 122.818 220.459 122.818Z" fill="#1C0311" stroke="#1A1A1A" stroke-width="0.121933" stroke-linecap="round" stroke-linejoin="round"/>
<path id="Vector_15" d="M222.516 132.44C222.516 132.44 231.612 127.889 236 134.288C227.709 136.784 224.492 135.743 222.516 132.44Z" fill="#1C0311" stroke="#1A1A1A" stroke-width="0.121933" stroke-linecap="round" stroke-linejoin="round"/>
<path id="Vector_16" d="M226.408 127.206C226.408 127.206 220.942 116.137 230.484 112.515C237.367 119.397 226.408 127.206 226.408 127.206Z" fill="#1C0311" stroke="#1A1A1A" stroke-width="0.121933" stroke-linecap="round" stroke-linejoin="round"/>
<path id="Vector_17" d="M190.867 144.27C190.867 144.27 212.851 116.982 215.749 91.8689L190.867 144.27Z" stroke="#1A1A1A" stroke-width="0.243866" stroke-linecap="round" stroke-linejoin="round"/>
<path id="Vector_18" d="M201.616 145.96C201.616 145.96 226.856 136.179 228.552 120.719L201.616 145.96Z" stroke="#1A1A1A" stroke-width="0.243866" stroke-linecap="round" stroke-linejoin="round"/>
<path id="Vector_19" d="M171.131 97.301L144.482 149.904H212.766L171.131 97.301Z" fill="#1C0311" stroke="#1A1A1A" stroke-width="0.121933" stroke-linecap="round" stroke-linejoin="round"/>
<path id="Vector_20" d="M80.9389 80.0156H30.7012V149.904H80.9389V80.0156Z" fill="#1C0311" stroke="#1A1A1A" stroke-width="0.121933" stroke-linecap="round" stroke-linejoin="round"/>
<path id="Vector_21" d="M70.3148 80.0156H20.0771V149.904H70.3148V80.0156Z" fill="white" stroke="#1A1A1A" stroke-width="0.243866" stroke-linecap="round" stroke-linejoin="round"/>
<path id="Vector_22" d="M57.7286 24.8018L59.9783 20.839C59.9783 20.839 64.0484 22.7668 64.7983 19.7684C65.5482 16.7701 64.9056 3.6001 61.2622 3.6001C57.6189 3.6001 53.0927 9.27487 53.2146 13.4511C53.3366 17.6273 52.3721 21.5596 52.3721 21.5596L57.7286 24.8018Z" fill="white" stroke="#1A1A1A" stroke-width="0.243866" stroke-linecap="round" stroke-linejoin="round"/>
<path id="Vector_23" d="M87.8969 60.3138C87.8969 60.3138 93.8997 64.5985 94.257 66.1666C88.2578 65.952 85.0303 63.8986 85.0303 63.8986C85.0303 63.8986 85.3168 60.098 87.8969 60.3138Z" fill="white" stroke="#1A1A1A" stroke-width="0.243866" stroke-linecap="round" stroke-linejoin="round"/>
<path id="Vector_24" d="M100.934 135.77C100.934 135.77 102.791 142.05 102.791 142.158C102.791 142.265 103.183 150.083 103.183 150.083L122.857 150.261C122.857 150.261 114.13 141.431 108.87 140.546C106.111 134.093 106.188 133.839 106.188 133.839L100.934 135.77Z" fill="#1C0311" stroke="#1A1A1A" stroke-width="0.121933" stroke-linecap="round" stroke-linejoin="round"/>
<path id="Vector_25" d="M88.921 112.951C88.921 112.951 87.0335 117.155 86.9835 117.208C86.9335 117.26 83.5693 121.613 83.5693 121.613L93.9739 130.716C96.3626 130.863 95.1567 122.122 90.967 119.132C92.4522 114.427 92.6046 114.327 92.6046 114.327L88.921 112.951Z" fill="#1C0311" stroke="#1A1A1A" stroke-width="0.121933" stroke-linecap="round" stroke-linejoin="round"/>
<path id="Vector_26" d="M62.0127 63.1389C62.0127 63.1389 97.7903 64.4241 102.825 69.9916C107.86 75.559 94.3262 118.643 94.3262 118.643C94.3262 118.643 88.043 115.502 87.1858 113.074C91.7559 85.2283 91.1681 81.0911 91.1681 81.0911C91.1681 81.0911 77.0446 85.9404 72.7562 83.9432L62.0127 63.1389Z" fill="#0C2321" stroke="black" stroke-width="0.243866" stroke-linecap="round" stroke-linejoin="round"/>
<path id="Vector_27" d="M72.2438 71.4108C76.2602 73.0215 81.3131 77.622 83.5628 79.7815C92.5603 88.4192 107.325 134.127 107.325 134.127L100.469 137.339C100.469 137.339 91.2568 103.076 69.6198 95.7937C47.9827 88.5119 45.2002 72.4509 45.2002 72.4509L63.8755 62.3975L72.2438 71.4108Z" fill="#0C2321" stroke="black" stroke-width="0.243866" stroke-linecap="round" stroke-linejoin="round"/>
<path id="Vector_28" d="M45.2002 76.4819L48.3997 80.0179C48.3997 80.0179 65.8362 69.0171 66.0215 65.3457C52.5979 70.5254 45.2002 76.4819 45.2002 76.4819Z" fill="#1C0311" stroke="#1A1A1A" stroke-width="0.121933" stroke-linecap="round" stroke-linejoin="round"/>
<path id="Vector_29" d="M50.7657 22.2669C50.7657 22.2669 26.4851 62.1001 45.9103 77.2332C62.0494 71.3804 68.0485 63.0999 68.0485 63.0999L58.7645 24.2654C58.7645 24.2654 55.9076 19.2686 50.7657 22.2669Z" fill="white" stroke="#1A1A1A" stroke-width="0.243866" stroke-linecap="round" stroke-linejoin="round"/>
<path id="Vector_30" d="M58.7642 24.2654C66.2265 27.5856 64.8609 49.7494 64.8609 49.7494C64.8609 49.7494 77.9797 55.8522 88.2623 59.2785C87.727 61.4209 85.5798 63.99 85.5798 63.99C85.5798 63.99 65.3389 60.671 56.8718 58.7469C48.4048 56.8228 50.2301 35.5088 50.2301 35.5088L58.7642 24.2654Z" fill="white" stroke="#1A1A1A" stroke-width="0.243866" stroke-linecap="round" stroke-linejoin="round"/>
<path id="Vector_31" d="M51.7398 15.93C51.7398 15.93 53.242 17.648 56.3562 16.6275C59.4704 15.6069 58.9863 11.5307 58.9863 11.5307L61.5628 10.6186L65.4268 8.36527C65.4268 8.36527 67.735 1.01392 60.919 1.01392C54.1029 1.01392 56.5708 4.76946 56.5708 4.76946C56.5708 4.76946 47.5526 3.26968 51.7398 15.93Z" fill="#1C0311" stroke="#1A1A1A" stroke-width="0.121933" stroke-linecap="round" stroke-linejoin="round"/>
<path id="Vector_32" d="M109.469 32.035L109.37 30.7474C109.075 28.0721 109.963 25.1482 112.429 22.1755C114.65 19.549 115.884 17.6164 115.884 15.3874C115.884 12.8598 114.299 11.1759 111.197 11.1259C109.42 11.1259 107.446 11.7209 106.213 12.6622L105.029 9.54074C106.657 8.35067 109.469 7.55811 112.084 7.55811C117.759 7.55811 120.325 11.0759 120.325 14.8424C120.325 18.2114 118.449 20.6391 116.081 23.4631C113.91 26.0395 113.121 28.2185 113.268 30.7474L113.318 32.035H109.469ZM108.384 38.9718C108.384 37.1428 109.618 35.8503 111.344 35.8503C113.071 35.8503 114.255 37.1391 114.255 38.9718C114.255 40.7069 113.121 42.0445 111.295 42.0445C109.568 42.0445 108.384 40.7032 108.384 38.9718Z" fill="#1C0311" stroke="#1A1A1A" stroke-width="0.121933" stroke-linecap="round" stroke-linejoin="round"/>
<path id="Vector_33" d="M171.131 97.301L139.013 149.904H194.247L171.131 97.301Z" fill="#0C2321" stroke="black" stroke-width="0.243866" stroke-linecap="round" stroke-linejoin="round"/>
<path id="Vector_34" d="M198.226 43.4529C195.356 43.8386 192.682 45.1214 190.585 47.1181C188.487 49.1148 187.075 51.7232 186.549 54.5708C186.45 55.1047 186.384 55.6443 186.352 56.1864C186.332 56.4717 186.323 56.7619 186.323 57.0533C186.316 59.8191 187.151 62.5216 188.715 64.8022C192.35 64.6229 196.826 63.8791 201.564 62.5769C203.412 62.0684 205.181 61.5051 206.845 60.9076C206.084 54.272 203.305 47.6462 198.226 43.4529Z" fill="white" stroke="#1A1A1A" stroke-width="0.243866" stroke-linecap="round" stroke-linejoin="round"/>
<path id="Vector_35" d="M213.77 57.0534C213.774 54.2868 212.938 51.5841 211.372 49.3034C211.065 48.8535 210.73 48.423 210.37 48.0145C209.083 46.542 207.496 45.3621 205.716 44.5544C203.935 43.7468 202.002 43.33 200.047 43.3323C199.435 43.3324 198.824 43.3732 198.218 43.4542C203.3 47.6475 206.079 54.2733 206.843 60.909C209.208 60.0747 211.512 59.0761 213.737 57.9204C213.762 57.6326 213.77 57.3448 213.77 57.0534Z" fill="#1C0311" stroke="#1A1A1A" stroke-width="0.121933" stroke-linecap="round" stroke-linejoin="round"/>
<path id="Vector_36" d="M206.849 60.9075C205.186 61.5049 203.416 62.0683 201.568 62.5767C196.831 63.879 192.355 64.6228 188.72 64.802C189.027 65.2514 189.361 65.6818 189.721 66.0909C191.785 68.4464 194.592 70.0255 197.678 70.566C200.763 71.1065 203.94 70.5759 206.682 69.0624C206.826 68.5606 206.915 68.0446 206.948 67.5236C207.137 65.3205 207.104 63.1039 206.849 60.9075Z" fill="white" stroke="#1A1A1A" stroke-width="0.243866" stroke-linecap="round" stroke-linejoin="round"/>
<path id="Vector_37" d="M206.849 60.9075C207.104 63.104 207.137 65.3205 206.947 67.5236C206.915 68.0447 206.826 68.5606 206.682 69.0624C208.459 68.0809 209.997 66.7173 211.183 65.07C212.37 63.4226 213.177 61.5325 213.545 59.5358C213.645 59.0015 213.711 58.4615 213.743 57.9189C211.517 59.0747 209.214 60.0733 206.849 60.9075Z" fill="#1C0311" stroke="#1A1A1A" stroke-width="0.121933" stroke-linecap="round" stroke-linejoin="round"/>
<path id="Vector_38" d="M224.054 50.4455C223.374 47.9813 217.911 47.168 210.369 48.0142C210.73 48.4227 211.065 48.8532 211.372 49.303C216.21 49.0592 219.557 49.8091 220.036 51.5515C220.515 53.2939 218.026 55.6521 213.742 57.9188C210.525 59.6259 206.304 61.2732 201.567 62.5767C196.83 63.8801 192.354 64.6227 188.719 64.802C183.882 65.0458 180.535 64.2935 180.062 62.5523C179.589 60.8111 182.072 58.4517 186.355 56.1862C186.386 55.6441 186.452 55.1045 186.551 54.5705C179.64 57.7018 175.365 61.1927 176.043 63.6582C176.721 66.1237 182.185 66.9358 189.726 66.0969C193.384 65.6872 197.544 64.8861 201.879 63.6936C206.214 62.5011 210.193 61.0635 213.551 59.5418C220.457 56.4044 224.733 52.9123 224.054 50.4455Z" fill="#0C2321" stroke="black" stroke-width="0.243866" stroke-linecap="round" stroke-linejoin="round"/>
<path id="Vector_39" d="M57.98 19.505L59.9785 20.839L59.4908 21.6925C59.4908 21.6925 57.7593 19.9671 57.8813 19.4038L57.98 19.505Z" fill="#1C0311" stroke="#1A1A1A" stroke-width="0.121933" stroke-linecap="round" stroke-linejoin="round"/>
<path id="Vector_40" d="M48.4574 29.427C48.4574 29.427 36.3507 31.7145 32.0476 39.2768C27.7446 46.8391 31.3965 54.7623 34.3949 55.1537C37.3932 55.5451 42.3486 55.0232 43.7837 52.676C45.2189 50.3288 48.4574 29.427 48.4574 29.427Z" fill="#0C2321" stroke="black" stroke-width="0.243866" stroke-linecap="round" stroke-linejoin="round"/>
<path id="Vector_41" d="M30.7012 38.7681C30.7012 38.7681 32.6131 40.0728 34.9603 38.7681C37.3075 37.4634 45.1295 29.9889 48.0852 31.7704C50.0849 30.8583 48.451 27.7295 48.451 27.7295C48.451 27.7295 36.8027 28.9525 30.7012 38.7681Z" fill="white" stroke="#1A1A1A" stroke-width="0.243866" stroke-linecap="round" stroke-linejoin="round"/>
<path id="Vector_42" d="M60.7762 24.5567C60.7762 24.5567 51.3764 21.6937 47.7099 31.6008L47.7647 33.731C47.7647 33.731 50.7363 22.8216 60.7762 25.8187C61.4286 25.4261 60.7762 24.5567 60.7762 24.5567Z" fill="#1C0311" stroke="#1A1A1A" stroke-width="0.121933" stroke-linecap="round" stroke-linejoin="round"/>
<path id="Vector_43" d="M39.891 41.8103L39.3057 50.1554C39.3057 50.1554 42.5223 51.9844 43.2173 50.1554C43.9124 48.3264 43.6514 41.8103 43.6514 41.8103H39.891Z" fill="white" stroke="#1A1A1A" stroke-width="0.243866" stroke-linecap="round" stroke-linejoin="round"/>
<path id="Vector_44" d="M45.7538 44.9954C45.7538 44.9954 48.8582 52.165 51.5554 52.4174C52.9112 55.5536 53.2124 55.2719 53.2124 55.2719C53.2124 55.2719 46.7109 53.3661 45.2002 48.0693C45.644 45.5465 45.7538 44.9954 45.7538 44.9954Z" fill="#1C0311" stroke="#1A1A1A" stroke-width="0.121933" stroke-linecap="round" stroke-linejoin="round"/>
<path id="Vector_45" d="M39.3057 41.8104L41.0128 44.6209H43.3295C43.3295 44.6209 44.3525 41.9274 43.6953 41.4202C39.3923 41.4921 39.3057 41.8104 39.3057 41.8104Z" fill="#1C0311" stroke="#1A1A1A" stroke-width="0.121933" stroke-linecap="round" stroke-linejoin="round"/>
<path id="Vector_46" d="M30.8712 47.8875H30.1396C30.1396 47.8875 30.414 47.963 30.853 48.0435" stroke="#1A1A1A" stroke-width="0.243866" stroke-linecap="round" stroke-linejoin="round"/>
<path id="Vector_47" d="M31.9746 48.1948C32.5389 48.2474 33.107 48.2445 33.6707 48.1863" stroke="#1A1A1A" stroke-width="0.243866" stroke-linecap="round" stroke-linejoin="round" stroke-dasharray="1.13 1.13"/>
<path id="Vector_48" d="M34.2261 48.096C34.4647 48.0455 34.6987 47.9758 34.926 47.8875H34.1944" stroke="#1A1A1A" stroke-width="0.243866" stroke-linecap="round" stroke-linejoin="round"/>
<path id="Vector_49" d="M33.0892 47.8875H31.4248" stroke="#1A1A1A" stroke-width="0.243866" stroke-linecap="round" stroke-linejoin="round" stroke-dasharray="1.11 1.11"/>
<path id="Vector_50" d="M65.2322 73.5374C65.4542 74.4844 65.4578 75.4695 65.243 76.4182C65.0282 77.3669 64.6005 78.2543 63.9922 79.0134L65.2322 73.5374Z" stroke="#1A1A1A" stroke-width="0.243866" stroke-linecap="round" stroke-linejoin="round"/>
<path id="Vector_51" d="M51.7281 132.312C54.7705 131.814 56.1434 124.733 54.7946 116.497C53.4458 108.26 49.8861 101.987 46.8437 102.485C43.8013 102.983 42.4284 110.064 43.7772 118.301C45.126 126.537 48.6857 132.811 51.7281 132.312Z" stroke="#1A1A1A" stroke-width="0.243866" stroke-linecap="round" stroke-linejoin="round"/>
<path id="Vector_52" d="M52.8214 121.719C59.2802 116.432 62.9331 110.213 60.9804 107.827C59.0278 105.442 52.209 107.793 45.7502 113.079C39.2915 118.366 35.6386 124.585 37.5913 126.971C39.5439 129.357 46.3627 127.005 52.8214 121.719Z" stroke="#1A1A1A" stroke-width="0.243866" stroke-linecap="round" stroke-linejoin="round"/>
<path id="Vector_53" d="M63.4218 122.74C64.5115 119.856 59.0656 115.127 51.2581 112.177C43.4505 109.226 36.2379 109.173 35.1482 112.057C34.0584 114.94 39.5043 119.67 47.3118 122.62C55.1194 125.57 62.332 125.624 63.4218 122.74Z" stroke="#1A1A1A" stroke-width="0.243866" stroke-linecap="round" stroke-linejoin="round"/>
<path id="Vector_54" d="M60.4817 109.319C61.5498 109.319 62.4156 108.453 62.4156 107.385C62.4156 106.317 61.5498 105.451 60.4817 105.451C59.4137 105.451 58.5479 106.317 58.5479 107.385C58.5479 108.453 59.4137 109.319 60.4817 109.319Z" fill="#1C0311" stroke="#1A1A1A" stroke-width="0.121933" stroke-linecap="round" stroke-linejoin="round"/>
<path id="Vector_55" d="M35.2882 113.444C36.3562 113.444 37.222 112.578 37.222 111.51C37.222 110.442 36.3562 109.576 35.2882 109.576C34.2201 109.576 33.3543 110.442 33.3543 111.51C33.3543 112.578 34.2201 113.444 35.2882 113.444Z" fill="#1C0311" stroke="#1A1A1A" stroke-width="0.121933" stroke-linecap="round" stroke-linejoin="round"/>
<path id="Vector_56" d="M51.635 133.679C52.7031 133.679 53.5689 132.814 53.5689 131.746C53.5689 130.678 52.7031 129.812 51.635 129.812C50.567 129.812 49.7012 130.678 49.7012 131.746C49.7012 132.814 50.567 133.679 51.635 133.679Z" fill="#1C0311" stroke="#1A1A1A" stroke-width="0.121933" stroke-linecap="round" stroke-linejoin="round"/>
<path id="Vector_57" d="M114.276 90.5203C114.399 92.3083 115.195 93.9832 116.505 95.2065C117.815 96.4297 119.54 97.1101 121.332 97.1101C123.124 97.1101 124.85 96.4297 126.159 95.2065C127.469 93.9832 128.265 92.3083 128.388 90.5203H114.276Z" fill="#1C0311" stroke="#1A1A1A" stroke-width="0.121933" stroke-linecap="round" stroke-linejoin="round"/>
<path id="Vector_58" d="M128.407 90.007C128.407 88.576 127.973 87.1786 127.163 85.9993C126.352 84.82 125.203 83.9143 123.867 83.4019V74.3142H118.793V83.4019C117.457 83.9143 116.308 84.82 115.498 85.9993C114.687 87.1786 114.254 88.576 114.254 90.007C114.254 90.1801 114.262 90.3509 114.275 90.5203H128.386C128.398 90.3509 128.407 90.1801 128.407 90.007Z" fill="white" stroke="#1A1A1A" stroke-width="0.243866" stroke-linecap="round" stroke-linejoin="round"/>
<path id="Vector_59" d="M139.407 76.9758H117.338V78.3549H139.407V76.9758Z" fill="#1C0311" stroke="#1A1A1A" stroke-width="0.121933" stroke-linecap="round" stroke-linejoin="round"/>
<path id="Vector_60" d="M155.568 84.481H136.493V86.4819H155.568V84.481Z" fill="#1C0311" stroke="#1A1A1A" stroke-width="0.121933" stroke-linecap="round" stroke-linejoin="round"/>
<path id="Vector_61" d="M152.428 88.045V81.1277H151.068H149.71V88.045L146.389 94.7208H155.747L152.428 88.045Z" fill="white" stroke="#1A1A1A" stroke-width="0.243866" stroke-linecap="round" stroke-linejoin="round"/>
<path id="Vector_62" d="M146.389 94.7207L144.362 98.7981H151.067H157.774L155.746 94.7207H146.389Z" fill="#0C2321" stroke="black" stroke-width="0.243866" stroke-linecap="round" stroke-linejoin="round"/>
<path id="Vector_63" d="M147.873 74.1716C149.745 74.1716 151.263 72.6539 151.263 70.7818C151.263 68.9097 149.745 67.3921 147.873 67.3921C146.001 67.3921 144.483 68.9097 144.483 70.7818C144.483 72.6539 146.001 74.1716 147.873 74.1716Z" stroke="#1A1A1A" stroke-width="0.3658" stroke-linecap="round" stroke-linejoin="round"/>
<path id="Vector_64" d="M121.101 74.314V70.9864C121.1 70.5138 121.193 70.0457 121.374 69.6091C121.555 69.1724 121.821 68.7757 122.155 68.4417C122.49 68.1077 122.887 67.843 123.324 67.6626C123.76 67.4823 124.229 67.3898 124.701 67.3906H148.575L121.101 74.314Z" stroke="#1A1A1A" stroke-width="0.3658" stroke-linecap="round" stroke-linejoin="round"/>
</g>
</svg>
