<svg width="230" height="233" viewBox="0 0 230 233" fill="none" xmlns="http://www.w3.org/2000/svg">
<g id="Group 243">
<path id="Vector" d="M33.4754 122.702C31.5051 113.424 29.5279 104.101 29.0703 94.6296C28.8458 89.9861 29.1532 84.8833 32.2701 81.4348C35.2057 78.1815 39.882 77.2525 44.2215 76.6118C62.9628 73.8489 81.9372 73.1581 100.862 72.3465C161.141 69.7753 183.321 73.2376 190.639 76.4132C192.827 77.3612 199.869 79.9429 197.173 95.246C191.839 125.532 184.673 155.168 176.066 184.697C175.764 185.733 175.426 186.822 174.624 187.544C173.73 188.352 172.449 188.535 171.25 188.66C151.279 190.732 50.2361 192.473 48.5714 190.131C46.9344 187.826 46.6097 184.558 46.0381 181.87C44.0651 172.579 42.0918 163.287 40.1186 153.997L34.2007 126.117L33.4754 122.702Z" fill="white"/>
<path id="Vector_2" d="M35.5573 99.7444C35.4226 94.6796 34.7094 89.822 37.1114 87.3388C39.3805 84.9955 42.8601 84.4032 46.091 83.9525C86.9882 78.2997 128.331 76.5541 169.559 78.7392C173.563 78.9516 177.633 79.2158 181.389 80.6128C185.145 82.0098 188.611 84.7278 189.954 88.5044C191.179 91.946 190.519 95.7364 189.842 99.3247C184.724 126.485 179.412 153.607 173.907 180.692C173.708 181.669 173.482 182.702 172.795 183.426C172.057 184.201 170.942 184.462 169.89 184.66C155.651 187.323 82.2767 185.686 58.4343 185.458C51.8983 185.396 53.6873 184.577 51.7446 177.107C47.2117 159.666 35.7248 105.985 35.5573 99.7444Z" fill="#68A2FF"/>
<path id="Vector_3" d="M51.4767 120.573C51.9412 122.645 52.5249 124.833 54.079 126.281C55.3517 127.469 57.0526 128.38 58.7933 128.38C70.4735 128.38 77.6071 128.835 86.8974 128.38C93.0898 128.077 99.8849 128.38 106.084 128.38C116.522 128.38 116.617 120.781 117.028 117.687C118.09 109.806 119.154 101.927 120.218 94.0496C120.328 93.2224 120.434 92.3487 120.107 91.582C119.434 90.0088 117.391 89.6824 115.685 89.5788C101.96 88.7926 88.2022 88.7401 74.4712 89.4217C71.0382 89.5932 67.6087 89.809 64.1827 90.0692C60.9173 90.3196 57.5309 90.4043 54.3639 91.3039C50.3629 92.4385 48.4478 94.8353 48.4444 99.0022C48.4375 106.167 49.9122 113.609 51.4767 120.573Z" fill="#FACBDF"/>
<path id="Vector_4" d="M122.046 127.563C121.863 127.575 121.684 127.514 121.546 127.394C121.406 127.273 121.321 127.102 121.309 126.919C121.297 126.736 121.357 126.554 121.478 126.416C121.599 126.278 121.77 126.193 121.953 126.181C127.267 125.449 130.223 125.649 134.315 125.927C135.065 125.978 135.851 126.031 136.697 126.081C136.788 126.086 136.876 126.109 136.959 126.149C137.04 126.188 137.113 126.243 137.173 126.313C137.234 126.38 137.28 126.459 137.31 126.544C137.341 126.63 137.353 126.722 137.348 126.812C137.343 126.903 137.318 126.991 137.279 127.074C137.239 127.155 137.184 127.228 137.116 127.288C137.049 127.349 136.97 127.395 136.883 127.425C136.797 127.456 136.707 127.468 136.616 127.463C135.764 127.413 134.973 127.359 134.222 127.307C130.211 127.034 127.315 126.838 122.134 127.551C122.107 127.556 122.076 127.561 122.046 127.563Z" fill="black"/>
<path id="Vector_5" d="M150.903 136.473C150.865 136.473 150.827 136.47 150.789 136.463C135.212 133.89 119.908 134.848 105.692 136.269C105.601 136.278 105.51 136.269 105.422 136.242C105.335 136.216 105.254 136.173 105.184 136.116C105.113 136.057 105.055 135.986 105.012 135.905C104.969 135.826 104.942 135.737 104.933 135.646C104.924 135.556 104.933 135.465 104.959 135.377C104.986 135.29 105.029 135.209 105.087 135.138C105.145 135.067 105.216 135.009 105.296 134.966C105.377 134.922 105.465 134.896 105.556 134.888C119.865 133.458 135.277 132.493 151.016 135.093C151.199 135.107 151.37 135.195 151.489 135.335C151.608 135.475 151.665 135.656 151.651 135.839C151.636 136.022 151.549 136.193 151.409 136.312C151.269 136.432 151.086 136.489 150.903 136.475V136.473Z" fill="black"/>
<path id="Vector_6" d="M113.396 146.331C113.213 146.342 113.033 146.281 112.895 146.16C112.757 146.038 112.673 145.867 112.662 145.684C112.65 145.501 112.712 145.321 112.833 145.183C112.954 145.045 113.125 144.96 113.308 144.95C128.001 143.05 133.9 143.05 143.146 143.978C143.237 143.986 143.325 144.012 143.405 144.055C143.486 144.099 143.557 144.157 143.614 144.228C143.672 144.299 143.716 144.38 143.741 144.468C143.767 144.555 143.778 144.646 143.767 144.738C143.759 144.827 143.733 144.915 143.69 144.997C143.646 145.076 143.588 145.147 143.517 145.206C143.446 145.263 143.365 145.306 143.277 145.333C143.191 145.359 143.099 145.368 143.008 145.359C133.878 144.441 128.045 144.449 113.479 146.326C113.452 146.33 113.424 146.331 113.396 146.331Z" fill="black"/>
<path id="Vector_7" d="M107.703 98.8467C107.58 98.8467 107.459 98.8138 107.353 98.7514C107.247 98.6891 107.16 98.5996 107.1 98.4924C107.04 98.385 107.01 98.2636 107.013 98.1408C107.016 98.0179 107.051 97.898 107.116 97.7934C108.581 95.4152 110.521 93.3642 112.814 91.7685C112.889 91.7141 112.973 91.675 113.063 91.6538C113.152 91.6324 113.245 91.6293 113.336 91.6445C113.427 91.6597 113.514 91.693 113.592 91.7424C113.67 91.7918 113.737 91.8562 113.79 91.932C113.842 92.0076 113.879 92.0931 113.898 92.1834C113.917 92.2736 113.918 92.3666 113.9 92.4571C113.883 92.5476 113.847 92.6338 113.796 92.7103C113.745 92.7869 113.679 92.8524 113.602 92.903C111.464 94.3896 109.655 96.3007 108.288 98.5169C108.227 98.6172 108.141 98.7001 108.038 98.7578C107.936 98.8157 107.82 98.8462 107.703 98.8467Z" fill="black"/>
<path id="Vector_8" d="M112.225 98.5929C112.073 98.5925 111.925 98.5421 111.805 98.4496C109.8 96.9075 108.04 94.4416 106.89 92.7199C106.788 92.5676 106.751 92.3811 106.787 92.2014C106.823 92.0216 106.928 91.8634 107.08 91.7615C107.233 91.6597 107.419 91.6223 107.599 91.6579C107.779 91.6937 107.937 91.7992 108.039 91.9515C109.134 93.592 110.802 95.937 112.648 97.3547C112.762 97.4428 112.846 97.5645 112.888 97.7027C112.929 97.841 112.927 97.9888 112.88 98.1254C112.833 98.262 112.745 98.3806 112.627 98.4646C112.51 98.5483 112.369 98.5932 112.225 98.5929Z" fill="black"/>
<path id="Vector_9" d="M29.7438 186.225C28.4677 186.225 27.4316 185.379 26.5578 184.581C18.8078 177.501 11.2909 169.988 4.21435 162.238C3.47354 161.428 2.55142 160.418 2.12662 159.154C1.72944 157.971 1.81233 156.726 1.88486 155.629L2.30103 149.314C2.33556 148.817 2.33902 148.278 2.3442 147.706C2.35801 146.271 2.3701 144.786 2.81562 143.507C3.20934 142.381 4.09865 141.832 4.88782 141.348C5.03114 141.26 5.17447 141.176 5.3178 141.077C6.14841 140.537 6.98592 139.965 7.79408 139.413C8.53316 138.907 9.29814 138.376 10.0597 137.883C16.6104 133.576 23.3768 129.608 30.3327 125.993C32.2477 124.999 34.2042 124.016 36.1486 123.075C36.311 122.997 36.6667 122.849 37.3419 122.571C38.5058 122.089 40.2637 121.362 41.2428 120.865C41.4305 120.768 41.6377 120.718 41.8484 120.714C42.0591 120.713 42.2675 120.758 42.4574 120.849C42.6474 120.941 42.8139 121.074 42.9437 121.239C43.0736 121.405 43.1634 121.599 43.2062 121.806C45.7256 133.928 51.476 150.483 64.574 160.513C64.7973 160.684 64.9739 160.908 65.0883 161.165C65.2026 161.423 65.2509 161.704 65.2288 161.986C65.2067 162.265 65.1149 162.537 64.9615 162.773C64.8083 163.008 64.5985 163.203 64.3512 163.338C52.5674 169.762 41.3447 177.363 32.7502 184.75C32.044 185.357 31.0752 186.187 29.8492 186.234L29.7438 186.225ZM41.8575 122.101C40.8214 122.619 39.048 123.358 37.8686 123.845C37.3401 124.064 36.8825 124.253 36.7496 124.317C34.819 125.253 32.8728 126.228 30.9681 127.218C24.0543 130.811 17.3288 134.757 10.8178 139.038C10.0649 139.532 9.30678 140.051 8.57288 140.552C7.75781 141.108 6.91512 141.685 6.0707 142.236C5.91874 142.334 5.76332 142.431 5.60964 142.524C4.90682 142.958 4.35077 143.3 4.1211 143.961C3.74983 145.026 3.73775 146.394 3.72566 147.719C3.72566 148.311 3.7153 148.869 3.68076 149.406L3.26287 155.721C3.19553 156.738 3.12645 157.793 3.43556 158.713C3.76711 159.703 4.5459 160.554 5.23318 161.304C12.2804 169.021 19.7696 176.5 27.4886 183.557C28.2 184.207 28.9598 184.84 29.7456 184.84H29.7991C30.4898 184.814 31.1339 184.305 31.8506 183.69C40.5141 176.249 51.8214 168.589 63.6881 162.12C63.7337 162.096 63.7724 162.06 63.8004 162.017C63.8285 161.974 63.8451 161.924 63.8487 161.872C63.8539 161.822 63.846 161.77 63.8256 161.723C63.8054 161.678 63.7734 161.637 63.733 161.607C50.3052 151.324 44.4253 134.455 41.8575 122.101Z" fill="black"/>
<path id="Vector_10" d="M0.689589 160.702C0.561458 160.702 0.436086 160.666 0.327296 160.599C0.218505 160.531 0.130439 160.435 0.0731086 160.321C0.0159505 160.207 -0.0085687 160.077 0.0026557 159.951C0.0140528 159.823 0.0605019 159.701 0.137001 159.599C3.10715 155.596 5.52472 153.84 9.71746 151.377C7.17868 148.06 4.19955 145.104 0.862272 142.591C0.720499 142.479 0.627941 142.317 0.604802 142.137C0.581662 141.957 0.629322 141.778 0.73794 141.633C0.846557 141.488 1.00715 141.393 1.1857 141.365C1.36409 141.338 1.5461 141.382 1.69288 141.488C5.34305 144.235 8.57637 147.495 11.2923 151.17C11.35 151.248 11.3908 151.338 11.4117 151.433C11.4326 151.528 11.4331 151.626 11.4134 151.721C11.3937 151.816 11.354 151.906 11.2972 151.985C11.2404 152.063 11.1675 152.128 11.0834 152.179C6.54182 154.821 4.23823 156.399 1.24045 160.428C1.17604 160.512 1.0928 160.581 0.997133 160.63C0.901639 160.676 0.796307 160.702 0.689589 160.702Z" fill="black"/>
<path id="Vector_11" d="M22.9495 142.398C22.8027 142.398 22.6596 142.35 22.542 142.263C22.3944 142.154 22.2957 141.992 22.2678 141.811C22.24 141.629 22.2852 141.445 22.3935 141.298C23.8112 139.374 25.8183 137.967 28.1093 137.29C28.2851 137.238 28.4744 137.259 28.6351 137.347C28.7959 137.433 28.9152 137.582 28.9667 137.758C29.0181 137.934 28.9978 138.124 28.9099 138.285C28.822 138.445 28.6736 138.564 28.4978 138.616C26.497 139.207 24.7442 140.436 23.5073 142.116C23.4429 142.203 23.359 142.274 23.2621 142.324C23.1652 142.372 23.0581 142.398 22.9495 142.398Z" fill="black"/>
<path id="Vector_12" d="M17.8861 153.156C17.7476 153.156 17.6124 153.115 17.4977 153.037C17.383 152.959 17.2944 152.849 17.2433 152.721C17.192 152.591 17.1806 152.45 17.2107 152.315C17.2406 152.18 17.3105 152.058 17.4112 151.963C23.3839 146.295 30.3626 141.795 37.9881 138.692C38.1561 138.63 38.3411 138.637 38.5042 138.711C38.6674 138.784 38.7961 138.917 38.8631 139.082C38.9301 139.248 38.9304 139.433 38.8638 139.599C38.7973 139.764 38.669 139.897 38.5061 139.972C31.0381 143.009 24.2035 147.416 18.354 152.966C18.2276 153.085 18.0605 153.153 17.8861 153.156Z" fill="black"/>
<path id="Vector_13" d="M17.4587 162.673C17.3188 162.671 17.1824 162.628 17.0677 162.548C16.9531 162.467 16.8654 162.355 16.8163 162.224C16.7673 162.092 16.7592 161.949 16.793 161.814C16.827 161.678 16.9015 161.555 17.0063 161.464C24.5422 154.94 34.4853 148.64 43.5995 144.613C43.7671 144.539 43.9573 144.534 44.1281 144.601C44.299 144.667 44.4365 144.798 44.5104 144.966C44.5845 145.133 44.5888 145.323 44.5225 145.494C44.4563 145.665 44.3249 145.803 44.1572 145.877C35.1587 149.849 25.3451 156.066 17.9094 162.508C17.7837 162.616 17.6238 162.673 17.4587 162.673Z" fill="black"/>
<path id="Vector_14" d="M26.5687 167.477C26.4264 167.477 26.2874 167.432 26.171 167.351C26.0546 167.268 25.9664 167.152 25.9184 167.019C25.8704 166.885 25.865 166.74 25.9029 166.601C25.9408 166.465 26.0201 166.342 26.1301 166.253L27.8932 164.802C33.7748 159.967 38.4269 156.135 45.7642 152.621C45.9281 152.55 46.1125 152.547 46.2793 152.609C46.4459 152.671 46.582 152.797 46.6588 152.958C46.7359 153.118 46.7476 153.303 46.6918 153.472C46.6362 153.64 46.5172 153.781 46.3599 153.866C39.1694 157.308 34.5812 161.086 28.7722 165.869C28.1966 166.342 27.6078 166.826 27.0056 167.32C26.8825 167.42 26.7281 167.475 26.5687 167.477Z" fill="black"/>
<path id="Vector_15" d="M33.3119 174.46C33.1791 174.46 33.0492 174.42 32.9379 174.349C32.8263 174.277 32.7379 174.173 32.6833 174.052C32.6286 173.932 32.6101 173.799 32.6296 173.667C32.6493 173.536 32.7063 173.412 32.7938 173.313C34.6771 171.162 36.859 169.292 39.2729 167.76C39.3494 167.708 39.4354 167.674 39.5259 167.655C39.6162 167.637 39.7091 167.639 39.7992 167.658C39.8892 167.677 39.9745 167.713 40.0502 167.767C40.1258 167.819 40.1902 167.886 40.2396 167.964C40.289 168.041 40.3223 168.128 40.3377 168.217C40.353 168.309 40.3501 168.402 40.329 168.492C40.308 168.582 40.2693 168.666 40.2152 168.741C40.161 168.815 40.0925 168.877 40.0137 168.925C37.7119 170.388 35.6308 172.172 33.8334 174.223C33.7685 174.298 33.6883 174.356 33.5984 174.398C33.5084 174.439 33.4107 174.46 33.3119 174.46Z" fill="black"/>
<path id="Vector_16" d="M37.987 70.4663C37.7936 70.4663 37.6002 70.4663 37.4102 70.4473C34.7371 70.2746 30.6756 66.4255 28.4981 64.1513C19.2405 54.5017 14.1826 47.2663 10.836 42.4795L10.3491 41.7888C9.63415 40.7683 3.3623 31.6748 3.3623 26.9381C3.3623 26.1696 3.81992 24.9142 7.39446 22.0166C9.53055 20.2898 12.5231 18.1727 16.2859 15.743C23.4246 11.1341 31.059 6.8412 34.188 5.21798C34.9098 4.84499 35.7767 4.32348 36.6953 3.7709C39.9625 1.80576 44.0309 -0.639434 47.0114 0.153182C49.5499 0.826646 56.0445 9.89942 58.7193 13.7692C64.1001 21.5538 69.063 29.8616 71.6706 35.4531C74.411 41.3243 74.3869 45.9522 71.6015 48.4768C70.1216 49.8186 54.1605 62.1395 44.081 68.5512C42.121 69.7963 39.978 70.4663 37.987 70.4663ZM45.7698 1.38096C43.3523 1.38096 39.9625 3.41862 37.412 4.95378C36.476 5.51845 35.5902 6.05204 34.8217 6.44576C31.7134 8.05689 24.1274 12.317 17.0354 16.9017C5.33607 24.4532 4.74377 26.5858 4.74377 26.9363C4.74377 30.4366 8.97796 37.4165 11.4784 40.9893L11.9654 41.68C15.2878 46.434 20.3077 53.6176 29.4841 63.1877C32.1279 65.9506 35.6195 68.9363 37.4914 69.0589C39.3633 69.1815 41.4407 68.5961 43.3402 67.3856C53.3696 61.0084 69.2064 48.7825 70.6742 47.4528C73.7825 44.6433 71.845 39.0932 70.4186 36.0367C67.8405 30.5109 62.9224 22.2808 57.5831 14.555C51.6393 5.95361 47.8127 1.7954 46.6557 1.48802C46.3663 1.41463 46.0686 1.37854 45.7698 1.38096Z" fill="#68A2FF"/>
<path id="Vector_17" d="M34.708 57.9431C34.297 57.9421 33.892 57.845 33.5251 57.6599C30.5636 56.1904 31.5997 49.5784 33.007 43.3048L33.083 42.9594C34.6372 36.0158 36.4745 30.0721 38.7229 24.7914C42.1903 16.646 45.1536 12.5154 47.5297 12.5154C48.0771 12.5154 49.0838 12.7468 49.7314 14.2716C50.8797 17 49.3981 23.1751 48.0909 28.6233C47.9338 29.2795 47.7801 29.9149 47.6402 30.5228C47.4071 31.5157 41.8864 54.859 35.9616 57.6478C35.5707 57.8373 35.1426 57.938 34.708 57.9431ZM47.5297 13.9089C46.9011 13.9089 44.506 14.7361 39.9903 25.344C37.7748 30.547 35.9565 36.4113 34.4282 43.272L34.3522 43.6173C33.9551 45.3942 33.2885 48.3678 33.0709 51.098C32.8309 54.0768 33.2108 55.9728 34.1381 56.4322C34.3312 56.5282 34.5448 56.5762 34.7605 56.5717C34.9761 56.5672 35.1875 56.5104 35.3763 56.4062C39.329 54.5464 44.0743 39.7251 46.2985 30.2171C46.4401 29.6127 46.592 28.9755 46.7509 28.3176C47.8837 23.5999 49.4344 17.1364 48.4605 14.8242C48.2066 14.2215 47.8941 13.9158 47.5314 13.9141L47.5297 13.9089Z" fill="#68A2FF"/>
<path id="Vector_18" d="M51.176 55.9589C49.9983 55.9589 48.7274 55.2872 47.9296 54.8641C47.8225 54.8071 47.7275 54.757 47.6446 54.7156C43.0547 52.3913 38.7394 45.237 37.5271 43.0992C33.9215 36.7462 30.2606 29.8561 27.9156 22.5274C26.8795 19.3069 27.3613 16.5751 29.1572 15.3991C30.8029 14.3215 33.0615 14.8586 35.3565 16.8721C39.886 20.8438 49.0641 34.7482 52.5747 46.6323C54.0201 51.5227 54.0494 54.327 52.668 55.4581C52.2456 55.7964 51.717 55.9738 51.176 55.9589ZM29.2314 22.113C31.5385 29.3225 35.1596 36.1349 38.729 42.424C41.1293 46.6547 44.8973 51.7817 48.2715 53.4895L48.5771 53.6501C49.3283 54.0473 51.0845 54.9763 51.7942 54.3961C52.1897 54.0732 52.9287 52.7073 51.252 47.0295C47.8087 35.3699 38.8516 21.7832 34.4447 17.9116C32.6782 16.3575 30.9911 15.8532 29.9135 16.5543C28.6978 17.3504 28.4233 19.5815 29.2314 22.1061V22.113Z" fill="#68A2FF"/>
<path id="Vector_19" d="M41.6873 41.4728C35.9041 41.4728 30.0156 40.9133 22.4279 39.7736C20.5928 39.4795 18.7869 39.0241 17.0316 38.4128C14.3757 37.4562 13.0806 36.3925 13.0771 35.1595C13.0771 34.1856 13.8629 32.925 20.057 31.7887C23.5552 31.1754 27.0893 30.7894 30.6373 30.6335C34.6971 30.485 41.4783 30.5247 47.227 31.1291L48.0196 31.212C50.7238 31.4934 54.4261 31.8802 56.8972 32.3154C58.7945 32.6542 60.6631 33.1369 62.487 33.759C65.0772 34.676 66.286 35.6067 66.286 36.6946C66.286 37.7826 65.3207 39.1122 57.7883 40.188C51.7823 41.0324 46.7763 41.4728 41.6873 41.4728ZM34.9889 31.9424C33.376 31.9424 31.9082 31.97 30.6874 32.0149C27.2717 32.1655 23.8688 32.5318 20.4991 33.1115C14.8005 34.1338 14.4552 35.1474 14.4552 35.1578C14.4552 36.2457 18.9449 37.8551 22.63 38.4077C36.9161 40.5524 44.7576 40.6439 57.5914 38.8152C64.4884 37.8326 64.9011 36.6981 64.9028 36.686C64.9045 36.6739 64.7664 36.0298 62.0052 35.0559C60.258 34.4622 58.4685 34.0004 56.652 33.6744C54.2344 33.2479 50.5546 32.8645 47.8693 32.5848L47.0785 32.5019C43.1309 32.0875 38.6791 31.9424 34.9889 31.9424Z" fill="#68A2FF"/>
<path id="Vector_20" d="M37.957 35.189C37.6444 36.9158 38.5993 39.235 40.9427 38.8741C43.286 38.5131 44.8211 35.8193 43.1288 34.1581C41.4365 32.4969 38.3766 32.8543 37.957 35.189Z" fill="white"/>
<path id="Vector_21" d="M186.793 15.8395C176.701 15.1833 166.111 18.5248 159.248 25.9501C157.867 27.4352 156.637 29.1137 156.09 31.0598C155.555 32.9593 155.725 35.0315 156.354 36.9086C158.487 43.2979 165.161 46.8448 171.377 49.4523C182.814 54.2512 195.22 58.0865 207.48 56.2094C212.992 55.3667 218.779 52.9837 221.366 48.0449C223.243 44.4618 223.077 40.0307 221.525 36.3025C220.514 33.8676 212.409 23.0629 196.577 17.613C193.436 16.5251 190.107 16.0554 186.793 15.8395Z" fill="white"/>
<path id="Vector_22" d="M171.046 42.9178C170.948 42.9174 170.851 42.8962 170.763 42.8554C170.673 42.8145 170.594 42.7553 170.528 42.6812C169.525 41.5398 170.356 39.9183 170.627 39.3899C174.348 32.1322 178.724 25.23 183.702 18.7698C183.815 18.6245 183.98 18.5299 184.162 18.5064C184.343 18.4829 184.528 18.5327 184.673 18.6446C184.818 18.7566 184.913 18.9216 184.935 19.1034C184.959 19.2852 184.909 19.469 184.797 19.6142C179.871 26.0073 175.54 32.8378 171.856 40.0202C171.549 40.6194 171.25 41.4102 171.566 41.7712C171.654 41.871 171.711 41.9937 171.73 42.125C171.751 42.2564 171.732 42.3904 171.677 42.5115C171.623 42.6325 171.535 42.7351 171.423 42.8071C171.311 42.8793 171.181 42.9176 171.048 42.9178H171.046Z" fill="black"/>
<path id="Vector_23" d="M185.287 37.1573C185.234 37.1568 185.18 37.1506 185.128 37.1383C178.863 35.6272 172.704 33.7021 166.693 31.3759C166.608 31.3429 166.53 31.2935 166.465 31.2305C166.399 31.1675 166.345 31.092 166.309 31.0086C166.273 30.9252 166.254 30.8352 166.252 30.7442C166.25 30.653 166.266 30.5626 166.301 30.4779C166.333 30.3932 166.383 30.316 166.447 30.2505C166.511 30.1852 166.585 30.1331 166.67 30.0972C166.753 30.0611 166.843 30.0421 166.934 30.0411C167.026 30.04 167.116 30.0569 167.2 30.0911C173.149 32.3916 179.243 34.2955 185.442 35.7897C185.608 35.8273 185.755 35.9249 185.853 36.0636C185.952 36.2022 185.995 36.3723 185.976 36.5412C185.957 36.7101 185.876 36.866 185.748 36.9791C185.622 37.0921 185.458 37.1542 185.287 37.1539V37.1573Z" fill="black"/>
<path id="Vector_24" d="M179.268 45.6465C179.142 45.646 179.018 45.6108 178.911 45.5448C178.802 45.4789 178.716 45.3844 178.657 45.272C178.6 45.1598 178.574 45.0335 178.583 44.9075C178.591 44.7814 178.634 44.66 178.707 44.5569C181.365 40.8149 183.53 37.0245 185.614 33.3601C187.723 29.6665 189.904 25.8467 192.603 22.0494C192.655 21.9726 192.72 21.9068 192.798 21.856C192.876 21.8052 192.962 21.7703 193.052 21.7536C193.143 21.7368 193.237 21.7386 193.326 21.7586C193.418 21.7785 193.502 21.8163 193.578 21.8698C193.653 21.9233 193.717 21.9914 193.765 22.0699C193.813 22.1485 193.846 22.2361 193.86 22.3272C193.874 22.4186 193.87 22.5118 193.848 22.6015C193.825 22.6909 193.784 22.7752 193.729 22.8489C191.069 26.591 188.906 30.3796 186.821 34.0457C184.713 37.7394 182.532 41.5591 179.833 45.3564C179.769 45.4464 179.684 45.5196 179.586 45.5702C179.487 45.6207 179.379 45.6469 179.268 45.6465Z" fill="black"/>
<path id="Vector_25" d="M193.292 50.0895C193.258 50.0921 193.221 50.0921 193.185 50.0895C190.072 49.6036 187.074 48.545 184.345 46.9674C184.235 46.9035 184.143 46.8099 184.083 46.6969C184.021 46.5842 183.993 46.4566 184 46.3284C184.074 45.1197 185.192 44.3167 186.259 44.1526C187.039 44.0335 187.775 44.1768 188.486 44.315L188.913 44.3944C190.294 44.6379 191.365 44.5515 192.194 44.1319C193.023 43.7123 193.724 42.7401 193.503 41.8128C193.358 41.2049 192.824 40.6403 192.039 40.2586C191.253 39.877 190.471 39.8131 189.901 40.0859C189.59 40.241 189.353 40.5121 189.239 40.8406C189.2 40.9435 189.181 41.0535 189.184 41.164C189.188 41.2744 189.213 41.3828 189.26 41.483C189.305 41.5636 189.333 41.6524 189.343 41.7441C189.353 41.8357 189.345 41.9285 189.319 42.0167C189.291 42.105 189.248 42.1872 189.189 42.2581C189.131 42.3293 189.058 42.3878 188.975 42.4305C188.894 42.4731 188.804 42.499 188.713 42.5066C188.621 42.514 188.528 42.5032 188.442 42.4743C188.353 42.4457 188.272 42.3997 188.203 42.3391C188.134 42.2785 188.077 42.2048 188.036 42.1219C187.901 41.8566 187.823 41.5664 187.804 41.2694C187.787 40.9725 187.829 40.6748 187.93 40.3951C188.046 40.0563 188.227 39.7437 188.466 39.4755C188.702 39.2072 188.991 38.9885 189.312 38.8323C190.26 38.3885 191.47 38.4558 192.636 39.0188C193.802 39.5817 194.601 40.4814 194.843 41.4933C195.188 42.9439 194.316 44.6016 192.812 45.3666C191.702 45.9261 190.346 46.0573 188.668 45.7569C188.517 45.731 188.369 45.7016 188.219 45.6723C187.595 45.5514 187.01 45.4374 186.461 45.5203C186.093 45.5742 185.758 45.7617 185.518 46.047C187.972 47.3873 190.64 48.2906 193.403 48.7167C193.574 48.7441 193.729 48.8349 193.836 48.9714C193.945 49.1076 193.997 49.2794 193.983 49.4525C193.969 49.6255 193.891 49.7873 193.764 49.9052C193.636 50.0234 193.47 50.0891 193.296 50.0895H193.292Z" fill="black"/>
<path id="Vector_26" d="M170.281 135.446C159.096 150.673 169.058 173.483 187.048 177.563C211.547 184.408 240.188 162.782 225.453 135.582C222.362 129.884 214.574 122.88 202.737 122.054C193.935 121.44 179.367 122.85 170.281 135.446Z" fill="#FACBDF"/>
<path id="Vector_27" d="M202.21 52.7557C201.186 52.7569 200.177 52.5041 199.274 52.02C198.515 51.6128 197.869 51.0224 197.394 50.3023C196.921 49.5824 196.634 48.7555 196.56 47.8964C196.444 46.4734 196.812 44.9435 197.684 43.2184C199.134 40.3706 201.35 37.9847 204.084 36.33C206.543 34.8277 210.913 33.6224 212.875 36.463C214.548 38.8806 214.07 42.2116 211.452 46.3474C209.592 49.283 207.48 51.1601 204.78 52.2462C203.964 52.578 203.091 52.7508 202.21 52.7557ZM209.23 36.1194C207.71 36.1194 205.961 36.8015 204.804 37.5008C202.298 39.0315 200.262 41.2221 198.917 43.8331C198.162 45.3268 197.843 46.6168 197.936 47.7789C197.991 48.4068 198.2 49.0112 198.547 49.5374C198.894 50.0637 199.366 50.4949 199.922 50.7922C201.711 51.7403 203.408 51.3103 204.261 50.9649C206.707 49.9772 208.565 48.3246 210.285 45.6118C212.578 41.9854 213.067 39.1759 211.739 37.2522C211.172 36.4285 210.254 36.1194 209.23 36.1194Z" fill="black"/>
<path id="Vector_28" d="M194.753 126.373C157.517 129.827 166.739 181.592 203.349 173.73C235.71 168.611 228.012 123.282 194.753 126.373Z" fill="black"/>
<path id="Vector_29" d="M176.206 84.6659C175.096 84.8542 173.98 85.2116 173.124 85.9438C172.586 86.4049 172.174 86.9953 171.925 87.6594C171.678 88.3235 171.604 89.0397 171.708 89.7406C171.813 90.4415 172.094 91.1044 172.526 91.6669C172.958 92.2293 173.524 92.6731 174.173 92.9565C175.227 93.4158 176.434 93.4227 177.56 93.1896C178.375 93.0428 179.147 92.7185 179.82 92.2398C180.399 91.7924 180.855 91.2061 181.146 90.5353C181.438 89.8644 181.556 89.1308 181.487 88.4028C181.302 86.5741 179.881 84.8939 178.033 84.6038C177.425 84.5268 176.809 84.5478 176.206 84.6659Z" fill="black"/>
<path id="Vector_30" d="M176.149 94.0303C175.379 94.0393 174.616 93.8894 173.904 93.59C173.146 93.2607 172.483 92.7437 171.98 92.0876C171.476 91.4316 171.148 90.6583 171.025 89.8403C170.903 89.0223 170.991 88.1867 171.279 87.4121C171.569 86.6372 172.051 85.9489 172.68 85.4117C173.519 84.6951 174.636 84.2254 176.095 83.9767C176.771 83.8451 177.463 83.8247 178.145 83.9164C180.257 84.2463 181.955 86.1007 182.179 88.3268C182.258 89.1731 182.122 90.0256 181.784 90.8051C181.443 91.5848 180.913 92.2658 180.24 92.7854C179.485 93.3256 178.618 93.6924 177.705 93.8594C177.194 93.9697 176.672 94.0269 176.149 94.0303ZM176.322 85.3461C175.113 85.5516 174.217 85.9194 173.574 86.4685C173.125 86.8536 172.782 87.3464 172.574 87.9009C172.367 88.4554 172.305 89.0534 172.391 89.6388C172.479 90.224 172.714 90.7776 173.073 91.2473C173.434 91.717 173.908 92.0876 174.45 92.3244C175.486 92.7733 176.634 92.6697 177.422 92.5143C178.137 92.3864 178.813 92.104 179.406 91.6872C179.891 91.3126 180.274 90.8212 180.518 90.2589C180.761 89.6967 180.858 89.0817 180.799 88.4716C180.639 86.8881 179.404 85.5188 177.928 85.2891C177.394 85.2211 176.852 85.2402 176.322 85.3461Z" fill="black"/>
<path id="Vector_31" d="M160.855 92.5264C160.315 92.5329 159.778 92.4278 159.279 92.2173C158.745 91.9847 158.277 91.6198 157.923 91.1572C157.567 90.6946 157.336 90.1492 157.25 89.5726C157.163 88.996 157.226 88.4069 157.429 87.8605C157.633 87.3143 157.973 86.8289 158.415 86.4497C158.999 85.9489 159.771 85.6225 160.774 85.4516C161.244 85.3605 161.724 85.3471 162.197 85.4118C163.691 85.645 164.889 86.9522 165.048 88.5201C165.105 89.1171 165.008 89.7185 164.768 90.2684C164.53 90.8182 164.155 91.2986 163.68 91.6647C163.155 92.0404 162.555 92.2958 161.919 92.4124C161.57 92.4867 161.213 92.5248 160.855 92.5264ZM161.007 86.814C160.258 86.9418 159.705 87.1594 159.315 87.5048C159.051 87.7317 158.847 88.0225 158.724 88.3497C158.602 88.6769 158.566 89.0299 158.617 89.3753C158.669 89.7208 158.807 90.0473 159.02 90.3243C159.234 90.6013 159.514 90.8196 159.833 90.9584C160.455 91.2295 161.161 91.1674 161.645 91.0689C162.08 90.9921 162.492 90.8211 162.853 90.5682C163.138 90.3447 163.361 90.0541 163.506 89.7225C163.649 89.3908 163.708 89.0287 163.675 88.6686C163.58 87.7292 162.855 86.9211 161.986 86.7847C161.66 86.7449 161.33 86.7577 161.007 86.8227V86.814Z" fill="black"/>
<path id="Vector_32" d="M206.374 136.473C206.253 136.471 206.134 136.437 206.029 136.375C205.872 136.28 205.759 136.128 205.715 135.95C205.67 135.774 205.697 135.586 205.791 135.428C206.284 134.631 206.849 133.879 207.478 133.183C208.552 131.975 208.631 131.975 208.964 132.014C209.096 132.028 209.22 132.08 209.324 132.163C209.426 132.244 209.503 132.355 209.545 132.481C209.59 132.608 209.595 132.748 209.56 132.88C209.524 133.013 209.45 133.13 209.346 133.22C209.306 133.263 209.261 133.306 209.218 133.346C208.369 134.19 207.616 135.126 206.973 136.138C206.911 136.24 206.823 136.326 206.72 136.385C206.614 136.444 206.495 136.473 206.374 136.473Z" fill="#68A2FF"/>
<path id="Vector_33" d="M187.859 169.855C187.812 169.855 187.765 169.849 187.719 169.839C187.541 169.801 187.384 169.696 187.282 169.542C187.182 169.39 187.145 169.204 187.182 169.026C187.38 168.062 189.411 165.315 190.202 164.791C190.278 164.738 190.363 164.7 190.454 164.679C190.544 164.66 190.637 164.658 190.729 164.676C190.82 164.693 190.906 164.728 190.982 164.779C191.06 164.831 191.126 164.897 191.178 164.974C191.228 165.05 191.264 165.139 191.279 165.228C191.297 165.32 191.295 165.413 191.276 165.503C191.255 165.594 191.217 165.679 191.164 165.755C191.11 165.831 191.043 165.895 190.963 165.943C190.423 166.301 188.653 168.751 188.536 169.304C188.504 169.459 188.418 169.599 188.296 169.699C188.173 169.799 188.017 169.855 187.859 169.855Z" fill="#68A2FF"/>
<path id="Vector_34" d="M217.75 159.409C217.708 159.407 217.665 159.404 217.622 159.397C216.358 159.158 215.172 158.615 214.168 157.81C214.037 157.691 213.956 157.527 213.942 157.35C213.927 157.174 213.98 157 214.091 156.862C214.201 156.724 214.36 156.634 214.536 156.61C214.711 156.585 214.888 156.63 215.032 156.734C215.855 157.394 216.828 157.843 217.864 158.038C218.035 158.067 218.188 158.16 218.294 158.298C218.399 158.435 218.449 158.608 218.434 158.78C218.418 158.953 218.337 159.114 218.207 159.231C218.08 159.347 217.912 159.411 217.738 159.409H217.75Z" fill="#68A2FF"/>
<path id="Vector_35" d="M181.61 144.831C181.489 144.831 181.37 144.8 181.264 144.741L178.09 142.949C177.93 142.859 177.812 142.709 177.762 142.531C177.714 142.355 177.736 142.165 177.826 142.004C177.916 141.844 178.066 141.726 178.242 141.676C178.42 141.626 178.608 141.65 178.769 141.74L181.945 143.531C182.079 143.605 182.185 143.722 182.243 143.864C182.304 144.006 182.314 144.163 182.275 144.311C182.235 144.46 182.147 144.591 182.026 144.682C181.903 144.776 181.753 144.826 181.599 144.824L181.61 144.831Z" fill="#68A2FF"/>
<path id="Vector_36" d="M196.648 151.699C196.498 151.699 196.351 151.649 196.23 151.557C196.152 151.497 196.087 151.421 196.04 151.333C195.994 151.246 195.966 151.15 195.959 151.051L195.061 136.981C195.049 136.798 195.111 136.617 195.232 136.478C195.355 136.342 195.526 136.257 195.709 136.245C195.892 136.233 196.071 136.295 196.209 136.416C196.348 136.539 196.43 136.71 196.443 136.893L197.29 150.167C200.767 149.43 204.27 148.628 207.715 147.786C207.805 147.762 207.897 147.756 207.988 147.77C208.078 147.782 208.166 147.813 208.244 147.86C208.323 147.907 208.392 147.969 208.446 148.043C208.501 148.117 208.541 148.2 208.561 148.29C208.584 148.378 208.587 148.471 208.574 148.561C208.558 148.653 208.527 148.739 208.479 148.817C208.43 148.894 208.366 148.962 208.292 149.015C208.218 149.069 208.133 149.107 208.043 149.128C204.326 150.038 200.54 150.898 196.793 151.683C196.746 151.694 196.696 151.699 196.648 151.699Z" fill="#68A2FF"/>
<path id="Vector_37" d="M50.7687 188.06C48.5825 188.119 46.4891 188.955 44.8647 190.419C34.7869 199.534 20.3609 217.962 22.9339 223.229C24.3983 226.232 27.5066 227.993 30.7046 228.967C36.2823 230.668 42.1173 231.347 47.9315 231.813C62.3022 232.967 76.7454 232.868 91.1593 232.561C119.306 231.96 149.379 232.765 176.584 231.525C182.211 231.268 198.342 230.107 195.751 221.069C193.03 211.592 185.42 197.686 178.483 190.677C177.528 189.713 176.532 188.748 175.299 188.181C173.895 187.534 172.306 187.46 170.762 187.392C136.219 185.873 66.5813 187.629 50.7687 188.06Z" fill="white"/>
<path id="Vector_38" d="M149.593 213.901C147.662 213.901 145.421 213.868 142.796 213.83C137.804 213.758 131.592 213.658 123.588 213.742C111.558 213.854 99.9315 213.81 88.6864 213.765C79.5066 213.728 70.0157 213.69 60.4163 213.742H60.3558C57.8053 213.742 55.0476 212.9 54.8921 210.532C54.7678 208.633 56.4463 206.702 57.6689 205.295C57.8727 205.06 58.0643 204.839 58.2318 204.637C58.6256 204.16 58.9865 203.632 59.337 203.12C60.3731 201.613 61.4317 200.055 63.4659 199.574C66.5068 198.853 69.819 199.13 73.0239 199.401C74.0842 199.489 75.0842 199.574 76.0684 199.62C101.22 200.839 151.368 199.192 153.49 199.121C157.339 198.988 159.672 202.932 160.27 206.892C160.688 209.655 160.209 212.687 158.198 213.235C156.262 213.759 153.602 213.901 149.593 213.901ZM129.593 212.335C134.813 212.335 139.144 212.399 142.815 212.452C150.772 212.568 155.155 212.625 157.838 211.901C158.804 211.639 159.273 209.529 158.906 207.099C158.417 203.851 156.533 200.406 153.539 200.499C151.415 200.572 101.216 202.226 76.0046 200.998C74.9961 200.95 73.9322 200.862 72.9134 200.777C69.8171 200.518 66.6139 200.259 63.7888 200.922C62.2744 201.28 61.442 202.495 60.4802 203.903C60.1141 204.44 59.7342 204.994 59.299 205.521C59.1263 205.731 58.926 205.959 58.7136 206.211C57.6482 207.438 56.1873 209.119 56.2736 210.451C56.3669 211.87 58.5185 212.371 60.3593 212.371H60.4128C70.0175 212.319 79.5135 212.357 88.6949 212.394C99.935 212.438 111.556 212.483 123.576 212.371C125.704 212.347 127.71 212.335 129.593 212.335Z" fill="black"/>
<path id="Vector_39" d="M29.7508 224.041C28.2985 224.041 27.0293 223.414 26.2695 222.314C25.896 221.765 25.6623 221.134 25.5891 220.475C25.5161 219.817 25.6055 219.15 25.8499 218.534C25.8789 218.446 25.9255 218.365 25.9866 218.294C26.0478 218.225 26.1224 218.168 26.2059 218.128C26.2893 218.087 26.3802 218.064 26.4729 218.061C26.5655 218.055 26.658 218.069 26.745 218.102C26.8319 218.135 26.9117 218.183 26.9792 218.247C27.0467 218.311 27.1006 218.387 27.1381 218.472C27.1754 218.556 27.1952 218.648 27.1964 218.741C27.1975 218.834 27.18 218.926 27.145 219.012C26.9796 219.42 26.9165 219.862 26.9614 220.3C27.0061 220.737 27.1576 221.159 27.4023 221.525C27.9013 222.241 28.7578 222.652 29.7508 222.652C29.934 222.652 30.1096 222.725 30.2391 222.854C30.3686 222.984 30.4415 223.16 30.4415 223.343C30.4415 223.526 30.3686 223.7 30.2391 223.832C30.1096 223.961 29.934 224.034 29.7508 224.034V224.041Z" fill="black"/>
<path id="Vector_40" d="M70.3139 229.394C61.198 229.394 42.2736 228.135 36.0398 226.217C35.9531 226.189 35.8724 226.146 35.8025 226.089C35.7326 226.03 35.6747 225.959 35.6322 225.878C35.5898 225.799 35.5633 225.711 35.5549 225.621C35.5462 225.531 35.5556 225.44 35.5822 225.353C35.6088 225.265 35.6523 225.186 35.7101 225.115C35.768 225.046 35.8389 224.987 35.9191 224.946C35.9994 224.903 36.0871 224.877 36.1774 224.868C36.2677 224.859 36.3589 224.868 36.4456 224.896C42.9091 226.885 64.3615 228.192 72.1599 227.992C72.3431 227.987 72.5208 228.054 72.6536 228.18C72.7866 228.306 72.8639 228.481 72.8688 228.664C72.8736 228.847 72.8054 229.024 72.6793 229.157C72.5531 229.29 72.3794 229.368 72.1962 229.373C71.6298 229.387 70.9995 229.394 70.3139 229.394Z" fill="black"/>
<path id="Vector_41" d="M84.3849 229.392H80.1438C79.9606 229.392 79.785 229.318 79.6555 229.188C79.526 229.059 79.4531 228.885 79.4531 228.701C79.4531 228.518 79.526 228.342 79.6555 228.213C79.785 228.083 79.9606 228.011 80.1438 228.011H84.3849C84.5681 228.011 84.7439 228.083 84.8735 228.213C85.003 228.342 85.0757 228.518 85.0757 228.701C85.0757 228.885 85.003 229.059 84.8735 229.188C84.7439 229.318 84.5681 229.392 84.3849 229.392Z" fill="black"/>
<path id="Vector_42" d="M179.826 53.1513C179.757 53.1511 179.688 53.1406 179.62 53.1202C173.475 51.1965 168.607 49.3557 163.331 46.1283C161.364 44.9195 158.614 42.2964 157.089 40.4505C155.564 38.6045 154.773 35.6982 155.089 33.1805C155.348 31.1083 156.6 28.3937 157.655 26.7498C157.703 26.6709 157.767 26.6023 157.842 26.5483C157.916 26.494 158 26.4555 158.09 26.4346C158.18 26.4137 158.273 26.4112 158.365 26.4269C158.455 26.4426 158.543 26.4764 158.62 26.5262C158.698 26.5761 158.764 26.641 158.816 26.717C158.869 26.7931 158.905 26.879 158.923 26.9693C158.942 27.0596 158.942 27.1528 158.924 27.2433C158.905 27.3336 158.869 27.4196 158.817 27.4958C157.814 29.0603 156.681 31.5763 156.458 33.3532C156.187 35.5169 156.869 38.0156 158.154 39.5698C159.606 41.3277 162.209 43.8195 164.051 44.9471C169.206 48.1005 173.988 49.9066 180.033 51.7992C180.192 51.8484 180.327 51.9525 180.415 52.0928C180.503 52.2332 180.537 52.4001 180.511 52.5637C180.487 52.7272 180.403 52.8764 180.278 52.9838C180.152 53.0914 179.992 53.1503 179.826 53.1496V53.1513Z" fill="black"/>
<path id="Vector_43" d="M190.872 56.3822C190.825 56.3828 190.78 56.3781 190.733 56.3684C188.411 55.8987 186.674 55.4964 185.42 55.1389C185.244 55.088 185.095 54.969 185.007 54.8084C184.919 54.6478 184.899 54.4585 184.949 54.2824C185 54.1064 185.12 53.9578 185.28 53.8693C185.441 53.7809 185.629 53.76 185.805 53.811C187.014 54.1563 188.725 54.5518 191.013 55.0198C191.181 55.054 191.331 55.1489 191.433 55.2867C191.533 55.4245 191.581 55.595 191.564 55.7652C191.547 55.9357 191.467 56.0935 191.34 56.2085C191.214 56.3235 191.048 56.3872 190.877 56.3874L190.872 56.3822Z" fill="black"/>
<path id="Vector_44" d="M208.578 56.7123C208.409 56.7118 208.246 56.6493 208.12 56.5367C207.994 56.4243 207.915 56.2694 207.894 56.1015C207.875 55.9337 207.918 55.7645 208.015 55.626C208.112 55.4873 208.255 55.389 208.419 55.3498C212.158 54.4657 215.154 53.2397 217.316 51.701C218.483 50.8739 220.118 48.9813 220.749 47.7293C222.429 44.3983 221.887 41.4419 221.187 38.698C220.54 36.1561 218.972 33.6246 216.654 31.3797C216.523 31.2521 216.447 31.0775 216.445 30.8941C216.442 30.7109 216.511 30.5339 216.639 30.4023C216.766 30.2706 216.941 30.1949 217.124 30.192C217.309 30.189 217.485 30.2592 217.616 30.3868C220.117 32.8043 221.816 35.5673 222.527 38.3578C223.258 41.2226 223.878 44.5951 221.982 48.351C221.26 49.7843 219.452 51.8737 218.115 52.8235C215.805 54.464 212.65 55.7591 208.737 56.6881C208.685 56.7028 208.631 56.7109 208.578 56.7123Z" fill="black"/>
<path id="Vector_45" d="M163.813 22.6517C163.663 22.6519 163.516 22.6023 163.395 22.5109C163.274 22.4194 163.188 22.2911 163.148 22.1455C163.106 22 163.115 21.8451 163.172 21.7049C163.227 21.5645 163.327 21.4464 163.457 21.3686C163.545 21.3168 165.588 20.096 166.356 19.7023C172.241 16.6896 178.757 15.1154 185.367 15.1089H185.51C185.693 15.1089 185.87 15.1818 185.999 15.3113C186.129 15.4408 186.201 15.6164 186.201 15.7996C186.201 15.9828 186.129 16.1585 185.999 16.2881C185.87 16.4177 185.693 16.4904 185.51 16.4904H185.37C178.976 16.4947 172.675 18.0169 166.983 20.9318C166.253 21.3048 164.182 22.5429 164.162 22.555C164.056 22.6177 163.935 22.651 163.813 22.6517Z" fill="black"/>
<path id="Vector_46" d="M197.259 18.7558C197.189 18.7556 197.12 18.7451 197.055 18.7247C195.107 18.1221 191.702 17.1706 191.171 17.1326C191.082 17.1264 190.992 17.1024 190.911 17.062C190.83 17.0214 190.757 16.9653 190.697 16.8967C190.638 16.8282 190.591 16.7485 190.564 16.6624C190.534 16.5762 190.522 16.4852 190.529 16.3944C190.534 16.3037 190.558 16.2151 190.6 16.1338C190.64 16.0523 190.697 15.9796 190.764 15.92C190.833 15.8603 190.912 15.8145 190.999 15.7857C191.085 15.7567 191.177 15.7449 191.266 15.7511C192.109 15.8081 196.342 17.0532 197.464 17.4003C197.623 17.4483 197.761 17.552 197.849 17.6926C197.937 17.8332 197.973 18.0012 197.948 18.1656C197.923 18.33 197.841 18.4799 197.713 18.5876C197.587 18.6954 197.426 18.7539 197.259 18.7524V18.7558Z" fill="black"/>
<path id="Vector_47" d="M136.05 168.402C124.135 168.402 112.184 168.211 100.343 167.827C98.6854 167.774 96.8204 167.606 95.6582 166.273C94.6791 165.149 94.5824 163.593 94.5116 162.457L92.8038 135C92.6104 131.882 92.3755 128.526 91.9662 125.126C91.9455 124.954 91.9231 124.781 91.9006 124.593C91.6571 122.672 91.3532 120.276 92.4981 118.471C93.9072 116.238 96.8152 116.156 99.1568 116.091C99.5764 116.08 99.9718 116.068 100.333 116.046C104.304 115.792 108.335 115.609 112.317 115.5C120.351 115.281 128.497 115.357 136.528 115.726C144.482 116.091 152.526 116.763 160.438 117.697C161.357 117.806 163.066 118.01 163.892 119.307C164.443 120.17 164.392 121.206 164.356 121.968C163.7 135.636 162.472 149.447 160.709 163.018C160.509 164.562 160.212 166.156 158.998 167.18C157.888 168.117 156.453 168.216 154.955 168.243C148.68 168.347 142.377 168.401 136.05 168.402ZM95.8913 162.371C95.9673 163.579 96.0796 164.652 96.6995 165.365C97.4973 166.28 98.9582 166.401 100.388 166.448C118.481 167.031 136.824 167.169 154.933 166.859C156.169 166.838 157.35 166.765 158.107 166.119C158.943 165.415 159.167 164.165 159.34 162.838C161.098 149.305 162.32 135.529 162.976 121.897C163.013 121.156 163.018 120.503 162.726 120.046C162.289 119.355 161.232 119.182 160.276 119.065C152.396 118.127 144.389 117.468 136.466 117.103C128.474 116.736 120.358 116.668 112.355 116.879C108.383 116.988 104.375 117.169 100.421 117.421C100.034 117.447 99.6265 117.457 99.1948 117.469C97.0794 117.528 94.6826 117.596 93.6689 119.205C92.7899 120.597 93.0472 122.626 93.2752 124.416C93.2976 124.601 93.3201 124.781 93.3425 124.957C93.7535 128.393 93.9918 131.771 94.187 134.91L95.8948 162.367L95.8913 162.371Z" fill="black"/>
<path id="Vector_48" d="M95.6508 190.103H95.6387L48.9003 189.326C48.8095 189.324 48.72 189.305 48.6368 189.269C48.5536 189.233 48.4784 189.179 48.4154 189.116C48.2882 188.983 48.2184 188.806 48.2217 188.623C48.2248 188.44 48.3006 188.266 48.4325 188.138C48.5643 188.01 48.7413 187.941 48.9245 187.945L95.6612 188.722C95.8442 188.724 96.0195 188.796 96.148 188.927C96.2766 189.058 96.3481 189.235 96.3467 189.418C96.3453 189.601 96.2713 189.775 96.1407 189.905C96.0102 190.032 95.8339 190.105 95.6508 190.103Z" fill="black"/>
<path id="Vector_49" d="M127.651 190.699L106.93 190.452C106.747 190.452 106.571 190.378 106.442 190.248C106.312 190.119 106.239 189.944 106.239 189.761C106.239 189.578 106.312 189.402 106.442 189.273C106.571 189.143 106.747 189.071 106.93 189.071L127.651 189.317C127.835 189.317 128.011 189.39 128.14 189.52C128.27 189.649 128.342 189.825 128.342 190.008C128.342 190.191 128.27 190.366 128.14 190.495C128.011 190.626 127.835 190.699 127.651 190.699Z" fill="black"/>
<path id="Vector_50" d="M138.011 190.998H135.939C135.756 190.998 135.58 190.925 135.45 190.796C135.321 190.665 135.248 190.49 135.248 190.307C135.248 190.124 135.321 189.948 135.45 189.818C135.58 189.689 135.756 189.616 135.939 189.616H138.011C138.194 189.616 138.37 189.689 138.5 189.818C138.629 189.948 138.702 190.124 138.702 190.307C138.702 190.49 138.629 190.665 138.5 190.796C138.37 190.925 138.194 190.998 138.011 190.998Z" fill="black"/>
<path id="Vector_51" d="M184.052 228.553C183.803 228.553 183.551 228.544 183.297 228.525C183.207 228.518 183.118 228.494 183.036 228.454C182.955 228.413 182.883 228.358 182.824 228.289C182.703 228.15 182.643 227.969 182.655 227.786C182.669 227.603 182.753 227.432 182.891 227.311C183.03 227.19 183.211 227.13 183.394 227.144C185.418 227.285 187.245 226.779 188.543 225.719C189.961 224.56 190.645 222.664 190.206 221.105C190.182 221.017 190.173 220.925 190.184 220.836C190.194 220.744 190.224 220.658 190.267 220.578C190.312 220.499 190.372 220.428 190.443 220.373C190.514 220.316 190.597 220.274 190.683 220.25C190.771 220.224 190.862 220.217 190.952 220.228C191.044 220.24 191.13 220.267 191.21 220.312C191.289 220.357 191.358 220.418 191.415 220.489C191.47 220.561 191.512 220.642 191.536 220.73C192.128 222.835 191.277 225.27 189.417 226.79C188.013 227.938 186.129 228.553 184.052 228.553Z" fill="black"/>
<path id="Vector_52" d="M217.383 135.327C217.289 135.327 217.195 135.306 217.109 135.27C217.023 135.232 216.945 135.176 216.879 135.107C211.871 129.768 204.292 126.725 196.014 126.725H195.634C191.636 126.77 188.554 127.556 186.206 129.127C186.054 129.229 185.867 129.265 185.688 129.231C185.508 129.195 185.349 129.089 185.247 128.937C185.145 128.785 185.109 128.599 185.144 128.418C185.18 128.238 185.285 128.081 185.437 127.979C188.014 126.252 191.345 125.389 195.625 125.344H196.021C204.681 125.344 212.635 128.545 217.895 134.163C217.988 134.261 218.048 134.384 218.073 134.517C218.095 134.65 218.079 134.786 218.026 134.91C217.972 135.033 217.883 135.138 217.77 135.213C217.658 135.287 217.525 135.327 217.39 135.327H217.383Z" fill="#68A2FF"/>
<path id="Vector_53" d="M222.66 144.442C222.491 144.442 222.327 144.382 222.199 144.269C222.073 144.159 221.99 144.004 221.969 143.836C221.764 142.239 221.114 140.731 220.095 139.484C219.98 139.343 219.926 139.162 219.943 138.978C219.962 138.797 220.052 138.63 220.192 138.514C220.334 138.398 220.515 138.343 220.696 138.36C220.879 138.378 221.047 138.466 221.163 138.607C222.347 140.056 223.102 141.809 223.34 143.665C223.352 143.755 223.345 143.846 223.321 143.933C223.297 144.021 223.256 144.102 223.2 144.175C223.143 144.245 223.074 144.306 222.995 144.351C222.917 144.396 222.829 144.423 222.739 144.435C222.713 144.439 222.687 144.442 222.66 144.442Z" fill="#68A2FF"/>
<path id="Vector_54" d="M196.566 175.299C195.96 175.299 195.371 175.275 194.8 175.23C193.405 175.116 185.61 174.021 182.267 171.566C182.194 171.512 182.132 171.445 182.085 171.367C182.039 171.289 182.008 171.203 181.994 171.113C181.98 171.023 181.983 170.932 182.006 170.844C182.027 170.756 182.066 170.673 182.12 170.599C182.173 170.526 182.241 170.464 182.318 170.417C182.396 170.371 182.482 170.34 182.572 170.326C182.662 170.312 182.754 170.315 182.842 170.338C182.93 170.359 183.013 170.398 183.085 170.452C185.922 172.538 193.127 173.709 194.912 173.854C200.041 174.27 206.891 172.617 210.737 170.851C210.904 170.775 211.094 170.766 211.265 170.83C211.438 170.894 211.578 171.023 211.654 171.189C211.73 171.357 211.737 171.547 211.673 171.718C211.611 171.89 211.481 172.03 211.314 172.106C207.736 173.75 201.647 175.299 196.566 175.299Z" fill="#68A2FF"/>
</g>
</svg>
