<svg width="41" height="36" viewBox="0 0 41 36" fill="none" xmlns="http://www.w3.org/2000/svg">
<path id="Vector" d="M40.1216 17.8329C40.1216 17.2418 39.8868 16.6749 39.4688 16.2569C39.0508 15.839 38.4839 15.6042 37.8928 15.6042H7.61296L19.412 3.80957C19.8305 3.39107 20.0656 2.82346 20.0656 2.23161C20.0656 1.63976 19.8305 1.07215 19.412 0.653654C18.9935 0.235151 18.4259 4.40875e-05 17.834 4.40875e-05C17.2422 4.40875e-05 16.6746 0.235151 16.2561 0.653654L0.654781 16.2549C0.447225 16.462 0.282552 16.7079 0.170194 16.9787C0.0578356 17.2495 0 17.5397 0 17.8329C0 18.1261 0.0578356 18.4163 0.170194 18.6871C0.282552 18.9579 0.447225 19.2038 0.654781 19.4109L16.2561 35.0122C16.4633 35.2194 16.7093 35.3838 16.98 35.4959C17.2508 35.6081 17.541 35.6658 17.834 35.6658C18.4259 35.6658 18.9935 35.4307 19.412 35.0122C19.8305 34.5937 20.0656 34.026 20.0656 33.4342C20.0656 32.8424 19.8305 32.2747 19.412 31.8562L7.61296 20.0617H37.8928C38.4839 20.0617 39.0508 19.8268 39.4688 19.4089C39.8868 18.9909 40.1216 18.424 40.1216 17.8329Z" fill="black"/>
</svg>
