<svg width="288" height="288" viewBox="0 0 288 288" fill="none" xmlns="http://www.w3.org/2000/svg">
<path d="M68.6211 227.625C68.2976 227.63 67.9753 227.582 67.6679 227.481C66.8384 227.193 66.2667 226.541 66.0551 225.631C65.7584 224.345 66.2307 222.768 67.2071 221.796C67.9343 221.076 68.8098 220.552 69.6551 220.051C70.4773 219.564 71.2535 219.103 71.877 218.483C75.2754 215.096 72.5869 209.451 69.7991 204.427C68.9351 202.863 68.1287 201.229 67.4087 199.567C64.5791 193.029 62.8669 185.55 62.3197 177.336C61.8575 170.395 62.1599 163.008 63.273 154.089C63.4026 153.053 63.561 152.005 63.705 150.991C64.0592 148.607 64.425 146.14 64.4639 143.708C64.5085 140.736 64.1759 137.773 63.8346 135.267C63.7367 134.533 63.6071 133.762 63.4688 132.946C62.864 129.375 62.1728 125.327 63.7986 122.094C66.1919 117.308 72.7712 117.515 77.5751 117.666C78.3124 117.689 79.0079 117.712 79.6386 117.714L213.953 118.223C214.844 118.223 216.067 118.223 217.013 118.892C218.079 119.633 218.434 120.883 218.708 122.098C225.181 151.082 224.553 181.201 216.875 209.89V209.905C216.552 211.104 216.22 212.353 216.452 213.49C216.705 214.742 217.579 215.768 218.505 216.857C218.853 217.267 219.215 217.692 219.542 218.131C220.943 220.015 221.489 222.712 219.82 224.221C219.749 224.283 219.666 224.329 219.573 224.352C217.091 224.971 215.122 223.344 213.217 221.76C212.395 221.078 211.544 220.372 210.68 219.878C207.08 217.83 202.423 219.178 198.309 220.366L198.165 220.408C184.864 224.251 171.148 225.58 157.318 225.58C141.572 225.58 125.677 223.86 110.06 222.169C103.275 221.433 96.2591 220.674 89.4047 220.074C87.6277 219.92 85.4159 219.725 83.5539 220.437C82.3933 220.879 81.4011 221.641 80.3514 222.453C80.0706 222.667 79.7754 222.885 79.4874 223.104C76.6431 225.18 73.407 226.66 69.9747 227.452C69.5314 227.56 69.0773 227.618 68.6211 227.625ZM74.8132 118.761C70.8402 118.761 66.5058 119.275 64.8383 122.607C63.3896 125.505 64.0405 129.355 64.6136 132.752C64.7576 133.578 64.8858 134.36 64.9866 135.113C65.3293 137.661 65.672 140.677 65.626 143.724C65.5871 146.232 65.2141 148.738 64.8541 151.16C64.7101 152.168 64.5503 153.209 64.4221 154.23C63.3176 163.074 63.0167 170.392 63.4746 177.258C64.0132 185.34 65.6951 192.691 68.4714 199.107C69.177 200.735 69.9632 202.336 70.8128 203.859C73.1255 208.035 76.9947 215.005 72.6963 219.289C71.9763 220.009 71.0951 220.532 70.2483 221.033C69.4261 221.52 68.65 221.98 68.025 222.603C67.3396 223.286 66.9781 224.475 67.184 225.363C67.305 225.886 67.5944 226.227 68.048 226.382C68.5535 226.555 69.1799 226.436 69.7271 226.311C73.0065 225.553 76.0985 224.14 78.8164 222.156C79.0972 221.95 79.3823 221.724 79.6587 221.52C80.7287 220.699 81.8346 219.852 83.1522 219.348C85.2618 218.543 87.6162 218.749 89.5141 218.916C96.38 219.518 103.401 220.278 110.193 221.013C139.413 224.181 169.627 227.448 197.854 219.285L197.998 219.243C202.331 217.99 207.243 216.57 211.259 218.86C212.211 219.403 213.102 220.142 213.962 220.856C215.678 222.281 217.303 223.628 219.157 223.253C220.165 222.188 219.657 220.192 218.626 218.804C218.321 218.395 217.972 217.986 217.635 217.588C216.656 216.436 215.642 215.247 215.331 213.7C215.043 212.289 215.415 210.915 215.772 209.586V209.572C223.401 181.064 224.026 151.134 217.593 122.333C217.37 121.338 217.092 120.317 216.365 119.817C215.762 119.397 214.925 119.36 213.959 119.357L79.6386 118.856C78.992 118.856 78.2879 118.831 77.5434 118.808C76.6794 118.785 75.7535 118.756 74.8074 118.756L74.8132 118.761Z" fill="#A1CEE1"/>
<path d="M89.0986 51.1207C84.9226 52.3331 80.7063 53.9906 77.6506 57.0895C74.5949 60.1883 72.9706 65.0383 74.7116 69.0271C76.2481 72.5507 79.8783 74.5797 82.7324 77.1544C85.5865 79.7291 87.8228 84.0923 85.6873 87.2891C83.7001 90.2627 79.4218 90.1893 75.8449 90.2483C67.4491 90.4096 59.2957 93.0913 52.4434 97.9451C46.5394 102.143 41.5253 108.601 41.7701 115.84C42.0149 123.079 49.657 129.91 56.389 127.248C53.3089 130.56 50.197 134.108 49.0306 138.48C47.8642 142.852 49.2855 148.25 53.3607 150.209C60.9927 153.877 70.8668 143.635 77.7586 148.543C81.6049 151.279 81.5199 157.106 79.8509 161.523C78.0596 166.26 74.9549 170.466 73.6129 175.347C72.2708 180.229 73.4401 186.464 78.0409 188.581C82.0095 190.408 86.6276 188.437 90.4378 186.302C90.2938 192.177 96.4988 196.734 102.374 196.595C108.249 196.455 113.499 192.841 117.611 188.643C133.245 195.555 151.7 195.804 167.512 189.313C175.474 195.955 187.392 195.793 197.005 191.905C202.944 189.504 209.11 184.208 207.805 177.937C207.164 174.848 204.837 172.442 203.119 169.795C201.401 167.148 200.316 163.502 202.189 160.965C204.829 157.394 210.352 159.093 214.779 158.728C219.013 158.383 222.96 155.595 224.702 151.72C226.444 147.845 225.91 143.045 223.36 139.646C229.496 143.74 238.525 140.808 242.692 134.721C246.859 128.634 246.913 120.497 244.816 113.425C242.161 104.464 235.123 95.8571 225.799 95.2077C222.245 94.9571 218.719 95.8759 215.162 96.0803C211.605 96.2848 207.674 95.585 205.383 92.8533C202.49 89.3973 203.344 84.3184 203.302 79.8112C203.196 68.3431 195.198 57.1355 184.129 54.1389C178.68 52.6643 172.753 53.4189 167.691 55.841C165.146 57.0467 162.832 58.687 160.852 60.688C159.873 61.6818 158.993 62.7678 158.224 63.9309C157.431 65.1347 157.342 66.2651 155.595 64.985C129.391 45.7653 108.396 45.5234 89.0986 51.1207Z" fill="#A2DAD3"/>
<path d="M97.8571 73.2073C97.1068 74.476 96.3393 76.0067 96.9355 77.3545C97.3315 78.2516 98.2315 78.7945 99.0796 79.2899L118.049 90.2814C119.003 90.8344 120.039 91.4075 121.139 91.3124C122.629 91.1843 123.719 89.8984 124.619 88.7032C128.622 83.3894 132.343 77.8695 135.768 72.1662C137.093 69.9616 138.344 67.0254 136.753 65.0036C136.127 64.2073 135.169 63.7523 134.256 63.3246L114.881 54.28C113.634 53.704 111.939 52.5145 110.493 52.7608C109.494 52.9307 109.262 53.894 108.931 54.7148C108.355 56.1289 107.443 57.3875 106.643 58.6806C105.724 60.1628 104.812 61.6484 103.907 63.1374C101.865 66.4782 99.849 69.8348 97.8571 73.2073Z" fill="#FACBDF"/>
<path d="M98.2787 163.431C94.4929 165.159 92.1717 169.635 93.3625 173.511C94.5534 177.388 99.3731 179.911 103.28 178.471C106.268 177.363 109.574 174.375 112.022 176.361C112.706 176.917 113.07 177.754 113.337 178.579C115.269 184.569 113.492 191.801 117.5 196.734C120.571 200.514 125.986 201.524 130.932 202.029C140.792 203.036 150.726 203.085 160.596 202.173C165.365 201.731 170.46 200.91 173.906 197.685C178.713 193.185 178.569 185.885 179.835 179.541C180.094 178.245 180.569 176.777 181.826 176.25C183.613 175.501 185.403 177.114 187.049 178.122C192.268 181.29 200.35 176.97 200.362 171.012C200.373 165.053 192.298 160.727 187.073 163.899C186.472 164.265 185.844 164.722 185.138 164.651C183.643 164.507 183.505 162.464 183.759 161.032C184.787 155.232 185.148 149.331 184.834 143.448C184.745 141.77 184.574 140.018 183.636 138.605C182.782 137.32 181.394 136.474 180.027 135.712C163.401 126.451 142.847 124.021 124.38 129.133C118.531 130.751 110.591 134.006 108.02 139.852C106.228 143.929 108.776 148.664 109.44 152.732C110.104 156.8 110.16 161.315 109.872 165.404C106.537 162.919 102.332 161.585 98.2787 163.431Z" fill="#FACBDF"/>
<path d="M101.614 175.041C100.004 175.041 98.4274 174.033 97.8399 172.496C97.1401 170.669 97.9839 168.45 99.7205 167.547C99.856 167.476 100.014 167.462 100.16 167.508C100.305 167.554 100.427 167.656 100.497 167.792C100.568 167.927 100.582 168.086 100.536 168.231C100.489 168.376 100.387 168.499 100.252 168.569C99.0394 169.2 98.4274 170.809 98.9156 172.084C99.4037 173.36 100.932 174.149 102.258 173.812C102.332 173.789 102.41 173.782 102.487 173.791C102.564 173.8 102.638 173.824 102.706 173.861C102.773 173.9 102.833 173.951 102.88 174.013C102.927 174.075 102.961 174.145 102.981 174.22C103 174.295 103.004 174.373 102.992 174.449C102.981 174.525 102.954 174.599 102.914 174.665C102.873 174.731 102.819 174.789 102.756 174.833C102.693 174.878 102.621 174.91 102.546 174.927C102.241 175.003 101.928 175.042 101.614 175.041Z" fill="#2B2F30"/>
<path d="M192.588 175.909C192.435 175.913 192.287 175.856 192.176 175.75C192.065 175.645 192.001 175.5 191.997 175.347C191.993 175.195 192.05 175.048 192.156 174.937C192.261 174.826 192.406 174.761 192.559 174.757C193.793 174.693 195.059 173.714 195.505 172.477C195.937 171.275 195.56 169.885 194.627 169.255C194.563 169.213 194.507 169.16 194.465 169.096C194.422 169.033 194.392 168.961 194.377 168.886C194.363 168.811 194.363 168.735 194.377 168.66C194.393 168.585 194.424 168.513 194.465 168.45C194.509 168.386 194.563 168.333 194.628 168.291C194.691 168.249 194.763 168.221 194.838 168.206C194.913 168.193 194.991 168.195 195.066 168.211C195.139 168.226 195.211 168.258 195.273 168.301C196.651 169.239 197.204 171.158 196.588 172.869C195.985 174.544 194.314 175.821 192.618 175.907L192.588 175.909Z" fill="#2B2F30"/>
<path d="M131.224 170.407H131.034C127.99 170.326 125.063 168.3 123.916 165.48C123.884 165.41 123.867 165.333 123.865 165.256C123.864 165.179 123.878 165.102 123.907 165.03C123.935 164.958 123.978 164.893 124.033 164.838C124.088 164.783 124.153 164.74 124.225 164.711C124.297 164.681 124.374 164.667 124.451 164.668C124.529 164.67 124.605 164.687 124.676 164.719C124.747 164.75 124.81 164.796 124.863 164.853C124.916 164.909 124.956 164.976 124.983 165.048C125.963 167.457 128.463 169.188 131.064 169.257H131.227C133.771 169.257 136.275 167.673 137.36 165.369C137.426 165.234 137.543 165.13 137.686 165.081C137.828 165.031 137.985 165.04 138.121 165.103C138.258 165.168 138.364 165.283 138.416 165.424C138.469 165.565 138.464 165.722 138.402 165.859C137.134 168.552 134.202 170.407 131.224 170.407Z" fill="#2B2F30"/>
<path d="M164.2 171.014C162.696 170.997 161.251 170.441 160.122 169.448C158.97 168.432 158.304 167.109 158.264 165.719C158.261 165.645 158.274 165.568 158.301 165.498C158.327 165.427 158.369 165.362 158.421 165.308C158.473 165.253 158.535 165.208 158.604 165.177C158.673 165.146 158.746 165.129 158.823 165.126H158.84C158.99 165.126 159.134 165.185 159.242 165.289C159.348 165.394 159.412 165.535 159.416 165.685C159.448 166.752 159.969 167.78 160.882 168.582C161.932 169.502 163.33 169.975 164.626 169.842C167.019 169.599 169.269 167.596 170.098 164.972C170.145 164.83 170.248 164.711 170.383 164.642C170.517 164.575 170.673 164.562 170.817 164.606C170.961 164.651 171.082 164.752 171.152 164.884C171.223 165.018 171.238 165.174 171.197 165.318C170.217 168.417 167.624 170.695 164.743 170.987C164.563 171.006 164.381 171.016 164.2 171.014Z" fill="#2B2F30"/>
<path d="M134.013 153.991C129.914 153.233 126.64 153.871 123.014 155.926C122.701 156.103 122.374 156.314 122.245 156.646C121.852 157.654 123.41 158.22 124.493 158.183L131.002 157.954C132.238 157.909 133.594 157.81 134.489 156.959C135.385 156.108 135.229 154.211 134.013 153.991Z" fill="#2B2F30"/>
<path d="M124.389 158.759C123.474 158.759 122.347 158.417 121.862 157.735C121.727 157.551 121.643 157.335 121.616 157.107C121.589 156.881 121.62 156.651 121.708 156.439C121.924 155.882 122.448 155.583 122.728 155.431C126.76 153.146 130.169 152.551 134.129 153.431C134.801 153.559 135.311 154.046 135.527 154.767C135.802 155.68 135.539 156.754 134.888 157.381C133.789 158.439 132.124 158.497 131.021 158.533L124.514 158.763L124.389 158.759ZM130.792 154.19C128.334 154.19 125.966 154.91 123.304 156.423C123.071 156.555 122.848 156.699 122.788 156.855C122.769 156.89 122.761 156.928 122.765 156.966C122.768 157.005 122.783 157.041 122.808 157.07C123.028 157.381 123.816 157.63 124.48 157.608L130.988 157.379C132.215 157.336 133.376 157.235 134.097 156.545C134.439 156.217 134.583 155.592 134.431 155.092C134.405 154.964 134.342 154.845 134.251 154.75C134.16 154.655 134.044 154.588 133.916 154.555H133.894C132.877 154.319 131.837 154.197 130.792 154.19Z" fill="#2B2F30"/>
<path d="M169.585 154.181C167.631 153.266 166.212 153.147 164.054 153.155C161.897 153.164 159.239 154.346 157.828 155.978C156.359 158.093 164.854 157.579 168.428 157.293C169.004 157.246 169.519 157.018 170.025 156.74C170.648 156.398 171.047 154.863 169.585 154.181Z" fill="#2B2F30"/>
<path d="M162.689 158.139C157.904 158.139 157.433 157.32 157.226 156.959C157.093 156.73 156.938 156.254 157.354 155.65C157.365 155.634 157.378 155.618 157.391 155.602C158.896 153.861 161.698 152.59 164.053 152.578C166.213 152.568 167.555 152.896 169.767 153.632L169.83 153.657C170.651 154.041 171.136 154.725 171.162 155.529C171.185 156.249 170.831 156.949 170.298 157.238C169.741 157.573 169.117 157.787 168.471 157.86C166.056 158.062 164.167 158.139 162.689 158.139ZM158.244 156.411C158.405 156.57 159.698 157.419 168.381 156.724C168.88 156.684 169.352 156.456 169.748 156.24C169.847 156.185 170.022 155.916 170.01 155.578C169.999 155.215 169.778 154.918 169.371 154.714C167.291 154.024 166.083 153.73 164.139 153.73H164.057C162.051 153.739 159.577 154.853 158.286 156.322C158.268 156.349 158.254 156.378 158.244 156.407V156.411Z" fill="#2B2F30"/>
<path d="M149.148 180.883C148.906 180.883 148.666 180.864 148.428 180.824C147.979 180.75 147.541 180.632 147.116 180.518C146.317 180.302 145.562 180.099 144.835 180.207C144.517 180.266 144.205 180.351 143.901 180.461C143.562 180.583 143.215 180.68 142.862 180.749C141.99 180.893 140.905 180.665 140.443 179.801C140.322 179.572 140.255 179.319 140.248 179.06C140.24 178.8 140.293 178.544 140.401 178.308C140.715 177.581 141.509 176.936 142.374 176.704C142.714 176.612 143.061 176.56 143.395 176.499C144.078 176.387 144.722 176.28 145.165 175.907C145.858 175.331 145.933 174.162 145.928 173.34C145.92 171.805 145.741 170.204 145.57 168.654C145.175 165.113 144.768 161.454 146.298 158.152C146.363 158.014 146.48 157.907 146.622 157.854C146.766 157.802 146.925 157.808 147.063 157.873C147.203 157.938 147.309 158.054 147.362 158.197C147.414 158.341 147.409 158.499 147.344 158.637C145.948 161.644 146.32 164.988 146.714 168.526C146.89 170.11 147.072 171.739 147.08 173.333C147.08 174.388 146.971 175.894 145.907 176.789C145.221 177.365 144.389 177.509 143.584 177.635C143.278 177.68 142.974 177.74 142.674 177.815C142.154 177.959 141.633 178.363 141.458 178.764C141.418 178.841 141.397 178.926 141.397 179.011C141.397 179.097 141.418 179.182 141.458 179.257C141.64 179.595 142.203 179.689 142.665 179.612C142.962 179.553 143.254 179.471 143.539 179.369C143.905 179.237 144.282 179.136 144.665 179.07C145.63 178.926 146.537 179.17 147.416 179.407C147.832 179.519 148.224 179.624 148.617 179.695C149.537 179.847 150.909 179.571 151.091 178.656C151.105 178.583 151.135 178.512 151.177 178.449C151.219 178.386 151.274 178.332 151.335 178.291C151.399 178.249 151.469 178.219 151.544 178.204C151.618 178.19 151.694 178.19 151.769 178.204C151.842 178.22 151.913 178.249 151.976 178.291C152.04 178.334 152.093 178.387 152.135 178.45C152.178 178.514 152.207 178.584 152.221 178.658C152.235 178.733 152.235 178.809 152.221 178.882C151.959 180.209 150.561 180.883 149.148 180.883Z" fill="#2B2F30"/>
<path d="M148.09 191.696C146.954 191.713 145.849 191.323 144.977 190.596C144.86 190.498 144.788 190.355 144.777 190.204C144.764 190.051 144.813 189.9 144.912 189.783C145.011 189.668 145.152 189.595 145.305 189.583C145.456 189.572 145.607 189.621 145.724 189.719C146.529 190.406 147.714 190.686 148.892 190.469C150.07 190.251 151.081 189.569 151.589 188.642C151.667 188.516 151.789 188.426 151.932 188.388C152.076 188.351 152.227 188.369 152.357 188.441C152.485 188.512 152.583 188.63 152.627 188.771C152.672 188.911 152.662 189.063 152.597 189.196C151.915 190.442 150.639 191.32 149.098 191.602C148.765 191.664 148.428 191.696 148.09 191.696Z" fill="#2B2F30"/>
<path d="M120.828 174.567C120.589 174.567 120.351 174.519 120.129 174.43C119.4 174.142 118.903 173.5 118.864 172.793C118.851 172.5 118.901 172.206 119.009 171.934C119.117 171.661 119.282 171.414 119.492 171.209C119.733 170.962 120.022 170.766 120.341 170.635C120.66 170.504 121.003 170.44 121.348 170.444C121.501 170.45 121.646 170.514 121.75 170.627C121.855 170.738 121.911 170.886 121.906 171.039C121.901 171.193 121.835 171.337 121.724 171.442C121.612 171.546 121.464 171.602 121.311 171.596C121.125 171.596 120.941 171.632 120.77 171.704C120.599 171.776 120.445 171.882 120.316 172.015C120.22 172.107 120.143 172.217 120.091 172.339C120.04 172.46 120.014 172.592 120.015 172.723C120.029 172.974 120.25 173.233 120.552 173.353C120.638 173.387 120.938 173.485 121.128 173.302C121.182 173.249 121.247 173.207 121.318 173.178C121.388 173.15 121.464 173.135 121.541 173.137C121.617 173.137 121.692 173.154 121.762 173.184C121.833 173.214 121.896 173.258 121.949 173.314C122.002 173.369 122.043 173.433 122.071 173.505C122.098 173.576 122.111 173.652 122.109 173.729C122.107 173.805 122.09 173.88 122.058 173.95C122.027 174.019 121.982 174.081 121.926 174.133C121.63 174.415 121.237 174.571 120.828 174.567Z" fill="white"/>
<path d="M125.546 182.184C125.239 182.189 124.939 182.084 124.702 181.888C124.464 181.692 124.304 181.417 124.25 181.114C124.18 180.79 124.232 180.453 124.397 180.167C124.561 179.88 124.826 179.666 125.14 179.565C125.372 179.486 125.613 179.421 125.852 179.361C125.925 179.343 126.002 179.34 126.076 179.352C126.151 179.365 126.223 179.391 126.287 179.431C126.351 179.471 126.407 179.523 126.451 179.584C126.495 179.646 126.527 179.715 126.544 179.79C126.562 179.863 126.564 179.939 126.552 180.014C126.54 180.088 126.513 180.16 126.473 180.225C126.433 180.288 126.381 180.344 126.32 180.389C126.258 180.433 126.189 180.465 126.115 180.482C125.912 180.53 125.711 180.587 125.513 180.655C125.489 180.661 125.466 180.672 125.446 180.688C125.426 180.704 125.409 180.723 125.397 180.746C125.385 180.767 125.377 180.792 125.374 180.816C125.371 180.842 125.374 180.868 125.381 180.893C125.38 180.914 125.385 180.936 125.394 180.955C125.403 180.975 125.416 180.992 125.433 181.006C125.45 181.019 125.469 181.029 125.491 181.035C125.512 181.04 125.534 181.041 125.555 181.037H125.567C125.719 181.025 125.87 181.076 125.985 181.176C126.101 181.277 126.172 181.42 126.182 181.572C126.193 181.725 126.142 181.876 126.041 181.991C125.941 182.107 125.799 182.177 125.646 182.189H125.544L125.546 182.184Z" fill="white"/>
<path d="M134.603 176.178C134.482 176.177 134.363 176.139 134.265 176.067C134.167 175.995 134.093 175.895 134.056 175.779C133.997 175.582 133.983 175.375 134.017 175.172C134.051 174.969 134.131 174.777 134.252 174.61C134.372 174.443 134.529 174.308 134.71 174.211C134.892 174.115 135.093 174.061 135.299 174.056C135.504 174.051 135.708 174.093 135.895 174.178C136.081 174.265 136.245 174.393 136.375 174.553C136.504 174.712 136.594 174.9 136.639 175.1C136.684 175.3 136.682 175.509 136.634 175.709C136.591 175.851 136.495 175.971 136.365 176.044C136.235 176.118 136.082 176.138 135.938 176.101C135.794 176.063 135.669 175.972 135.591 175.844C135.513 175.717 135.487 175.566 135.519 175.421C135.52 175.365 135.501 175.311 135.467 175.268C135.433 175.224 135.384 175.193 135.331 175.182C135.303 175.186 135.277 175.198 135.254 175.213C135.231 175.229 135.212 175.251 135.198 175.275C135.18 175.296 135.167 175.321 135.159 175.347C135.151 175.375 135.149 175.402 135.153 175.431C135.199 175.575 135.185 175.732 135.116 175.867C135.046 176.001 134.926 176.103 134.782 176.151C134.724 176.168 134.664 176.178 134.603 176.178Z" fill="white"/>
<path d="M134.089 183.697H134.067C133.802 183.698 133.546 183.597 133.351 183.417C133.155 183.239 133.035 182.991 133.013 182.726C132.982 182.458 133.051 182.187 133.208 181.966C133.364 181.745 133.597 181.59 133.861 181.531C134.114 181.473 134.372 181.437 134.632 181.426C134.707 181.423 134.783 181.434 134.854 181.46C134.925 181.486 134.991 181.527 135.046 181.577C135.102 181.629 135.147 181.691 135.179 181.758C135.212 181.827 135.23 181.901 135.233 181.977C135.236 182.052 135.225 182.128 135.199 182.199C135.173 182.271 135.133 182.336 135.082 182.392C135.031 182.448 134.969 182.493 134.901 182.524C134.832 182.558 134.758 182.575 134.682 182.578C134.571 182.583 134.461 182.594 134.351 182.611C134.465 182.671 134.556 182.766 134.61 182.884C134.663 183.001 134.676 183.132 134.645 183.257C134.615 183.383 134.544 183.494 134.443 183.574C134.342 183.653 134.218 183.698 134.089 183.698V183.697Z" fill="white"/>
<path d="M164.474 178.821C164.401 178.821 164.327 178.806 164.26 178.779C164.067 178.69 163.913 178.533 163.828 178.337C163.721 178.125 163.665 177.892 163.665 177.654C163.665 177.418 163.721 177.185 163.828 176.972C163.93 176.761 164.08 176.579 164.267 176.437C164.454 176.296 164.672 176.203 164.902 176.162H164.916C165.065 176.142 165.216 176.18 165.337 176.268C165.458 176.355 165.54 176.488 165.564 176.635C165.59 176.783 165.557 176.934 165.472 177.058C165.389 177.182 165.259 177.268 165.112 177.297H165.099C165.047 177.307 164.999 177.33 164.957 177.362C164.915 177.394 164.882 177.435 164.859 177.483C164.833 177.535 164.82 177.589 164.82 177.646C164.82 177.703 164.833 177.758 164.859 177.808C164.947 177.886 165.009 177.988 165.037 178.102C165.065 178.216 165.058 178.335 165.016 178.446C164.974 178.556 164.901 178.649 164.804 178.716C164.708 178.782 164.592 178.818 164.476 178.816L164.474 178.821Z" fill="white"/>
<path d="M172.946 175.425C172.832 175.427 172.721 175.392 172.626 175.33C172.531 175.267 172.457 175.178 172.414 175.072C172.37 174.967 172.358 174.852 172.38 174.74C172.401 174.629 172.456 174.527 172.535 174.445C172.541 174.412 172.535 174.376 172.518 174.345C172.48 174.35 172.447 174.367 172.423 174.394C172.393 174.544 172.305 174.675 172.18 174.76C172.053 174.845 171.899 174.875 171.749 174.846C171.674 174.832 171.604 174.803 171.54 174.761C171.477 174.718 171.424 174.665 171.38 174.602C171.339 174.538 171.31 174.468 171.294 174.393C171.28 174.318 171.28 174.242 171.295 174.167C171.334 173.985 171.415 173.814 171.532 173.667C171.648 173.522 171.796 173.404 171.966 173.324C172.135 173.247 172.321 173.208 172.508 173.212C172.695 173.216 172.878 173.264 173.042 173.352C173.208 173.438 173.35 173.563 173.46 173.715C173.569 173.866 173.641 174.041 173.671 174.226C173.702 174.41 173.689 174.599 173.634 174.777C173.579 174.956 173.483 175.119 173.355 175.254C173.301 175.309 173.238 175.352 173.167 175.382C173.097 175.411 173.022 175.427 172.946 175.425Z" fill="white"/>
<path d="M171.048 183.907C170.916 183.907 170.789 183.861 170.685 183.779C170.583 183.695 170.513 183.58 170.485 183.45C170.456 183.322 170.474 183.187 170.534 183.07C170.593 182.952 170.691 182.858 170.812 182.805L170.854 182.786C170.868 182.779 170.881 182.768 170.89 182.755C170.9 182.742 170.904 182.726 170.906 182.71C170.909 182.699 170.907 182.687 170.904 182.677C170.901 182.667 170.894 182.657 170.886 182.651C170.825 182.605 170.773 182.549 170.736 182.483C170.697 182.418 170.671 182.346 170.66 182.271C170.649 182.196 170.654 182.12 170.672 182.046C170.691 181.973 170.724 181.905 170.769 181.845C170.86 181.722 170.994 181.643 171.143 181.62C171.293 181.597 171.446 181.634 171.568 181.724L171.58 181.732C171.748 181.859 171.881 182.029 171.963 182.223C172.046 182.418 172.076 182.631 172.051 182.841C172.028 183.054 171.95 183.259 171.823 183.434C171.696 183.609 171.526 183.747 171.331 183.836L171.289 183.856C171.212 183.889 171.13 183.907 171.048 183.907Z" fill="white"/>
<path d="M159.053 182.729C158.907 182.723 158.765 182.689 158.633 182.627C158.502 182.566 158.384 182.478 158.286 182.37C157.88 181.961 157.605 181.218 157.863 180.605C157.998 180.278 158.399 179.729 159.542 179.729C159.695 179.731 159.842 179.791 159.95 179.899C160.058 180.007 160.118 180.153 160.118 180.305C160.118 180.46 160.058 180.605 159.95 180.713C159.842 180.821 159.695 180.881 159.542 180.881C159.199 180.881 158.949 180.956 158.92 181.066C158.88 181.21 159.005 181.462 159.104 181.561C159.241 181.553 159.377 181.593 159.487 181.673C159.597 181.756 159.675 181.874 159.705 182.008C159.735 182.141 159.718 182.281 159.654 182.404C159.591 182.525 159.486 182.62 159.359 182.671C159.261 182.71 159.158 182.73 159.053 182.729Z" fill="white"/>
<path d="M110.693 220.935C133.327 209.878 161.142 210.102 183.596 221.519C189.022 224.278 194.324 227.838 197.379 233.103C197.988 234.153 198.512 235.378 198.196 236.55C197.609 238.732 194.761 239.185 192.501 239.211C183.735 239.308 174.968 239.394 166.2 239.472C157.432 239.55 148.665 239.564 139.897 239.515C131.065 239.468 122.237 239.334 113.415 239.115C109.035 239 104.655 238.856 100.275 238.683C97.9379 238.589 94.9125 238.683 95.1357 235.539C95.5792 229.27 103.277 224.895 108.07 222.291C108.934 221.819 109.808 221.367 110.693 220.935Z" fill="#A1CEE1"/>
<path d="M146.937 240.165H146.916C146.84 240.162 146.767 240.144 146.698 240.113C146.628 240.081 146.567 240.036 146.515 239.982C146.463 239.926 146.423 239.861 146.397 239.79C146.371 239.718 146.358 239.643 146.361 239.568C146.496 235.843 146.25 226.112 145.874 220.285C145.87 220.209 145.88 220.133 145.904 220.062C145.929 219.99 145.966 219.924 146.016 219.866C146.067 219.81 146.127 219.763 146.195 219.73C146.264 219.696 146.338 219.676 146.412 219.672C146.489 219.668 146.565 219.678 146.636 219.702C146.708 219.727 146.774 219.764 146.832 219.815C146.888 219.865 146.935 219.925 146.968 219.993C147.001 220.062 147.022 220.136 147.026 220.212C147.405 226.067 147.651 235.856 147.516 239.609C147.51 239.759 147.446 239.9 147.338 240.003C147.23 240.107 147.086 240.165 146.937 240.165Z" fill="#2B2F30"/>
<path d="M139.885 227.801C139.42 227.809 138.965 227.664 138.589 227.389C138.215 227.101 137.628 226.421 137.891 225.026C137.899 224.984 137.913 224.942 137.93 224.902C138.381 223.871 139.332 223.332 140.41 223.495C141.487 223.658 142.375 224.467 142.48 225.377C142.48 225.399 142.48 225.422 142.48 225.444C142.48 226.308 141.969 227.084 141.118 227.506C140.735 227.699 140.314 227.799 139.885 227.801ZM139.006 225.305C138.938 225.708 138.941 226.214 139.281 226.47C139.589 226.705 140.133 226.705 140.604 226.47C140.816 226.365 141.304 226.06 141.324 225.474C141.258 225.094 140.767 224.713 140.23 224.631C139.847 224.577 139.324 224.647 139.009 225.305H139.006Z" fill="white"/>
<path d="M140.038 236.455C139.709 236.457 139.384 236.382 139.089 236.233C138.756 236.042 138.474 235.774 138.265 235.451C138.057 235.129 137.928 234.762 137.889 234.38C137.851 233.997 137.903 233.611 138.044 233.254C138.184 232.897 138.407 232.577 138.694 232.322C138.902 232.272 139.091 232.161 139.236 232.003C139.776 231.756 140.39 231.73 140.95 231.928C141.509 232.124 141.971 232.531 142.237 233.061C142.503 233.591 142.554 234.204 142.378 234.77C142.202 235.338 141.813 235.814 141.294 236.099C140.915 236.328 140.481 236.452 140.038 236.455ZM139.522 233.106C139.491 233.152 139.452 233.192 139.409 233.227C139.201 233.398 139.065 233.64 139.028 233.906C138.992 234.173 139.057 234.443 139.212 234.664C139.366 234.883 139.598 235.037 139.86 235.093C140.123 235.149 140.398 235.104 140.629 234.968C140.86 234.829 141.03 234.61 141.106 234.353C141.182 234.095 141.158 233.817 141.038 233.577C140.918 233.336 140.712 233.15 140.461 233.055C140.209 232.96 139.931 232.963 139.682 233.064C139.631 233.087 139.578 233.101 139.522 233.106Z" fill="white"/>
<path d="M146.849 221.858C145.189 221.868 143.558 221.433 142.123 220.598C139.291 218.912 137.515 215.669 137.599 212.337C137.603 212.184 137.667 212.04 137.778 211.935C137.889 211.83 138.037 211.772 138.19 211.777C138.342 211.781 138.487 211.846 138.593 211.955C138.698 212.066 138.755 212.214 138.751 212.367C138.676 215.289 140.232 218.127 142.713 219.609C145.321 221.163 148.897 221.069 151.209 219.389C154.046 217.332 154.735 214.22 155.197 211.208C155.22 211.058 155.302 210.921 155.426 210.831C155.548 210.741 155.702 210.702 155.853 210.726C156.005 210.749 156.14 210.832 156.231 210.954C156.321 211.078 156.359 211.232 156.336 211.382C155.836 214.635 155.082 218.006 151.886 220.322C150.484 221.341 148.678 221.857 146.849 221.858Z" fill="#2B2F30"/>
<path d="M111.064 84.7749C110.211 84.7749 109.328 84.4422 108.845 83.6603C108.3 82.779 108.466 81.7394 108.726 80.7472C109.74 76.9046 111.23 73.2035 113.16 69.7298C114.883 66.6012 116.957 63.6793 119.342 61.0206C120.265 59.9968 122.055 58.3739 123.662 58.9859C125.415 59.6526 125.001 62.0099 124.754 63.4226C124.731 63.5493 124.71 63.6688 124.692 63.7811C124.09 67.4474 122.3 71.1064 120.804 73.8842C119.098 77.0633 117.011 80.0226 114.589 82.697C113.928 83.427 113.134 84.2349 112.093 84.6021C111.762 84.7164 111.414 84.7747 111.064 84.7749ZM109.841 81.041C109.645 81.784 109.508 82.5429 109.825 83.057C110.184 83.633 111.071 83.7453 111.72 83.5163C112.509 83.2384 113.16 82.5789 113.745 81.9251C116.102 79.3197 118.133 76.4367 119.793 73.3398C121.243 70.6413 122.981 67.0946 123.554 63.5954L123.619 63.2253C123.87 61.7925 124.051 60.3669 123.252 60.0645C122.43 59.7506 121.132 60.7528 120.192 61.7925C117.866 64.3864 115.842 67.2367 114.161 70.2885C112.28 73.6791 110.829 77.2912 109.841 81.041Z" fill="#A1CEE1"/>
<path d="M121.479 86.932C121.441 86.932 121.402 86.932 121.361 86.932C120.169 86.8255 118.733 85.0168 118.323 84.4653C117.09 82.7929 116.017 81.0092 115.116 79.1373C113.437 75.69 112.158 71.7933 111.319 67.5712C110.949 65.7698 110.716 63.943 110.622 62.1064C110.538 59.8975 110.91 58.5799 111.741 58.0744C112.122 57.8469 112.772 57.6885 113.703 58.2343C114.635 58.78 115.96 60.5685 116.439 61.5204C120.222 69.0084 121.767 75.0276 122.398 78.76C122.942 81.9784 123.131 85.816 122.254 86.6239C122.045 86.822 121.768 86.9323 121.479 86.932ZM119.246 83.7698C120.186 85.0312 121.16 85.7858 121.462 85.7858H121.471C122.035 84.7548 122.214 75.5085 115.413 62.046C114.919 61.0711 113.699 59.5735 113.122 59.2351C112.922 59.117 112.546 58.9399 112.333 59.0709C112.178 59.1631 111.682 59.6469 111.772 62.0661C111.864 63.8416 112.09 65.6078 112.448 67.3495C113.27 71.4794 114.516 75.2695 116.151 78.6348C117.02 80.4407 118.056 82.1613 119.246 83.7741V83.7698Z" fill="#A1CEE1"/>
<path d="M122.491 75.8844C121.034 75.8844 119.563 75.8225 118.106 75.6986C114.1 75.3588 110.432 74.6503 107.204 73.5919C105.391 72.9972 103.284 71.825 103.316 70.4743C103.329 69.9861 103.618 69.3223 104.933 68.9695C108.75 67.9255 112.98 68.0882 116.614 68.3834C120.869 68.729 124.282 69.2474 127.35 70.0164C130.494 70.8041 131.976 71.7156 132.015 72.8863C132.047 73.8698 131.059 74.6906 129.078 75.3343C127.627 75.8009 125.876 75.834 124.326 75.8642C124.118 75.8642 123.914 75.8714 123.714 75.8772C123.313 75.8801 122.901 75.8844 122.491 75.8844ZM105.238 70.0797C104.615 70.2511 104.471 70.4469 104.469 70.5031C104.461 70.8516 105.487 71.8164 107.564 72.4975C110.707 73.5271 114.286 74.2183 118.203 74.5509C120.029 74.7049 121.862 74.7606 123.693 74.718C123.896 74.718 124.102 74.7093 124.313 74.705C125.777 74.6762 127.437 74.6445 128.728 74.2313C130.312 73.7215 130.873 73.17 130.865 72.9237C130.865 72.8892 130.794 72.0597 127.072 71.1338C124.066 70.3807 120.714 69.8724 116.522 69.5311C112.987 69.2431 108.89 69.0847 105.238 70.0797Z" fill="#A1CEE1"/>
<path d="M117.132 74.3983C116.917 74.399 116.706 74.3534 116.511 74.2644C116.214 74.129 115.524 73.6769 115.524 72.4097C115.524 72.3699 115.529 72.3303 115.537 72.2916C115.681 71.6191 116.295 71.1713 117.072 71.1713H117.088C117.863 71.1713 118.474 71.6249 118.618 72.2873C118.805 72.954 118.633 73.5991 118.154 74.0153C117.871 74.2621 117.507 74.3982 117.132 74.3983ZM116.682 72.4874C116.697 72.8618 116.81 73.1311 116.993 73.2146C117.062 73.2427 117.136 73.2508 117.209 73.238C117.282 73.2253 117.349 73.1922 117.404 73.1426C117.548 73.0202 117.581 72.8287 117.509 72.5868L117.496 72.5349C117.467 72.3809 117.234 72.3233 117.084 72.3218C116.934 72.3204 116.743 72.3665 116.682 72.4874Z" fill="#2B2F30"/>
<path d="M170.829 84.6167C170.216 85.4044 169.566 86.3707 169.869 87.3211C170.109 88.0785 170.877 88.5249 171.575 88.8907C173.495 89.8871 175.447 90.8141 177.433 91.6713C177.918 91.8815 178.424 92.0903 178.951 92.0702C179.992 92.0299 180.774 91.1414 181.41 90.3177C185.51 85.0202 189.219 79.4317 192.508 73.5964C192.76 73.1471 193.019 72.6547 192.94 72.1449C192.788 71.0692 191.316 70.3219 190.51 69.7804C189.479 69.0894 188.406 68.4641 187.297 67.9084C185.923 67.2187 184.273 66.4771 182.918 67.5902C181.747 68.5507 180.785 70.4947 180.038 71.7532C178.408 74.4734 177.734 75.67 176.539 77.29C174.704 79.7798 172.731 82.1716 170.829 84.6167Z" fill="#2B2F30"/>
<path d="M178.882 92.6474C178.24 92.6474 177.645 92.3911 177.206 92.2025C175.217 91.3385 173.233 90.4025 171.31 89.4031C170.508 88.9869 169.626 88.4613 169.319 87.4965C168.895 86.1631 169.895 84.8801 170.374 84.2637C171.011 83.4473 171.67 82.6236 172.297 81.8258C173.557 80.2418 174.859 78.5988 176.074 76.9442C177.082 75.5661 177.741 74.4703 178.931 72.4802C179.119 72.162 179.324 71.8221 179.544 71.4521C179.688 71.2159 179.832 70.9509 179.998 70.6701C180.682 69.4735 181.533 67.9831 182.561 67.1407C184.273 65.7367 186.332 66.7721 187.564 67.3898C188.694 67.958 189.788 68.5973 190.838 69.3036C190.959 69.3842 191.097 69.4721 191.243 69.5642C192.133 70.1244 193.351 70.8948 193.518 72.0655C193.622 72.7956 193.253 73.4479 193.01 73.8799C189.706 79.7393 185.983 85.3512 181.867 90.6717C181.094 91.6697 180.21 92.5985 178.974 92.646L178.882 92.6474ZM171.283 84.9722C170.707 85.7095 170.206 86.4842 170.419 87.1481C170.592 87.6938 171.244 88.0711 171.843 88.3807C173.741 89.3671 175.699 90.2959 177.664 91.1441C178.145 91.3529 178.546 91.5127 178.931 91.4954C179.733 91.4652 180.397 90.6905 180.957 89.9661C185.039 84.6898 188.734 79.1239 192.01 73.3125C192.232 72.9209 192.427 72.5421 192.382 72.2253C192.29 71.5817 191.332 70.9783 190.632 70.5362C190.477 70.4383 190.33 70.3447 190.2 70.2583C189.189 69.5795 188.138 68.9649 187.051 68.418C185.669 67.7239 184.342 67.1724 183.295 68.0292C182.431 68.7377 181.639 70.1258 181.003 71.2404C180.84 71.5284 180.686 71.7962 180.538 72.0439L179.914 73.0634C178.708 75.0794 178.042 76.1969 176.998 77.6181C175.77 79.2914 174.461 80.9402 173.195 82.5357C172.565 83.3292 171.912 84.1514 171.279 84.965L171.283 84.9722Z" fill="#2B2F30"/>
<path d="M189.04 82.8209C188.92 82.8209 188.803 82.7837 188.706 82.7143C184.511 79.7301 179.632 77.8484 174.52 77.2423C174.445 77.2336 174.372 77.2099 174.306 77.1731C174.241 77.1362 174.182 77.0867 174.136 77.0273C174.088 76.9679 174.054 76.8999 174.032 76.827C174.012 76.7543 174.006 76.6781 174.015 76.603C174.023 76.5278 174.046 76.4551 174.084 76.389C174.121 76.3229 174.17 76.2647 174.229 76.2178C174.29 76.1708 174.357 76.1361 174.429 76.1154C174.503 76.0948 174.579 76.0888 174.654 76.0975C179.959 76.7275 185.021 78.681 189.374 81.7783C189.473 81.849 189.548 81.9497 189.587 82.0656C189.626 82.1815 189.626 82.3067 189.588 82.423C189.551 82.5395 189.479 82.641 189.379 82.713C189.282 82.785 189.162 82.8238 189.04 82.8238V82.8209Z" fill="white"/>
<path d="M67.8039 155.077H67.7909C67.6384 155.074 67.4934 155.01 67.3879 154.899C67.2823 154.79 67.2249 154.642 67.2279 154.489C67.2452 153.596 67.2394 153.101 67.2279 152.806C67.2011 152.417 67.2499 152.025 67.3719 151.654C67.4468 151.366 67.5721 150.888 67.7693 150.015C67.8058 149.87 67.8979 149.743 68.0262 149.664C68.1547 149.586 68.3088 149.56 68.4558 149.593C68.6028 149.626 68.7308 149.715 68.8125 149.842C68.8941 149.969 68.9229 150.123 68.8925 150.27C68.6909 151.16 68.5628 151.652 68.4865 151.945C68.3949 152.217 68.3596 152.503 68.3828 152.788C68.3828 153.092 68.3929 153.599 68.3741 154.516C68.3701 154.666 68.3083 154.807 68.2021 154.912C68.0956 155.016 67.9529 155.075 67.8039 155.077Z" fill="#A1CEE1"/>
<path d="M67.0075 164.473C66.8638 164.474 66.725 164.421 66.6184 164.324C66.5119 164.228 66.4452 164.095 66.4315 163.951C66.2628 162.18 66.3947 160.393 66.8218 158.665C66.8585 158.517 66.9525 158.39 67.0834 158.311C67.2143 158.232 67.3711 158.207 67.5194 158.245C67.6679 158.281 67.7956 158.376 67.8745 158.507C67.9536 158.636 67.9774 158.793 67.9406 158.942C67.5451 160.543 67.423 162.197 67.5792 163.838C67.5936 163.99 67.5472 164.141 67.45 164.259C67.3528 164.378 67.2129 164.451 67.0608 164.465L67.0075 164.473Z" fill="#A1CEE1"/>
<path d="M67.0034 176.219C66.8777 176.219 66.7556 176.178 66.6555 176.102C66.5554 176.026 66.4829 175.919 66.449 175.798C65.883 173.776 65.883 171.638 66.449 169.616C66.4902 169.469 66.5883 169.344 66.7215 169.269C66.8548 169.194 67.0124 169.175 67.1597 169.217C67.3068 169.259 67.4317 169.357 67.5066 169.489C67.5816 169.623 67.6004 169.78 67.5593 169.927C67.0494 171.746 67.0494 173.67 67.5593 175.487C67.5796 175.56 67.5853 175.637 67.5763 175.712C67.5672 175.787 67.5434 175.86 67.5061 175.926C67.469 175.991 67.4192 176.05 67.3595 176.096C67.3001 176.142 67.2318 176.177 67.1589 176.197C67.1084 176.213 67.056 176.22 67.0034 176.219Z" fill="#A1CEE1"/>
<path d="M69.4441 189.906C69.3406 189.906 69.2391 189.878 69.1501 189.825C69.0612 189.772 68.9881 189.697 68.9387 189.605C67.6471 187.242 67.0481 184.562 67.2107 181.873C67.2151 181.799 67.2344 181.724 67.2676 181.656C67.3005 181.588 67.3468 181.526 67.4034 181.476C67.4599 181.426 67.5259 181.388 67.5975 181.362C67.6692 181.338 67.7449 181.328 67.8205 181.332C67.8961 181.336 67.9701 181.355 68.0384 181.388C68.1065 181.421 68.1676 181.467 68.218 181.525C68.2682 181.581 68.307 181.647 68.3319 181.719C68.3566 181.79 68.3671 181.866 68.3627 181.941C68.2157 184.415 68.7692 186.88 69.9596 189.053C70.0325 189.187 70.0494 189.346 70.0064 189.491C69.9635 189.638 69.8645 189.762 69.7307 189.834C69.6433 189.883 69.5443 189.909 69.4441 189.906Z" fill="#A1CEE1"/>
<path d="M73.0058 199.329C72.8563 199.329 72.7127 199.271 72.6055 199.166C71.9229 198.499 71.4091 197.679 71.1064 196.773C70.8036 195.867 70.7208 194.902 70.8645 193.958C70.8767 193.883 70.9035 193.812 70.9433 193.747C70.9831 193.683 71.0353 193.628 71.0968 193.583C71.1583 193.539 71.2278 193.507 71.3014 193.49C71.3751 193.472 71.4514 193.47 71.5262 193.483C71.6009 193.494 71.6725 193.521 71.7367 193.562C71.8011 193.601 71.8569 193.652 71.9011 193.714C71.9454 193.776 71.977 193.845 71.9943 193.919C72.0116 193.992 72.0143 194.069 72.0021 194.143C71.8863 194.905 71.9534 195.681 72.1978 196.411C72.4423 197.14 72.8569 197.801 73.4075 198.338C73.4618 198.391 73.5052 198.455 73.5353 198.524C73.5652 198.593 73.5812 198.668 73.5822 198.744C73.5834 198.819 73.5694 198.894 73.5415 198.965C73.5135 199.035 73.4719 199.1 73.419 199.153C73.3655 199.209 73.3013 199.254 73.2303 199.283C73.1593 199.313 73.083 199.329 73.0058 199.329Z" fill="#A1CEE1"/>
<path d="M76.6014 209.899C76.4765 209.899 76.3551 209.858 76.2555 209.783C76.1557 209.708 76.0831 209.603 76.0484 209.482L74.4644 203.995C74.4402 203.921 74.431 203.843 74.4375 203.767C74.4438 203.689 74.4659 203.614 74.502 203.545C74.5382 203.478 74.5877 203.417 74.6477 203.368C74.7078 203.319 74.7771 203.283 74.8515 203.262C74.9259 203.24 75.0038 203.234 75.0807 203.243C75.1576 203.252 75.2318 203.277 75.2991 203.315C75.3662 203.354 75.4248 203.406 75.4713 203.467C75.5179 203.529 75.5516 203.6 75.5703 203.675L77.1543 209.163C77.1752 209.236 77.1817 209.312 77.1732 209.387C77.1646 209.462 77.1414 209.536 77.1048 209.602C77.0681 209.668 77.0188 209.726 76.9597 209.773C76.9005 209.821 76.8325 209.855 76.7598 209.875C76.7084 209.891 76.6551 209.899 76.6014 209.899Z" fill="#A1CEE1"/>
<path d="M77.7749 218.111H77.7014C77.6264 218.101 77.554 218.077 77.4881 218.039C77.4223 218.002 77.3646 217.951 77.3182 217.892C77.2719 217.832 77.2377 217.764 77.2177 217.691C77.1977 217.619 77.1924 217.542 77.2017 217.468L77.6006 214.334C77.6101 214.258 77.6343 214.186 77.6718 214.12C77.7092 214.055 77.7593 213.997 77.8191 213.95C77.8788 213.904 77.9471 213.869 78.0201 213.85C78.0931 213.83 78.1693 213.824 78.2443 213.834C78.3195 213.843 78.3919 213.868 78.4577 213.905C78.5234 213.942 78.5811 213.993 78.6275 214.052C78.6739 214.112 78.7081 214.18 78.7281 214.253C78.748 214.325 78.7535 214.402 78.744 214.478L78.3451 217.612C78.3267 217.748 78.2587 217.877 78.1539 217.967C78.049 218.059 77.9144 218.11 77.7749 218.111Z" fill="#A1CEE1"/>
<path d="M80.9331 141.355C80.0878 141.355 79.3822 140.771 78.9877 140.442C76.2517 138.176 73.6021 135.746 71.1051 133.221C70.4153 132.524 69.704 131.805 68.8472 131.575C67.6088 131.243 66.2739 132.047 65.5957 133.015C64.7317 134.244 64.5373 135.866 64.4667 136.979C64.4568 137.132 64.3866 137.274 64.2716 137.375C64.1565 137.476 64.006 137.527 63.8533 137.518C63.7005 137.508 63.5579 137.437 63.457 137.322C63.356 137.207 63.3048 137.057 63.3147 136.904C63.3953 135.653 63.6214 133.82 64.651 132.354C65.7281 130.82 67.5757 130.043 69.1453 130.464C70.2973 130.775 71.1613 131.644 71.9216 132.411C74.3941 134.911 77.0177 137.307 79.7206 139.557C80.1325 139.898 80.6062 140.258 81.0253 140.197C81.1213 140.186 81.2132 140.152 81.2931 140.098C81.3732 140.044 81.4388 139.971 81.4846 139.886C81.7726 139.4 81.7525 138.395 81.4357 137.548C79.4715 132.28 75.5648 127.256 69.4952 122.187C68.732 121.549 67.5771 120.586 67.5397 119.212C67.5152 118.265 68.0379 117.453 68.5477 116.783C71.2966 113.213 75.199 110.696 78.6406 108.617C80.36 107.577 82.2075 106.57 84.2177 106.666C84.8572 106.703 85.4821 106.873 86.0522 107.165C86.6224 107.457 87.1255 107.865 87.5297 108.362C88.1461 109.139 88.3937 110.054 88.231 110.938C88.2034 111.088 88.1171 111.221 87.9913 111.308C87.8654 111.395 87.7103 111.428 87.56 111.4C87.4098 111.372 87.2766 111.286 87.1899 111.161C87.1032 111.035 87.0701 110.879 87.0977 110.729C87.1432 110.436 87.1248 110.137 87.0434 109.852C86.9622 109.567 86.8201 109.302 86.6269 109.078C86.3249 108.71 85.9508 108.409 85.5277 108.192C85.1048 107.975 84.6418 107.847 84.1673 107.816C82.4768 107.735 80.8712 108.615 79.2397 109.602C75.8873 111.628 72.0901 114.074 69.4635 117.486C69.0517 118.02 68.6729 118.596 68.6888 119.181C68.7104 119.97 69.4304 120.635 70.2296 121.303C76.4576 126.503 80.4752 131.686 82.5128 137.143C82.8843 138.14 83.0153 139.555 82.4725 140.471C82.3397 140.704 82.1545 140.904 81.9317 141.054C81.7088 141.204 81.4542 141.3 81.188 141.335C81.1036 141.348 81.0185 141.355 80.9331 141.355Z" fill="white"/>
<path d="M88.0706 129.696C87.3328 129.69 86.6001 129.574 85.8962 129.353C84.4173 128.902 83.2034 127.671 82.6461 126.061C81.9809 124.136 82.1853 121.897 83.2077 119.921C84.2301 117.945 85.9437 116.487 87.8993 115.919C88.0444 115.881 88.1988 115.901 88.3294 115.975C88.46 116.05 88.5565 116.172 88.5982 116.316C88.6401 116.46 88.6242 116.615 88.5535 116.747C88.4829 116.88 88.3634 116.98 88.2204 117.025C86.5629 117.506 85.11 118.753 84.2316 120.451C83.3532 122.149 83.1717 124.051 83.7348 125.685C84 126.482 84.4944 127.184 85.1561 127.701C85.3738 126.25 86.139 124.938 87.2945 124.034C88.3673 123.187 89.6229 122.81 90.8297 122.971C91.8204 123.103 92.5577 123.674 92.8644 124.536C93.2575 125.661 92.8399 127.128 91.8247 128.184C90.8642 129.177 89.5538 129.694 88.0706 129.696ZM86.1713 128.233L86.2289 128.251C88.157 128.839 89.8937 128.522 90.9909 127.387C91.7009 126.647 92.0234 125.632 91.7729 124.918C91.613 124.46 91.2444 124.189 90.6741 124.114C89.7785 123.995 88.8309 124.287 88.0058 124.939C87.0425 125.701 86.3988 126.827 86.2778 127.952C86.2689 128.054 86.232 128.151 86.1713 128.233Z" fill="white"/>
<path d="M98.508 150.854C101.112 151.744 103.034 153.969 105.504 155.174C109.646 157.21 114.826 156.038 118.523 153.272C122.219 150.506 124.673 146.405 126.664 142.241C130.681 149.718 141.011 152.994 148.603 149.198C154.736 146.133 158.408 139.597 164.172 135.882C166.97 134.079 171.235 133.261 173.217 135.935C175.044 138.402 173.545 141.848 172.14 144.574C170.734 147.302 169.599 151.021 171.852 153.117C174.156 155.277 177.866 153.747 180.584 152.146C180.454 155.906 184.79 158.77 188.459 157.939C192.128 157.108 194.704 153.523 195.321 149.812C195.937 146.101 194.935 142.307 193.562 138.805C193.081 137.58 192.537 136.345 191.639 135.382C191.028 134.728 190.276 134.23 189.528 133.735C173.132 123 153.44 115.154 134.173 118.733C117.42 121.842 103.479 133.022 90.3101 143.831C89.6607 144.363 88.9752 144.952 88.7664 145.765C88.5821 146.485 88.814 147.251 89.076 147.953C89.8277 149.969 90.8415 152.346 92.3204 153.936C92.6919 153.665 92.7524 152.775 93.0562 152.343C93.4415 151.836 93.9454 151.432 94.5236 151.164C95.726 150.569 97.2279 150.417 98.508 150.854Z" fill="#A2DAD3"/>
<path d="M156.497 109.186C154.444 113.484 156.163 117.385 159.357 119.687C165.778 124.316 174.854 120.53 176.251 112.739C177.849 103.824 166.315 97.8988 158.395 106.461C157.629 107.268 156.988 108.187 156.497 109.186Z" fill="white"/>
<path d="M210.752 135.011C210.69 135.01 210.63 135 210.57 134.981C205.434 133.277 200.298 131.35 195.306 129.255C193.447 128.475 191.793 127.732 190.373 126.531C190.01 126.224 189.535 125.739 189.587 125.062C189.627 124.528 189.989 124.156 190.226 123.91C194.801 119.168 198.417 113.585 200.872 107.471C200.901 107.4 200.943 107.337 200.996 107.282C201.049 107.228 201.111 107.185 201.182 107.156C201.251 107.126 201.326 107.11 201.402 107.11C201.478 107.109 201.553 107.123 201.624 107.152C201.693 107.18 201.758 107.222 201.811 107.275C201.866 107.328 201.909 107.391 201.938 107.461C201.968 107.531 201.984 107.606 201.984 107.682C201.985 107.757 201.971 107.832 201.942 107.903C199.431 114.156 195.734 119.865 191.054 124.715C190.939 124.834 190.745 125.034 190.736 125.154C190.736 125.204 190.76 125.354 191.116 125.655C192.412 126.751 193.982 127.455 195.751 128.198C200.718 130.282 205.831 132.197 210.936 133.892C211.066 133.935 211.177 134.022 211.249 134.14C211.319 134.257 211.347 134.396 211.325 134.531C211.303 134.666 211.234 134.789 211.129 134.878C211.024 134.967 210.892 135.015 210.755 135.015L210.752 135.011Z" fill="#2B2F30"/>
<path d="M202.933 127.654C202.545 127.655 202.162 127.577 201.808 127.422C200.512 126.846 200.015 125.518 199.574 124.34C199.418 123.893 199.235 123.455 199.024 123.03C198.854 122.705 198.574 122.293 198.204 122.183C197.931 122.129 197.649 122.137 197.38 122.208C194.939 122.66 192.719 123.908 191.063 125.757C191.012 125.814 190.952 125.86 190.883 125.894C190.815 125.927 190.742 125.946 190.665 125.951C190.589 125.955 190.514 125.945 190.442 125.92C190.37 125.895 190.304 125.857 190.248 125.806C190.191 125.756 190.144 125.695 190.111 125.627C190.078 125.559 190.059 125.485 190.055 125.409C190.05 125.333 190.06 125.257 190.085 125.186C190.109 125.114 190.148 125.048 190.199 124.991C192.025 122.951 194.475 121.574 197.167 121.075C197.613 120.966 198.08 120.966 198.526 121.075C199.135 121.255 199.645 121.731 200.041 122.493C200.273 122.96 200.476 123.441 200.649 123.933C201.045 124.99 201.419 125.989 202.267 126.362C203.236 126.794 204.427 126.168 205.176 125.361C205.599 124.883 205.984 124.372 206.328 123.834C206.701 123.251 207.119 122.697 207.577 122.179C208.36 121.333 209.339 120.691 210.428 120.309C211.516 119.927 212.681 119.817 213.822 119.988C214.962 120.16 216.044 120.607 216.973 121.292C217.901 121.977 218.647 122.878 219.148 123.917C219.215 124.055 219.223 124.213 219.173 124.357C219.122 124.502 219.017 124.62 218.879 124.686C218.741 124.752 218.582 124.761 218.438 124.711C218.294 124.66 218.176 124.554 218.11 124.417C217.69 123.548 217.065 122.795 216.289 122.223C215.511 121.651 214.607 121.277 213.652 121.134C212.699 120.991 211.724 121.083 210.812 121.402C209.902 121.721 209.084 122.258 208.428 122.965C208.01 123.441 207.628 123.949 207.287 124.483C206.911 125.071 206.489 125.629 206.027 126.152C205.25 126.983 204.092 127.654 202.933 127.654Z" fill="#2B2F30"/>
<path d="M163.718 118.374C163.617 118.375 163.518 118.35 163.43 118.301C163.297 118.226 163.199 118.101 163.159 117.954C163.117 117.806 163.138 117.649 163.212 117.516C165.241 113.903 166.761 110.026 167.725 105.996C167.743 105.922 167.773 105.851 167.817 105.789C167.862 105.727 167.918 105.674 167.983 105.634C168.048 105.593 168.12 105.566 168.195 105.554C168.27 105.542 168.347 105.544 168.421 105.562C168.496 105.58 168.565 105.612 168.627 105.657C168.689 105.702 168.741 105.759 168.781 105.824C168.82 105.89 168.846 105.962 168.857 106.038C168.869 106.113 168.864 106.19 168.846 106.264C167.858 110.398 166.301 114.375 164.22 118.081C164.17 118.17 164.098 118.244 164.009 118.296C163.921 118.347 163.82 118.374 163.718 118.374Z" fill="#A1CEE1"/>
<path d="M171.635 115.055C171.596 115.055 171.557 115.051 171.52 115.044C167.668 114.259 164.078 112.51 161.085 109.959C161.025 109.911 160.975 109.852 160.937 109.783C160.9 109.715 160.877 109.641 160.869 109.564C160.861 109.486 160.87 109.408 160.893 109.334C160.916 109.26 160.953 109.192 161.003 109.133C161.054 109.074 161.116 109.026 161.185 108.991C161.255 108.957 161.33 108.937 161.408 108.932C161.486 108.927 161.562 108.938 161.636 108.964C161.709 108.991 161.775 109.031 161.833 109.084C164.675 111.507 168.088 113.17 171.749 113.915C171.888 113.943 172.012 114.023 172.097 114.138C172.182 114.252 172.221 114.395 172.207 114.537C172.194 114.679 172.126 114.81 172.021 114.906C171.916 115.002 171.777 115.055 171.635 115.055Z" fill="#A1CEE1"/>
<path d="M203.068 112.231C202.931 112.231 202.798 112.182 202.695 112.093C202.591 112.004 202.522 111.881 202.5 111.746L201.72 106.925C200.285 107.807 198.922 108.8 197.64 109.893C197.583 109.942 197.516 109.979 197.444 110.003C197.372 110.026 197.296 110.035 197.221 110.029C197.145 110.023 197.071 110.003 197.005 109.968C196.937 109.934 196.877 109.887 196.828 109.829C196.779 109.772 196.742 109.705 196.719 109.633C196.694 109.561 196.686 109.485 196.691 109.41C196.697 109.335 196.719 109.261 196.752 109.194C196.786 109.126 196.834 109.066 196.891 109.017C198.439 107.696 200.104 106.518 201.864 105.496C201.944 105.45 202.035 105.423 202.129 105.419C202.222 105.416 202.314 105.435 202.399 105.475C202.484 105.515 202.558 105.576 202.614 105.651C202.67 105.726 202.706 105.814 202.721 105.907L203.636 111.564C203.661 111.715 203.625 111.869 203.536 111.993C203.446 112.117 203.312 112.201 203.161 112.225C203.129 112.23 203.099 112.232 203.068 112.231Z" fill="#2B2F30"/>
<path d="M208.481 137.012C208.348 137.012 208.219 136.966 208.116 136.882C208.013 136.799 207.942 136.682 207.916 136.552C207.889 136.421 207.909 136.286 207.971 136.169C208.031 136.051 208.132 135.958 208.255 135.906C209.185 135.513 210.066 135.01 210.877 134.407C210.253 133.435 209.821 132.353 209.601 131.219C209.584 131.144 209.582 131.066 209.595 130.99C209.61 130.914 209.638 130.841 209.68 130.777C209.722 130.712 209.777 130.657 209.842 130.613C209.905 130.57 209.977 130.54 210.053 130.526C210.13 130.511 210.207 130.512 210.282 130.528C210.359 130.544 210.429 130.575 210.492 130.619C210.556 130.664 210.61 130.72 210.651 130.786C210.691 130.851 210.72 130.924 210.731 131C210.955 132.152 211.43 133.241 212.123 134.188C212.21 134.307 212.248 134.456 212.229 134.602C212.21 134.749 212.137 134.883 212.022 134.976C211.017 135.793 209.902 136.465 208.71 136.973C208.636 137.002 208.558 137.015 208.481 137.012Z" fill="#2B2F30"/>
<path d="M158.151 87.0012C156.539 87.0012 154.526 85.8708 153.667 84.4797C153.227 83.7698 153.147 83.0541 153.44 82.4637C153.508 82.3269 153.628 82.223 153.773 82.1744C153.919 82.1259 154.077 82.137 154.212 82.2053C154.349 82.2734 154.454 82.393 154.502 82.5379C154.551 82.6828 154.539 82.841 154.471 82.9778C154.327 83.2658 154.489 83.6201 154.646 83.8735C155.222 84.8081 156.806 85.8492 158.151 85.8492C158.303 85.8492 158.45 85.9098 158.558 86.0178C158.666 86.1258 158.727 86.2724 158.727 86.4252C158.727 86.5778 158.666 86.7244 158.558 86.8324C158.45 86.9404 158.303 87.0012 158.151 87.0012Z" fill="#2B2F30"/>
<path d="M114.505 123.502C117.583 124.537 118.555 125.347 121.542 126.624C118.734 128.829 115.673 130.758 112.902 132.42C107.462 135.684 109.203 132.084 110.239 130.212C111.542 127.902 112.966 125.662 114.505 123.502Z" fill="white"/>
<path d="M147.004 217.207C145.912 217.207 144.808 216.864 144.181 216.248C143.491 215.57 143.538 215.125 143.671 213.8C143.844 212.118 144.201 208.616 143.815 200.192C143.808 200.039 143.862 199.891 143.965 199.777C144.069 199.665 144.211 199.597 144.364 199.59C144.518 199.583 144.667 199.636 144.78 199.74C144.893 199.843 144.96 199.986 144.967 200.139C145.362 208.649 144.999 212.207 144.823 213.917C144.7 215.13 144.7 215.13 144.995 215.42C145.637 216.052 147.256 216.251 148.261 215.82C149.002 215.503 148.995 215.034 148.994 214.88C148.975 213.549 148.966 212.196 148.958 210.887C148.936 207.524 148.915 204.047 148.709 200.653C148.7 200.5 148.752 200.35 148.853 200.237C148.955 200.121 149.097 200.052 149.25 200.042C149.403 200.034 149.552 200.085 149.668 200.188C149.781 200.288 149.852 200.431 149.861 200.584C150.067 204.008 150.09 207.496 150.111 210.88C150.12 212.186 150.128 213.536 150.147 214.863C150.16 215.75 149.639 216.486 148.716 216.879C148.173 217.102 147.591 217.213 147.004 217.207Z" fill="#2B2F30"/>
<path d="M92.0527 155.019C91.9067 155.02 91.766 154.964 91.6591 154.865C91.5521 154.766 91.4869 154.63 91.4767 154.483C91.3701 152.953 92.7093 151.834 93.9995 151.297C97.3403 149.904 101.607 150.618 105.135 153.169C105.199 153.212 105.254 153.268 105.296 153.333C105.339 153.398 105.368 153.47 105.381 153.546C105.395 153.622 105.393 153.7 105.376 153.775C105.359 153.85 105.327 153.922 105.282 153.984C105.237 154.047 105.18 154.1 105.114 154.141C105.048 154.179 104.974 154.207 104.898 154.218C104.821 154.228 104.743 154.224 104.669 154.205C104.594 154.185 104.524 154.151 104.463 154.103C101.95 152.292 97.997 150.885 94.4416 152.366C93.5647 152.732 92.5624 153.487 92.6258 154.41C92.6366 154.562 92.5862 154.714 92.4861 154.829C92.3859 154.944 92.244 155.015 92.0915 155.025L92.0527 155.019Z" fill="#2B2F30"/>
<path d="M111.424 156.763C109.832 156.761 108.263 156.382 106.846 155.657C106.711 155.586 106.608 155.465 106.561 155.32C106.514 155.174 106.527 155.016 106.597 154.881C106.666 154.745 106.787 154.642 106.933 154.595C107.078 154.548 107.236 154.561 107.372 154.631C108.754 155.34 110.299 155.674 111.85 155.601C111.926 155.596 112.002 155.608 112.073 155.634C112.144 155.658 112.21 155.698 112.266 155.749C112.322 155.799 112.368 155.861 112.4 155.929C112.432 155.998 112.451 156.073 112.455 156.148C112.458 156.224 112.447 156.299 112.421 156.371C112.396 156.442 112.356 156.508 112.306 156.564C112.255 156.62 112.193 156.665 112.125 156.698C112.056 156.73 111.982 156.748 111.907 156.753C111.745 156.758 111.584 156.763 111.424 156.763Z" fill="#2B2F30"/>
<path d="M115.095 155.936C114.956 155.938 114.821 155.887 114.715 155.796C114.61 155.704 114.542 155.579 114.522 155.441C114.503 155.303 114.534 155.163 114.61 155.046C114.687 154.93 114.802 154.845 114.937 154.806C116.176 154.451 117.706 153.577 118.833 152.579C119.869 151.664 120.705 150.494 121.514 149.365L123.818 146.157C123.861 146.092 123.916 146.036 123.981 145.993C124.045 145.95 124.118 145.919 124.194 145.905C124.271 145.891 124.349 145.892 124.425 145.909C124.501 145.925 124.573 145.958 124.636 146.003C124.7 146.049 124.753 146.107 124.794 146.173C124.834 146.239 124.861 146.313 124.871 146.39C124.883 146.467 124.878 146.546 124.858 146.621C124.838 146.696 124.802 146.766 124.754 146.827L122.458 150.035C121.611 151.217 120.73 152.44 119.602 153.442C118.357 154.545 116.652 155.516 115.259 155.913C115.206 155.929 115.15 155.938 115.095 155.936Z" fill="#2B2F30"/>
<path d="M187.423 158.068C184.07 158.068 180.758 155.841 179.578 152.693C177.534 153.964 173.276 156.114 170.416 152.049C170.329 151.924 170.294 151.77 170.32 151.619C170.347 151.469 170.432 151.335 170.556 151.247C170.681 151.159 170.837 151.125 170.987 151.151C171.138 151.177 171.272 151.262 171.36 151.387C173.108 153.874 175.721 153.852 179.583 151.321C179.66 151.27 179.748 151.24 179.838 151.23C179.93 151.22 180.023 151.233 180.108 151.266C180.193 151.299 180.269 151.352 180.331 151.42C180.391 151.489 180.434 151.571 180.458 151.659C181.339 155.115 185.171 157.508 188.666 156.793C189.53 156.614 190.359 156.277 191.232 155.92C191.697 155.73 192.178 155.533 192.672 155.363C195.259 154.458 198.047 154.29 200.724 154.876C200.874 154.909 201.003 155 201.086 155.128C201.169 155.258 201.196 155.413 201.163 155.563C201.132 155.713 201.041 155.842 200.913 155.924C200.783 156.008 200.628 156.035 200.478 156.002C198.008 155.462 195.436 155.618 193.05 156.45C192.591 156.61 192.124 156.801 191.674 156.986C190.791 157.347 189.878 157.721 188.902 157.92C188.415 158.021 187.92 158.07 187.423 158.068Z" fill="#2B2F30"/>
<path d="M114.507 123.502C116.379 124.394 120.952 126.711 121.544 126.624C122.192 126.527 143.364 105.331 153.316 95.2204C153.94 94.5868 154.612 93.828 154.524 92.9424C154.45 92.182 153.835 91.6017 153.26 91.0977L151.225 89.3107C150.71 88.8585 149.968 87.9011 149.267 87.7801C147.991 87.5598 146.409 90.0019 145.638 90.8112L138.098 98.7312L122.955 114.63L118.666 119.135C118.284 119.542 114.749 123.623 114.507 123.502Z" fill="#A1CEE1"/>
<path d="M152.441 97.1737C152.284 97.1731 152.129 97.1587 151.975 97.1305C151.222 96.9937 150.584 96.589 149.995 96.1844C149.563 95.8964 149.188 95.643 148.856 95.4226C147.748 94.6911 146.949 94.1641 145.675 92.9415C145.145 92.4318 144.567 91.8198 144.428 90.9961C144.229 89.8297 144.956 88.8534 145.653 88.0282L145.811 87.8396C147.58 85.7415 152.96 79.3551 157.532 79.191C158.155 79.1607 158.777 79.2668 159.356 79.5018C159.934 79.7369 160.453 80.0953 160.88 80.5518C163.354 83.0934 161.633 87.9922 155.902 94.7199L155.644 95.0266C154.833 95.99 153.842 97.1737 152.441 97.1737ZM146.537 88.7727C146.009 89.3991 145.453 90.1234 145.568 90.8031C145.65 91.2812 146.062 91.7103 146.478 92.1106C147.676 93.2626 148.401 93.7378 149.502 94.4607C149.839 94.6839 150.222 94.9359 150.654 95.234C151.161 95.581 151.662 95.9007 152.189 95.9972C153.112 96.1642 153.811 95.4212 154.77 94.2822C154.858 94.1756 154.945 94.0705 155.033 93.9682C160.168 87.9404 162.001 83.341 160.062 81.3495C159.748 81.0088 159.363 80.7417 158.934 80.5675C158.507 80.3932 158.044 80.316 157.582 80.3415C154.886 80.4394 151.226 83.2114 146.701 88.5826L146.537 88.7727Z" fill="#2B2F30"/>
<path d="M119.64 121.763C119.525 121.763 119.413 121.728 119.318 121.664C119.223 121.6 119.149 121.508 119.106 121.402C119.063 121.295 119.053 121.179 119.077 121.066C119.101 120.954 119.158 120.852 119.241 120.772C119.549 120.475 120.561 119.357 121.633 118.18C122.999 116.671 124.55 114.959 125.233 114.292C125.286 114.237 125.35 114.194 125.421 114.164C125.492 114.134 125.568 114.119 125.645 114.119C125.721 114.119 125.797 114.134 125.868 114.164C125.939 114.194 126.003 114.237 126.056 114.292C126.11 114.347 126.152 114.412 126.18 114.483C126.209 114.555 126.222 114.631 126.22 114.708C126.219 114.785 126.202 114.86 126.17 114.93C126.139 115 126.094 115.063 126.038 115.116C125.374 115.764 123.837 117.461 122.481 118.959C121.349 120.21 120.37 121.29 120.033 121.614C119.925 121.712 119.785 121.765 119.64 121.763Z" fill="#2B2F30"/>
<path d="M128.136 112.538C127.998 112.537 127.865 112.485 127.761 112.394C127.704 112.345 127.657 112.285 127.622 112.218C127.588 112.15 127.567 112.077 127.561 112.001C127.555 111.926 127.564 111.85 127.588 111.778C127.611 111.706 127.649 111.64 127.698 111.582C127.888 111.36 128.246 111.006 128.627 110.637C128.943 110.326 129.273 110.005 129.433 109.825C129.483 109.768 129.544 109.722 129.612 109.689C129.68 109.656 129.754 109.636 129.83 109.632C129.906 109.627 129.981 109.637 130.053 109.662C130.125 109.687 130.191 109.725 130.247 109.776C130.304 109.826 130.35 109.887 130.384 109.955C130.417 110.023 130.436 110.097 130.441 110.172C130.445 110.248 130.435 110.324 130.411 110.395C130.386 110.467 130.347 110.533 130.297 110.59C130.11 110.8 129.782 111.121 129.433 111.461C129.085 111.801 128.73 112.148 128.569 112.325C128.517 112.39 128.451 112.443 128.376 112.479C128.301 112.516 128.219 112.536 128.136 112.538Z" fill="#2B2F30"/>
<path d="M133.448 107.351C133.336 107.351 133.226 107.318 133.132 107.256C133.038 107.195 132.965 107.107 132.92 107.004C132.875 106.901 132.862 106.788 132.881 106.677C132.9 106.566 132.951 106.464 133.027 106.382C136.08 103.115 140.083 99.0379 142.894 96.1996C142.947 96.1436 143.01 96.0988 143.081 96.0677C143.151 96.0366 143.227 96.0201 143.304 96.0186C143.38 96.0173 143.457 96.0315 143.528 96.0601C143.599 96.0888 143.664 96.1314 143.719 96.1855C143.773 96.2397 143.817 96.3042 143.846 96.3752C143.875 96.4463 143.89 96.5225 143.889 96.5994C143.889 96.6761 143.873 96.7522 143.842 96.8227C143.812 96.8933 143.768 96.9571 143.712 97.0104C140.901 99.8472 136.911 103.912 133.868 107.168C133.814 107.226 133.749 107.272 133.677 107.303C133.605 107.335 133.527 107.351 133.448 107.351Z" fill="#2B2F30"/>
<path d="M113.866 133.255C113.79 133.255 113.715 133.241 113.644 133.212C113.574 133.183 113.511 133.14 113.457 133.087C112.643 132.27 111.709 131.583 110.688 131.048C110.28 130.835 109.756 130.603 109.318 130.699C109.172 130.725 109.022 130.693 108.899 130.611C108.775 130.529 108.689 130.402 108.656 130.257C108.624 130.113 108.649 129.961 108.726 129.834C108.802 129.707 108.925 129.615 109.068 129.576C109.87 129.396 110.642 129.72 111.228 130.028C112.353 130.617 113.382 131.374 114.279 132.273C114.359 132.354 114.414 132.456 114.436 132.568C114.458 132.679 114.446 132.795 114.403 132.9C114.359 133.005 114.285 133.095 114.191 133.158C114.096 133.221 113.985 133.255 113.872 133.255H113.866Z" fill="#2B2F30"/>
</svg>
