<svg width="87" height="36" viewBox="0 0 87 36" fill="none" xmlns="http://www.w3.org/2000/svg">
<path id="Vector" d="M0.000371392 17.2418C0.000371392 17.8329 0.235181 18.3998 0.653158 18.8177C1.07113 19.2357 1.63802 19.4705 2.22913 19.4705L79.3089 20.0616L67.5099 31.8562C67.0914 32.2747 66.8563 32.8423 66.8563 33.4342C66.8563 34.026 67.0914 34.5936 67.5099 35.0121C67.9284 35.4306 68.496 35.6657 69.0878 35.6657C69.6797 35.6657 70.2473 35.4306 70.6658 35.0121L86.2671 19.4108C86.4747 19.2038 86.6393 18.9578 86.7517 18.6871C86.864 18.4163 86.9219 18.126 86.9219 17.8329C86.9219 17.5397 86.864 17.2494 86.7517 16.9787C86.6393 16.7079 86.4747 16.4619 86.2671 16.2549L70.6658 0.653612C70.4586 0.446391 70.2126 0.282015 69.9418 0.169868C69.6711 0.0577215 69.3809 0 69.0878 0C68.496 0 67.9284 0.235111 67.5099 0.653612C67.0914 1.07211 66.8563 1.63972 66.8563 2.23157C66.8563 2.82342 67.0914 3.39103 67.5099 3.80953L79.3089 15.6041L2.22913 15.013C1.63802 15.013 1.07113 15.2478 0.653158 15.6658C0.235181 16.0838 0.000371392 16.6507 0.000371392 17.2418Z" fill="black"/>
</svg>
