<svg width="108" height="66" viewBox="0 0 108 66" fill="none" xmlns="http://www.w3.org/2000/svg">
<g id="Group">
<path id="Vector" d="M53.8901 65.5503C53.5273 65.5503 53.1885 65.4536 52.8739 65.2842L49.6557 63.3728C49.1717 63.1064 49.4137 63.0097 49.559 62.9614C50.2122 62.7436 50.3332 62.695 51.0107 62.3081C51.0834 62.2596 51.1803 62.2839 51.2528 62.3322L53.7209 63.8082C53.8177 63.8566 53.9387 63.8566 54.0111 63.8082L63.6659 58.2187C63.7626 58.1703 63.8112 58.0734 63.8112 57.9526V46.7977C63.8112 46.6765 63.7626 46.58 63.6659 46.5314L54.0111 40.9661C53.9144 40.9176 53.7934 40.9176 53.7209 40.9661L44.0662 46.5314C43.9695 46.5798 43.9209 46.7008 43.9209 46.7975V57.9524C43.9209 58.0493 43.9695 58.1701 44.0662 58.2187L46.7037 59.743C48.1314 60.4689 49.0266 59.622 49.0266 58.7752V47.7654C49.0266 47.6203 49.1476 47.475 49.317 47.475H50.551C50.6963 47.475 50.8414 47.596 50.8414 47.7654V58.7752C50.8414 60.6866 49.8008 61.7998 47.9861 61.7998C47.4296 61.7998 46.9941 61.7998 45.7599 61.1948L43.2193 59.743C42.5902 59.3802 42.2031 58.7025 42.2031 57.9766V46.8218C42.2031 46.0959 42.5902 45.4182 43.2193 45.0554L52.8739 39.4659C53.4789 39.1271 54.3017 39.1271 54.9066 39.4659L64.5611 45.0554C65.1902 45.4182 65.5776 46.0959 65.5776 46.8218V57.9766C65.5776 58.7025 65.1902 59.3802 64.5611 59.743L54.9066 65.3326C54.5919 65.4779 54.2288 65.5503 53.8901 65.5503ZM56.8664 57.8799C52.632 57.8799 51.7609 55.9441 51.7609 54.2988C51.7609 54.1535 51.8819 54.0084 52.0513 54.0084H53.3095C53.4546 54.0084 53.5756 54.1051 53.5756 54.2504C53.7693 55.5328 54.3258 56.1619 56.8907 56.1619C58.9232 56.1619 59.7945 55.7021 59.7945 54.6132C59.7945 53.9841 59.5523 53.5245 56.3826 53.2099C53.745 52.9436 52.0996 52.363 52.0996 50.2579C52.0996 48.2978 53.7452 47.1363 56.5036 47.1363C59.6007 47.1363 61.1252 48.2011 61.3189 50.5238C61.3189 50.5966 61.2946 50.6691 61.2463 50.7417C61.1977 50.7901 61.1253 50.8384 61.0526 50.8384H59.7943C59.6733 50.8384 59.5523 50.7417 59.5282 50.6207C59.2379 49.29 58.4877 48.8543 56.5036 48.8543C54.2774 48.8543 54.0111 49.6287 54.0111 50.2093C54.0111 50.9111 54.3258 51.1288 57.3262 51.5159C60.3025 51.9032 61.706 52.4597 61.706 54.5406C61.6817 56.67 59.9396 57.8799 56.8664 57.8799Z" fill="#539E43"/>
<path id="Vector_2" d="M23.9337 21.9228C23.9337 21.4873 23.6916 21.0757 23.3045 20.858L13.0449 14.954C12.8753 14.857 12.6819 14.8087 12.4884 14.7844H12.3915C12.1981 14.7844 12.0044 14.857 11.835 14.954L1.57542 20.858C1.1881 21.0757 0.946289 21.4871 0.946289 21.9228L0.970575 37.7961C0.970575 38.0138 1.09159 38.2315 1.28504 38.3285C1.4787 38.4495 1.72051 38.4495 1.8901 38.3285L7.98778 34.844C8.37489 34.6263 8.61691 34.2149 8.61691 33.7794V26.3508C8.61691 25.9154 8.85873 25.504 9.24605 25.2862L11.835 23.7859C12.0287 23.6649 12.2464 23.6164 12.4642 23.6164C12.6819 23.6164 12.8996 23.6649 13.0692 23.7859L15.6582 25.2862C16.0455 25.504 16.2873 25.9152 16.2873 26.3508V33.7794C16.2873 34.2149 16.5294 34.6263 16.9165 34.844L23.0141 38.3285C23.1083 38.3878 23.2174 38.4192 23.3287 38.4192C23.44 38.4192 23.5491 38.3878 23.6433 38.3285C23.8369 38.2315 23.958 38.0138 23.958 37.7961L23.9337 21.9228ZM73.2476 0.0727011C73.0541 -0.0242337 72.8121 -0.0242337 72.6425 0.0727011C72.449 0.193713 72.328 0.387164 72.328 0.604901V16.3333C72.328 16.4783 72.2556 16.6234 72.1103 16.7204C71.9652 16.7928 71.8199 16.7928 71.6748 16.7204L69.1099 15.2444C68.9219 15.1373 68.7092 15.081 68.4928 15.081C68.2764 15.081 68.0638 15.1373 67.8757 15.2444L57.6161 21.1727C57.229 21.3904 56.987 21.8018 56.987 22.2373V34.0696C56.987 34.5051 57.229 34.9167 57.6161 35.1344L67.8757 41.0627C68.0638 41.1698 68.2764 41.2261 68.4928 41.2261C68.7092 41.2261 68.9219 41.1698 69.1099 41.0627L79.3695 35.1344C79.7566 34.9167 79.9986 34.5053 79.9986 34.0696V4.57337C79.9986 4.11361 79.7566 3.70242 79.3695 3.48447L73.2476 0.0727011ZM72.304 30.174C72.304 30.295 72.2556 30.3917 72.1587 30.4401L68.6502 32.4726C68.6012 32.4965 68.5473 32.5089 68.4928 32.5089C68.4383 32.5089 68.3845 32.4965 68.3355 32.4726L64.827 30.4401C64.7301 30.3917 64.6817 30.2707 64.6817 30.174V26.1088C64.6817 25.9878 64.7301 25.8911 64.827 25.8427L68.3355 23.81C68.3845 23.7861 68.4383 23.7737 68.4928 23.7737C68.5473 23.7737 68.6012 23.7861 68.6502 23.81L72.1587 25.8427C72.2556 25.8909 72.304 26.0121 72.304 26.1088V30.174ZM107.39 26.0121C107.777 25.7944 107.995 25.383 107.995 24.9473V22.0679C107.995 21.6324 107.753 21.221 107.39 21.0033L97.2028 15.0993C97.0148 14.9922 96.8021 14.9359 96.5857 14.9359C96.3693 14.9359 96.1567 14.9922 95.9686 15.0993L85.709 21.0274C85.3217 21.2451 85.0799 21.6565 85.0799 22.092V33.9245C85.0799 34.36 85.3219 34.7714 85.709 34.9891L95.896 40.7964C96.2833 41.0142 96.743 41.0142 97.1061 40.7964L103.276 37.3608C103.47 37.2639 103.591 37.0461 103.591 36.8284C103.591 36.6106 103.47 36.3929 103.276 36.296L92.9682 30.3677C92.7746 30.2467 92.6536 30.0532 92.6536 29.8355V26.1333C92.6536 25.9156 92.7746 25.6978 92.9682 25.6009L96.1864 23.7619C96.2806 23.7026 96.3896 23.6711 96.5009 23.6711C96.6122 23.6711 96.7213 23.7026 96.8155 23.7619L100.034 25.6009C100.227 25.7219 100.348 25.9154 100.348 26.1333V29.037C100.348 29.2547 100.469 29.4724 100.663 29.5692C100.757 29.6285 100.866 29.6599 100.978 29.6599C101.089 29.6599 101.198 29.6285 101.292 29.5692L107.39 26.0121Z" fill="#333333"/>
<path id="Vector_3" d="M96.4285 25.4555C96.4644 25.4318 96.5065 25.4192 96.5495 25.4192C96.5925 25.4192 96.6346 25.4318 96.6705 25.4555L98.6306 26.5928C98.703 26.6413 98.7514 26.7138 98.7514 26.8105V29.0852C98.7514 29.1819 98.7032 29.2546 98.6306 29.303L96.6705 30.4402C96.6346 30.4639 96.5925 30.4765 96.5495 30.4765C96.5065 30.4765 96.4644 30.4639 96.4285 30.4402L94.4687 29.303C94.396 29.2546 94.3477 29.1819 94.3477 29.0852V26.8107C94.3477 26.7138 94.3958 26.6411 94.4687 26.593L96.4285 25.4555Z" fill="#539E43"/>
<g id="Group_2">
<path id="Vector_4" d="M41.0902 15.1477C40.9022 15.0407 40.6896 14.9844 40.4732 14.9844C40.2569 14.9844 40.0442 15.0407 39.8562 15.1477L29.6693 21.0273C29.2819 21.245 29.0642 21.6564 29.0642 22.0919V33.8761C29.0642 34.3115 29.3062 34.7229 29.6693 34.9407L39.8562 40.8206C40.0442 40.9276 40.2569 40.9839 40.4732 40.9839C40.6896 40.9839 40.9022 40.9276 41.0902 40.8206L51.2774 34.9407C51.6645 34.7229 51.8824 34.3115 51.8824 33.8761V22.0921C51.8824 21.6566 51.6402 21.2452 51.2774 21.0275L41.0902 15.1477Z" fill="url(#paint0_linear_1_118)"/>
</g>
</g>
<defs>
<linearGradient id="paint0_linear_1_118" x1="1584.99" y1="469.637" x2="468.404" y2="2224.13" gradientUnits="userSpaceOnUse">
<stop stop-color="#41873F"/>
<stop offset="0.3288" stop-color="#418B3D"/>
<stop offset="0.6352" stop-color="#419637"/>
<stop offset="0.9319" stop-color="#3FA92D"/>
<stop offset="1" stop-color="#3FAE2A"/>
</linearGradient>
</defs>
</svg>
