<svg width="44" height="62" viewBox="0 0 44 62" fill="none" xmlns="http://www.w3.org/2000/svg">
<path d="M43.9461 12.0151L40.0001 56.2207L22.2625 61.1381L4.57377 56.2275L0.631836 12.0151H43.9461Z" fill="#E44D26"/>
<path d="M22.2889 57.3793L36.6218 53.4058L39.9938 15.63H22.2889V57.3793Z" fill="#F16529"/>
<path d="M14.6175 26.4751H22.2884V21.0527H8.69141L8.82112 22.5074L10.1539 37.4503H22.2884V32.0278H15.1131L14.6175 26.4751ZM15.8396 40.1616H10.3962L11.1559 48.6757L22.2635 51.7591L22.2884 51.7523V46.1106L22.2646 46.1169L16.2257 44.4863L15.8396 40.1616Z" fill="#EBEBEB"/>
<path d="M4.66211 0H7.41774V2.72253H9.93856V0H12.6944V8.24449H9.93873V5.48376H7.41791V8.24449H4.66228L4.66211 0ZM16.318 2.73407H13.8924V0H21.5012V2.73407H19.0741V8.24449H16.3185V2.73407H16.318ZM22.7087 0H25.582L27.3495 2.8969L29.1153 0H31.9898V8.24449H29.2453V4.15807L27.3495 7.08944H27.302L25.4049 4.15807V8.24449H22.7087V0ZM33.3611 0H36.1176V5.51942H39.9928V8.24449H33.361V0H33.3611Z" fill="black"/>
<path d="M22.2697 37.4503H28.9469L28.3173 44.4829L22.2695 46.1152V51.7565L33.386 48.6757L33.4675 47.7596L34.7419 33.4839L34.8741 32.0278H22.2697V37.4503ZM22.2697 26.4619V26.4751H35.3675L35.4762 25.2564L35.7234 22.5074L35.853 21.0527H22.2697V26.4619Z" fill="white"/>
</svg>
