<svg width="147" height="30" viewBox="0 0 147 30" fill="none" xmlns="http://www.w3.org/2000/svg">
<path d="M123.323 0.0123459V4.73823H113.165V29.6014H108.086V4.73851H97.7175V0.0123459H123.323ZM124.464 26.7828C124.822 26.7828 125.135 26.9114 125.4 27.1692C125.669 27.4268 125.803 27.7354 125.806 28.0949C125.806 28.3307 125.74 28.5619 125.617 28.763C125.496 28.9615 125.327 29.126 125.125 29.241C124.925 29.3603 124.697 29.4224 124.464 29.4208C124.092 29.4208 123.776 29.2918 123.511 29.0343C123.246 28.7765 123.115 28.4644 123.118 28.0949C123.115 27.7354 123.246 27.4268 123.511 27.1692C123.776 26.9114 124.092 26.7828 124.464 26.7828ZM23.8014 29.6014L5.07415 6.32453V29.5893H-0.00488281V0H6.34347L30.0033 29.38L30.0036 4.73851L30.0016 0.0123459H55.6063V4.73823H35.0823V12.341H51.5879V17.0672H35.0823V24.8755H55.6066V29.6014H23.8014ZM71.8839 17.0221L75.2124 21.1602L68.3921 29.6364H61.7267L71.8839 17.0221ZM68.3921 0.0246917L76.9854 10.6967L85.5517 0.0574226L92.1983 0.0473737L80.313 14.8294L92.2176 29.6137H85.5517L61.7457 0.0246917H68.3921ZM133.133 16.9557H135.383V25.6266C135.38 26.4233 135.207 27.1046 134.87 27.678C134.53 28.2508 134.058 28.6883 133.453 28.997C132.85 29.3019 132.145 29.4581 131.343 29.4581C130.61 29.4581 129.953 29.326 129.368 29.0682C128.783 28.8104 128.319 28.4239 127.978 27.9151C127.633 27.4067 127.465 26.7724 127.465 26.013H129.719C129.723 26.3452 129.798 26.6332 129.942 26.8744C130.085 27.1124 130.293 27.3042 130.541 27.4268C130.799 27.556 131.096 27.6203 131.429 27.6203C131.791 27.6203 132.1 27.5456 132.351 27.3929C132.602 27.2436 132.795 27.0199 132.93 26.7216C133.06 26.4265 133.129 26.0604 133.133 25.6263V16.9557ZM144.643 20.3466C144.588 19.8211 144.347 19.4106 143.927 19.1191C143.504 18.824 142.957 18.6784 142.286 18.6784C141.815 18.6784 141.409 18.7496 141.071 18.8886C140.734 19.031 140.473 19.2208 140.294 19.4617C140.115 19.7023 140.025 19.977 140.018 20.2857C140.018 20.5432 140.08 20.7672 140.2 20.9535C140.325 21.1489 140.494 21.3126 140.693 21.4318C140.909 21.5677 141.14 21.678 141.381 21.7606C141.635 21.8487 141.89 21.9234 142.145 21.9845L143.318 22.2728C143.79 22.3813 144.248 22.5269 144.685 22.7135C145.121 22.8967 145.517 23.1307 145.865 23.4121C146.212 23.6934 146.488 24.0325 146.691 24.4293C146.894 24.8261 146.997 25.2906 146.997 25.8264C146.997 26.5485 146.811 27.1827 146.436 27.732C146.061 28.2781 145.521 28.7053 144.812 29.0139C144.106 29.3191 143.253 29.475 142.248 29.475C141.278 29.475 140.431 29.3257 139.719 29.0274C139.003 28.7326 138.446 28.2982 138.043 27.7285C137.64 27.1589 137.424 26.4638 137.393 25.6467H139.623C139.654 26.0739 139.791 26.4299 140.025 26.7182C140.262 27.003 140.572 27.2132 140.951 27.3556C141.333 27.4948 141.759 27.566 142.231 27.566C142.723 27.566 143.157 27.4914 143.532 27.3455C143.903 27.1997 144.196 26.9964 144.406 26.7317C144.619 26.4704 144.726 26.162 144.729 25.8095C144.726 25.4873 144.629 25.2194 144.443 25.009C144.254 24.7988 143.993 24.6225 143.659 24.4801C143.322 24.3377 142.929 24.2088 142.482 24.0971L141.057 23.7376C140.028 23.4764 139.213 23.0799 138.618 22.5473C138.019 22.015 137.723 21.3098 137.723 20.4247C137.723 19.6991 137.923 19.0614 138.325 18.5153C138.724 17.9698 139.272 17.5458 139.963 17.244C140.658 16.9388 141.443 16.7895 142.317 16.7895C143.205 16.7895 143.982 16.9388 144.654 17.244C145.324 17.5458 145.851 17.9661 146.233 18.5019C146.615 19.0379 146.815 19.6515 146.825 20.3466H144.643Z" fill="black"/>
</svg>
