<svg width="55" height="49" viewBox="0 0 55 49" fill="none" xmlns="http://www.w3.org/2000/svg">
<g id="Group 389">
<path id="Vector" d="M27.1654 29.2696C29.8209 29.2696 31.9736 27.1169 31.9736 24.4614C31.9736 21.8059 29.8209 19.6532 27.1654 19.6532C24.5099 19.6532 22.3572 21.8059 22.3572 24.4614C22.3572 27.1169 24.5099 29.2696 27.1654 29.2696Z" fill="#00D8FF"/>
<path id="Vector_2" d="M27.1649 35.4856C21.3858 35.6254 15.621 34.8464 10.0862 33.1777C7.52948 32.3672 5.14483 31.0904 3.05281 29.4119C2.25452 28.8385 1.58972 28.0992 1.10404 27.2447C0.618354 26.3902 0.323279 25.4407 0.239059 24.4614C0.239059 21.2822 3.73173 18.1665 9.58234 16.1278C15.2651 14.3214 21.2026 13.4459 27.1649 13.5353C33.0477 13.4531 38.9057 14.3127 44.5168 16.0817C46.9791 16.8667 49.2829 18.0817 51.3213 19.6705C52.106 20.2172 52.7608 20.9297 53.2394 21.7577C53.718 22.5856 54.0087 23.5086 54.0908 24.4614C54.0908 27.7656 50.1866 31.114 43.8975 33.195C38.4698 34.8094 32.8267 35.5819 27.1649 35.4856ZM27.1649 15.8355C21.4607 15.7593 15.7807 16.5916 10.3382 18.3011C4.95301 20.1802 2.5393 22.7497 2.5393 24.4556C2.5393 26.2404 5.1338 29.0465 10.8305 30.9948C16.1255 32.5831 21.6386 33.3225 27.1649 33.1854C32.5817 33.2823 37.9813 32.5493 43.1762 31.0121C49.0903 29.0523 51.7829 26.2424 51.7829 24.4614C51.6859 23.8502 51.4631 23.2658 51.1288 22.7451C50.7944 22.2244 50.3557 21.7787 49.8404 21.4361C48.0166 20.0266 45.9586 18.9497 43.7609 18.255C38.3931 16.5697 32.7905 15.7529 27.1649 15.8355Z" fill="#00D8FF"/>
<path id="Vector_3" d="M16.2407 48.4427C15.3435 48.4633 14.4569 48.2456 13.6712 47.8119C10.9171 46.2233 9.96312 41.642 11.119 35.5548C12.3935 29.7294 14.6017 24.1485 17.6582 19.0281C20.5252 13.8912 24.1957 9.24617 28.5304 5.26899C30.4406 3.52786 32.6441 2.13894 35.0388 1.16664C35.905 0.760716 36.8498 0.550293 37.8064 0.550293C38.763 0.550293 39.7078 0.760716 40.574 1.16664C43.4378 2.81682 44.3859 7.87119 43.0493 14.3584C41.7355 19.8678 39.5846 25.1431 36.6717 30.0004C33.9055 35.0766 30.3506 39.6813 26.1398 43.6422C24.1603 45.4516 21.8631 46.879 19.3641 47.8523C18.3636 48.2236 17.3077 48.4232 16.2407 48.4427ZM19.6507 20.1705C16.7352 25.0736 14.6187 30.4095 13.3808 35.978C12.3172 41.5843 13.3385 44.9558 14.8232 45.8136C16.3619 46.7041 20.0969 45.8598 24.632 41.8978C28.6517 38.1031 32.0447 33.6954 34.6849 28.8388C37.4755 24.195 39.5387 19.1515 40.8029 13.8834C42.0607 7.77695 40.974 4.0381 39.4316 3.14954C38.8535 2.92803 38.2357 2.82887 37.6173 2.85834C36.9989 2.8878 36.3933 3.04524 35.8389 3.32071C33.7073 4.20032 31.7476 5.44907 30.0498 7.00956C25.9084 10.8192 22.4023 15.2661 19.6641 20.1821L19.6507 20.1705Z" fill="#00D8FF"/>
<path id="Vector_4" d="M38.0835 48.4677C35.4775 48.4677 32.1675 46.8906 28.721 43.9269C24.3103 39.9135 20.5778 35.2132 17.6679 30.0081C14.6498 24.9583 12.4591 19.458 11.1788 13.716C10.6236 11.1898 10.5207 8.58508 10.8749 6.02291C10.9568 5.07243 11.2462 4.1515 11.7228 3.32505C12.1993 2.4986 12.8513 1.78676 13.6329 1.23971C16.4928 -0.416228 21.3452 1.28587 26.2977 5.68249C30.4146 9.57171 33.9108 14.0693 36.6641 19.0185C39.6804 23.9504 41.8941 29.3302 43.2225 34.9567C43.8016 37.5756 43.891 40.2791 43.486 42.9306C43.3897 43.9084 43.083 44.8538 42.587 45.702C42.0911 46.5502 41.4175 47.2811 40.6126 47.8446C39.8398 48.2729 38.9669 48.488 38.0835 48.4677ZM19.6585 28.8503C22.45 33.8247 26.0155 38.3231 30.2212 42.1767C34.5466 45.8982 37.9777 46.6983 39.4529 45.8309C40.9915 44.9366 42.1262 41.2862 40.9569 35.3798C39.6758 30.008 37.5525 24.8728 34.6659 20.1648C32.0383 15.428 28.7013 11.1212 24.7706 7.3942C20.1086 3.25531 16.3274 2.33021 14.7869 3.22261C14.3067 3.61281 13.9127 4.09833 13.6296 4.64851C13.3466 5.19868 13.1807 5.80157 13.1425 6.4191C12.8367 8.70412 12.9363 11.0252 13.4367 13.2756C14.6682 18.7668 16.7693 24.026 19.6604 28.8541L19.6585 28.8503Z" fill="#00D8FF"/>
</g>
</svg>
