<svg width="53" height="53" viewBox="0 0 53 53" fill="none" xmlns="http://www.w3.org/2000/svg">
<path fill-rule="evenodd" clip-rule="evenodd" d="M26.3161 0C31.5209 0 36.6089 1.54341 40.9365 4.43506C45.2642 7.32671 48.6372 11.4367 50.629 16.2454C52.6208 21.054 53.1419 26.3453 52.1265 31.4501C51.1111 36.5549 48.6048 41.244 44.9244 44.9244C41.244 48.6048 36.5549 51.1111 31.4501 52.1265C26.3453 53.1419 21.054 52.6208 16.2454 50.629C11.4367 48.6372 7.32671 45.2642 4.43506 40.9365C1.54341 36.6089 0 31.5209 0 26.3161C0 19.3366 2.77258 12.643 7.7078 7.7078C12.643 2.77258 19.3366 0 26.3161 0Z" fill="#CC6699"/>
<path d="M42.8244 11.2632C41.6327 6.59018 33.8826 5.06009 26.5479 7.65786C21.9545 9.2014 17.7105 11.6357 14.0591 14.8215C10.0195 18.5997 9.3748 21.8892 9.63984 23.2633C10.5797 28.113 17.2208 31.2822 19.952 33.6337V33.6469C19.1475 34.0435 13.2527 37.0304 11.8692 40.0755C10.4143 43.2936 12.1004 45.6019 13.2188 45.9121C14.898 46.3163 16.6616 46.1848 18.2623 45.5358C19.8629 44.8869 21.2202 43.7531 22.1437 42.2936C22.907 41.1111 23.3846 39.7672 23.5385 38.3682C23.6925 36.9692 23.5188 35.5536 23.031 34.2334C24.3465 33.8991 25.7141 33.8206 27.0592 34.0022C31.6758 34.5416 32.5818 37.4232 32.4089 38.63C32.3276 39.0596 32.1547 39.4666 31.902 39.8234C31.6493 40.1802 31.3228 40.4784 30.9446 40.6977C30.6213 40.8988 30.5217 40.9665 30.5499 41.1169C30.5893 41.3331 30.7378 41.3255 31.0142 41.2785C31.7079 41.0601 32.3192 40.6365 32.7675 40.0637C33.2158 39.491 33.48 38.7958 33.5255 38.0699C33.6364 35.2503 30.9277 32.0811 26.1306 32.1619C24.7374 32.1221 23.3471 32.3127 22.0159 32.7258C21.9493 32.6497 21.8816 32.5745 21.8129 32.5003C18.8467 29.3367 13.3655 27.0979 13.5967 22.8441C13.6812 21.2971 14.2188 17.2256 24.1231 12.2857C32.2435 8.2387 38.7436 9.35337 39.8676 11.8214C41.4729 15.3478 36.3939 21.8986 27.9615 22.8441C27.0295 23.0333 26.0668 23.0103 25.1449 22.7766C24.2231 22.543 23.3656 22.1048 22.6362 21.4945C22.1926 21.0058 22.1268 20.9851 21.9614 21.0753C21.6926 21.2238 21.8637 21.6561 21.9614 21.9118C22.2843 22.4937 22.7201 23.0053 23.2434 23.4165C23.7666 23.8277 24.3667 24.1303 25.0084 24.3066C28.3239 25.027 31.7819 24.685 34.892 23.3291C40.0067 21.3573 43.9955 15.8591 42.8244 11.2632ZM21.0873 35.0811C21.4607 36.3682 21.4417 37.7373 21.0328 39.0135C20.989 39.1463 20.9407 39.2779 20.8881 39.4082C20.8355 39.5386 20.7784 39.6639 20.717 39.7842C20.4007 40.4314 19.9909 41.0287 19.5009 41.5568C17.9726 43.2241 15.8354 43.8557 14.92 43.3237C13.9312 42.7504 14.4256 40.3988 16.1982 38.5248C17.5602 37.1779 19.1305 36.0595 20.8486 35.2127L21.0873 35.0811Z" fill="white"/>
</svg>
