<svg width="17" height="17" viewBox="0 0 17 17" fill="none" xmlns="http://www.w3.org/2000/svg">
<g id="iconamoon:star-fill" clip-path="url(#clip0_1_230)">
<path id="Vector" fill-rule="evenodd" clip-rule="evenodd" d="M8.96315 1.09795C8.90756 0.97749 8.81864 0.875472 8.70689 0.803965C8.59515 0.732459 8.46526 0.694458 8.33259 0.694458C8.19992 0.694458 8.07003 0.732459 7.95829 0.803965C7.84654 0.875472 7.75762 0.97749 7.70203 1.09795L5.70898 5.4174L0.986062 5.97781C0.854291 5.99337 0.729736 6.04636 0.627137 6.13049C0.524539 6.21463 0.448192 6.3264 0.407133 6.45257C0.366073 6.57875 0.36202 6.71404 0.395453 6.84245C0.428886 6.97085 0.498406 7.08699 0.595784 7.17712L4.08884 10.4063L3.16176 15.073C3.13601 15.203 3.14804 15.3378 3.19644 15.4612C3.24484 15.5847 3.32758 15.6917 3.43487 15.7697C3.54217 15.8476 3.66953 15.8932 3.80191 15.901C3.93429 15.9089 4.06615 15.8786 4.1819 15.8139L8.33259 13.4903L12.4833 15.8139C12.5991 15.8789 12.7311 15.9093 12.8637 15.9016C12.9963 15.8938 13.1239 15.8482 13.2313 15.7701C13.3388 15.6921 13.4216 15.5848 13.4699 15.4612C13.5183 15.3375 13.5301 15.2025 13.5041 15.0723L12.577 10.407L16.0694 7.17712C16.1668 7.08699 16.2363 6.97085 16.2697 6.84245C16.3032 6.71404 16.2991 6.57875 16.258 6.45257C16.217 6.3264 16.1406 6.21463 16.038 6.13049C15.9354 6.04636 15.8109 5.99337 15.6791 5.97781L10.9555 5.4167L8.96315 1.09795Z" fill="black"/>
</g>
<defs>
<clipPath id="clip0_1_230">
<rect width="16.6667" height="16.6667" fill="white"/>
</clipPath>
</defs>
</svg>
