<svg width="12" height="12" viewBox="0 0 12 12" fill="none" xmlns="http://www.w3.org/2000/svg">
<path id="Vector" d="M2.78571 1.28571C2.38789 1.28571 2.00636 1.44375 1.72505 1.72505C1.44375 2.00636 1.28571 2.38789 1.28571 2.78571V9.21429C1.28571 10.0423 1.95771 10.7143 2.78571 10.7143H9.21429C9.61211 10.7143 9.99364 10.5563 10.2749 10.2749C10.5563 9.99364 10.7143 9.61211 10.7143 9.21429V7.5C10.7143 7.3295 10.782 7.16599 10.9026 7.04543C11.0231 6.92487 11.1866 6.85714 11.3571 6.85714C11.5276 6.85714 11.6912 6.92487 11.8117 7.04543C11.9323 7.16599 12 7.3295 12 7.5V9.21429C12 9.9531 11.7065 10.6617 11.1841 11.1841C10.6617 11.7065 9.9531 12 9.21429 12H2.78571C2.0469 12 1.33834 11.7065 0.815917 11.1841C0.293494 10.6617 0 9.9531 0 9.21429V2.78571C0 2.0469 0.293494 1.33834 0.815917 0.815917C1.33834 0.293494 2.0469 0 2.78571 0H4.5C4.6705 0 4.83401 0.0677293 4.95457 0.188288C5.07513 0.308848 5.14286 0.472361 5.14286 0.642857C5.14286 0.813353 5.07513 0.976867 4.95457 1.09743C4.83401 1.21799 4.6705 1.28571 4.5 1.28571H2.78571ZM6.42857 0.642857C6.42857 0.472361 6.4963 0.308848 6.61686 0.188288C6.73742 0.0677293 6.90093 0 7.07143 0H11.3571C11.5276 0 11.6912 0.0677293 11.8117 0.188288C11.9323 0.308848 12 0.472361 12 0.642857V4.92857C12 5.09907 11.9323 5.26258 11.8117 5.38314C11.6912 5.5037 11.5276 5.57143 11.3571 5.57143C11.1866 5.57143 11.0231 5.5037 10.9026 5.38314C10.782 5.26258 10.7143 5.09907 10.7143 4.92857V2.19429L7.52571 5.38286C7.46686 5.44602 7.39589 5.49668 7.31703 5.53181C7.23818 5.56695 7.15305 5.58584 7.06673 5.58736C6.98042 5.58889 6.89468 5.57301 6.81463 5.54068C6.73458 5.50834 6.66187 5.46022 6.60082 5.39918C6.53978 5.33813 6.49166 5.26542 6.45932 5.18537C6.42699 5.10532 6.41111 5.01958 6.41264 4.93327C6.41416 4.84695 6.43305 4.76182 6.46819 4.68297C6.50332 4.60411 6.55398 4.53314 6.61714 4.47429L9.80571 1.28571H7.07143C6.90093 1.28571 6.73742 1.21799 6.61686 1.09743C6.4963 0.976867 6.42857 0.813353 6.42857 0.642857Z" fill="white"/>
</svg>
