<svg width="9" height="9" viewBox="0 0 9 9" fill="none" xmlns="http://www.w3.org/2000/svg">
<path d="M7.88089 6.7645L7.86637 1.17155L2.27343 1.15704C2.21516 1.14915 2.15587 1.15387 2.09958 1.17088C2.0433 1.1879 1.99132 1.21681 1.94718 1.25566C1.90304 1.2945 1.86776 1.34238 1.84373 1.39605C1.8197 1.44972 1.80748 1.50792 1.8079 1.56672C1.80832 1.62552 1.82137 1.68354 1.84616 1.73686C1.87096 1.79018 1.90692 1.83755 1.95161 1.87576C1.9963 1.91398 2.04869 1.94214 2.10521 1.95835C2.16173 1.97456 2.22108 1.97843 2.27923 1.96971L6.47031 1.98713L0.918 7.53944C0.841023 7.61642 0.797778 7.72082 0.797778 7.82968C0.797778 7.93854 0.841023 8.04295 0.917999 8.11992C0.994976 8.1969 1.09938 8.24014 1.20824 8.24014C1.3171 8.24014 1.42151 8.1969 1.49848 8.11992L7.0508 2.56761L7.06821 6.75869C7.0686 6.86761 7.11223 6.97192 7.18953 7.04867C7.26682 7.12542 7.37143 7.16832 7.48035 7.16793C7.58927 7.16755 7.69358 7.12391 7.77033 7.04662C7.84708 6.96933 7.88998 6.86471 7.88959 6.75579L7.88089 6.7645Z" fill="white" stroke="white" stroke-width="0.7"/>
</svg>
