<svg width="128" height="25" viewBox="0 0 128 25" fill="none" xmlns="http://www.w3.org/2000/svg">
<rect x="81.3945" width="46.6055" height="24.9534" rx="2.42737" fill="#33B3EA"/>
<g filter="url(#filter0_d_1_502)">
<path d="M6.03445 20.0899H7.08629L10.4486 12.9248L13.8379 20.0899H14.8987L19.7354 5.50797H15.5729L13.5771 12.1247L10.6104 5.53494H10.3227L7.356 12.1427L5.35121 5.50797H1.18879L6.03445 20.0899ZM28.4557 11.2688V8.40638H20.94V20H28.4557V17.116H23.9823V15.4546H27.6646V12.887H23.9823V11.2688H28.4557ZM36.3598 13.4696C36.8345 13.4696 37.6256 12.6137 37.6256 11.4199C37.6256 9.82322 36.0865 8.40638 33.9864 8.40638H30.1746V20H35.1228C37.4458 20 38.9849 18.2955 38.9849 16.4615C38.9849 14.7138 37.5969 13.4696 36.3598 13.4696ZM35.0437 11.9736C35.0437 12.5706 34.5402 12.9014 33.8714 12.9014H33.1378V11.0818H33.8929C34.5546 11.0818 35.0437 11.4127 35.0437 11.9736ZM34.6553 17.2023H33.1378V15.0015L34.6769 15.0087C35.5471 15.0087 36.0362 15.4186 36.0362 16.0947C36.0362 16.8571 35.3601 17.2023 34.6553 17.2023ZM43.9187 20.1582C46.2417 20.1582 48.2986 18.7845 48.2986 16.5766C48.2986 14.8649 47.0976 13.7573 45.2852 12.9949C44.0337 12.4699 43.2138 12.2973 43.2138 11.7651C43.2138 11.3695 43.6669 11.0459 44.2998 11.0459C44.8536 11.0459 45.7455 11.312 46.0907 11.9233L47.8671 10.2116C47.414 9.06805 46.0331 8.23377 44.2639 8.23377C42.0631 8.23377 40.1572 9.66499 40.1572 11.6716C40.1572 13.4193 41.4158 14.383 42.883 15.0159C44.0194 15.5193 45.2061 16.0444 45.2061 16.6413C45.2061 17.116 44.566 17.3533 43.9115 17.3533C42.9405 17.3533 42.0415 16.9218 41.5597 16.2098L39.6969 18.0366C40.2795 19.3168 42.0128 20.1582 43.9187 20.1582ZM57.6484 8.40638H49.0035V11.2832H51.7869V20H54.8722V11.2832H57.6484V8.40638ZM66.473 11.2688V8.40638H58.9573V20H66.473V17.116H61.9995V15.4546H65.6819V12.887H61.9995V11.2688H66.473ZM77.9876 20L74.8806 15.3467C76.0169 14.8289 76.8872 13.6206 76.8872 12.175C76.8872 10.0965 75.0963 8.40638 72.5935 8.40638H68.1919L68.2063 20H71.2845V14.9655L74.3843 20H77.9876ZM71.2702 11.1753H72.5288C73.1761 11.1753 73.7802 11.6212 73.7802 12.3404C73.7802 13.0525 73.1832 13.5127 72.5288 13.5056L71.2702 13.4984V11.1753ZM96.5053 5.50797V10.947H92.199V5.50797H88.3513V20H92.199V14.543H96.5053V20H100.344V5.50797H96.5053ZM107.32 20.3236C109.974 20.3236 112.132 18.4465 112.132 15.7854V8.40638H109.032V15.7783C109.032 16.7276 108.183 17.3821 107.313 17.3821C106.436 17.3821 105.609 16.742 105.609 15.7783V8.40638H102.509V15.7854C102.509 18.4465 104.666 20.3236 107.32 20.3236ZM120.23 13.4696C120.705 13.4696 121.496 12.6137 121.496 11.4199C121.496 9.82322 119.957 8.40638 117.857 8.40638H114.045V20H118.993C121.316 20 122.855 18.2955 122.855 16.4615C122.855 14.7138 121.467 13.4696 120.23 13.4696ZM118.914 11.9736C118.914 12.5706 118.41 12.9014 117.742 12.9014H117.008V11.0818H117.763C118.425 11.0818 118.914 11.4127 118.914 11.9736ZM118.526 17.2023H117.008V15.0015L118.547 15.0087C119.417 15.0087 119.906 15.4186 119.906 16.0947C119.906 16.8571 119.23 17.2023 118.526 17.2023Z" fill="#060C0F"/>
</g>
<defs>
<filter id="filter0_d_1_502" x="0.509118" y="5.50806" width="123.026" height="16.175" filterUnits="userSpaceOnUse" color-interpolation-filters="sRGB">
<feFlood flood-opacity="0" result="BackgroundImageFix"/>
<feColorMatrix in="SourceAlpha" type="matrix" values="0 0 0 0 0 0 0 0 0 0 0 0 0 0 0 0 0 0 127 0" result="hardAlpha"/>
<feOffset dy="0.679664"/>
<feGaussianBlur stdDeviation="0.339832"/>
<feComposite in2="hardAlpha" operator="out"/>
<feColorMatrix type="matrix" values="0 0 0 0 0 0 0 0 0 0 0 0 0 0 0 0 0 0 0.25 0"/>
<feBlend mode="normal" in2="BackgroundImageFix" result="effect1_dropShadow_1_502"/>
<feBlend mode="normal" in="SourceGraphic" in2="effect1_dropShadow_1_502" result="shape"/>
</filter>
</defs>
</svg>
